%TF.GenerationSoftware,KiCad,Pcbnew,5.1.9+dfsg1-1*%
%TF.CreationDate,2021-05-25T15:38:03+02:00*%
%TF.ProjectId,vscp-din-wireless-esp8266,76736370-2d64-4696-9e2d-776972656c65,rev?*%
%TF.SameCoordinates,Original*%
%TF.FileFunction,Soldermask,Top*%
%TF.FilePolarity,Negative*%
%FSLAX46Y46*%
G04 Gerber Fmt 4.6, Leading zero omitted, Abs format (unit mm)*
G04 Created by KiCad (PCBNEW 5.1.9+dfsg1-1) date 2021-05-25 15:38:03*
%MOMM*%
%LPD*%
G01*
G04 APERTURE LIST*
%ADD10R,2.500000X1.000000*%
%ADD11R,1.000000X1.800000*%
%ADD12R,1.500000X1.050000*%
%ADD13O,1.500000X1.050000*%
%ADD14O,1.700000X1.700000*%
%ADD15R,1.700000X1.700000*%
%ADD16C,1.800000*%
%ADD17R,1.800000X1.800000*%
%ADD18C,1.600000*%
%ADD19R,1.600000X1.600000*%
G04 APERTURE END LIST*
%TO.C,C3*%
G36*
G01*
X130843000Y-50996000D02*
X131793000Y-50996000D01*
G75*
G02*
X132043000Y-51246000I0J-250000D01*
G01*
X132043000Y-51746000D01*
G75*
G02*
X131793000Y-51996000I-250000J0D01*
G01*
X130843000Y-51996000D01*
G75*
G02*
X130593000Y-51746000I0J250000D01*
G01*
X130593000Y-51246000D01*
G75*
G02*
X130843000Y-50996000I250000J0D01*
G01*
G37*
G36*
G01*
X130843000Y-49096000D02*
X131793000Y-49096000D01*
G75*
G02*
X132043000Y-49346000I0J-250000D01*
G01*
X132043000Y-49846000D01*
G75*
G02*
X131793000Y-50096000I-250000J0D01*
G01*
X130843000Y-50096000D01*
G75*
G02*
X130593000Y-49846000I0J250000D01*
G01*
X130593000Y-49346000D01*
G75*
G02*
X130843000Y-49096000I250000J0D01*
G01*
G37*
%TD*%
D10*
%TO.C,U2*%
X155174000Y-49332000D03*
X155174000Y-51332000D03*
X155174000Y-53332000D03*
X155174000Y-55332000D03*
X155174000Y-57332000D03*
X155174000Y-59332000D03*
X155174000Y-61332000D03*
X155174000Y-63332000D03*
D11*
X152574000Y-64832000D03*
X150574000Y-64832000D03*
X148574000Y-64832000D03*
X146574000Y-64832000D03*
X144574000Y-64832000D03*
X142574000Y-64832000D03*
D10*
X139974000Y-63332000D03*
X139974000Y-61332000D03*
X139974000Y-59332000D03*
X139974000Y-57332000D03*
X139974000Y-55332000D03*
X139974000Y-53332000D03*
X139974000Y-51332000D03*
X139974000Y-49332000D03*
%TD*%
%TO.C,R12*%
G36*
G01*
X168548000Y-93160001D02*
X168548000Y-92259999D01*
G75*
G02*
X168797999Y-92010000I249999J0D01*
G01*
X169323001Y-92010000D01*
G75*
G02*
X169573000Y-92259999I0J-249999D01*
G01*
X169573000Y-93160001D01*
G75*
G02*
X169323001Y-93410000I-249999J0D01*
G01*
X168797999Y-93410000D01*
G75*
G02*
X168548000Y-93160001I0J249999D01*
G01*
G37*
G36*
G01*
X166723000Y-93160001D02*
X166723000Y-92259999D01*
G75*
G02*
X166972999Y-92010000I249999J0D01*
G01*
X167498001Y-92010000D01*
G75*
G02*
X167748000Y-92259999I0J-249999D01*
G01*
X167748000Y-93160001D01*
G75*
G02*
X167498001Y-93410000I-249999J0D01*
G01*
X166972999Y-93410000D01*
G75*
G02*
X166723000Y-93160001I0J249999D01*
G01*
G37*
%TD*%
%TO.C,R11*%
G36*
G01*
X163010001Y-59036000D02*
X162109999Y-59036000D01*
G75*
G02*
X161860000Y-58786001I0J249999D01*
G01*
X161860000Y-58260999D01*
G75*
G02*
X162109999Y-58011000I249999J0D01*
G01*
X163010001Y-58011000D01*
G75*
G02*
X163260000Y-58260999I0J-249999D01*
G01*
X163260000Y-58786001D01*
G75*
G02*
X163010001Y-59036000I-249999J0D01*
G01*
G37*
G36*
G01*
X163010001Y-60861000D02*
X162109999Y-60861000D01*
G75*
G02*
X161860000Y-60611001I0J249999D01*
G01*
X161860000Y-60085999D01*
G75*
G02*
X162109999Y-59836000I249999J0D01*
G01*
X163010001Y-59836000D01*
G75*
G02*
X163260000Y-60085999I0J-249999D01*
G01*
X163260000Y-60611001D01*
G75*
G02*
X163010001Y-60861000I-249999J0D01*
G01*
G37*
%TD*%
%TO.C,R10*%
G36*
G01*
X119996000Y-88957999D02*
X119996000Y-89858001D01*
G75*
G02*
X119746001Y-90108000I-249999J0D01*
G01*
X119220999Y-90108000D01*
G75*
G02*
X118971000Y-89858001I0J249999D01*
G01*
X118971000Y-88957999D01*
G75*
G02*
X119220999Y-88708000I249999J0D01*
G01*
X119746001Y-88708000D01*
G75*
G02*
X119996000Y-88957999I0J-249999D01*
G01*
G37*
G36*
G01*
X121821000Y-88957999D02*
X121821000Y-89858001D01*
G75*
G02*
X121571001Y-90108000I-249999J0D01*
G01*
X121045999Y-90108000D01*
G75*
G02*
X120796000Y-89858001I0J249999D01*
G01*
X120796000Y-88957999D01*
G75*
G02*
X121045999Y-88708000I249999J0D01*
G01*
X121571001Y-88708000D01*
G75*
G02*
X121821000Y-88957999I0J-249999D01*
G01*
G37*
%TD*%
%TO.C,R9*%
G36*
G01*
X119691999Y-93364000D02*
X120592001Y-93364000D01*
G75*
G02*
X120842000Y-93613999I0J-249999D01*
G01*
X120842000Y-94139001D01*
G75*
G02*
X120592001Y-94389000I-249999J0D01*
G01*
X119691999Y-94389000D01*
G75*
G02*
X119442000Y-94139001I0J249999D01*
G01*
X119442000Y-93613999D01*
G75*
G02*
X119691999Y-93364000I249999J0D01*
G01*
G37*
G36*
G01*
X119691999Y-91539000D02*
X120592001Y-91539000D01*
G75*
G02*
X120842000Y-91788999I0J-249999D01*
G01*
X120842000Y-92314001D01*
G75*
G02*
X120592001Y-92564000I-249999J0D01*
G01*
X119691999Y-92564000D01*
G75*
G02*
X119442000Y-92314001I0J249999D01*
G01*
X119442000Y-91788999D01*
G75*
G02*
X119691999Y-91539000I249999J0D01*
G01*
G37*
%TD*%
%TO.C,R8*%
G36*
G01*
X158692001Y-61830000D02*
X157791999Y-61830000D01*
G75*
G02*
X157542000Y-61580001I0J249999D01*
G01*
X157542000Y-61054999D01*
G75*
G02*
X157791999Y-60805000I249999J0D01*
G01*
X158692001Y-60805000D01*
G75*
G02*
X158942000Y-61054999I0J-249999D01*
G01*
X158942000Y-61580001D01*
G75*
G02*
X158692001Y-61830000I-249999J0D01*
G01*
G37*
G36*
G01*
X158692001Y-63655000D02*
X157791999Y-63655000D01*
G75*
G02*
X157542000Y-63405001I0J249999D01*
G01*
X157542000Y-62879999D01*
G75*
G02*
X157791999Y-62630000I249999J0D01*
G01*
X158692001Y-62630000D01*
G75*
G02*
X158942000Y-62879999I0J-249999D01*
G01*
X158942000Y-63405001D01*
G75*
G02*
X158692001Y-63655000I-249999J0D01*
G01*
G37*
%TD*%
%TO.C,R7*%
G36*
G01*
X121774000Y-66097999D02*
X121774000Y-66998001D01*
G75*
G02*
X121524001Y-67248000I-249999J0D01*
G01*
X120998999Y-67248000D01*
G75*
G02*
X120749000Y-66998001I0J249999D01*
G01*
X120749000Y-66097999D01*
G75*
G02*
X120998999Y-65848000I249999J0D01*
G01*
X121524001Y-65848000D01*
G75*
G02*
X121774000Y-66097999I0J-249999D01*
G01*
G37*
G36*
G01*
X123599000Y-66097999D02*
X123599000Y-66998001D01*
G75*
G02*
X123349001Y-67248000I-249999J0D01*
G01*
X122823999Y-67248000D01*
G75*
G02*
X122574000Y-66998001I0J249999D01*
G01*
X122574000Y-66097999D01*
G75*
G02*
X122823999Y-65848000I249999J0D01*
G01*
X123349001Y-65848000D01*
G75*
G02*
X123599000Y-66097999I0J-249999D01*
G01*
G37*
%TD*%
%TO.C,R6*%
G36*
G01*
X162922000Y-62287999D02*
X162922000Y-63188001D01*
G75*
G02*
X162672001Y-63438000I-249999J0D01*
G01*
X162146999Y-63438000D01*
G75*
G02*
X161897000Y-63188001I0J249999D01*
G01*
X161897000Y-62287999D01*
G75*
G02*
X162146999Y-62038000I249999J0D01*
G01*
X162672001Y-62038000D01*
G75*
G02*
X162922000Y-62287999I0J-249999D01*
G01*
G37*
G36*
G01*
X164747000Y-62287999D02*
X164747000Y-63188001D01*
G75*
G02*
X164497001Y-63438000I-249999J0D01*
G01*
X163971999Y-63438000D01*
G75*
G02*
X163722000Y-63188001I0J249999D01*
G01*
X163722000Y-62287999D01*
G75*
G02*
X163971999Y-62038000I249999J0D01*
G01*
X164497001Y-62038000D01*
G75*
G02*
X164747000Y-62287999I0J-249999D01*
G01*
G37*
%TD*%
%TO.C,R5*%
G36*
G01*
X158604000Y-58731999D02*
X158604000Y-59632001D01*
G75*
G02*
X158354001Y-59882000I-249999J0D01*
G01*
X157828999Y-59882000D01*
G75*
G02*
X157579000Y-59632001I0J249999D01*
G01*
X157579000Y-58731999D01*
G75*
G02*
X157828999Y-58482000I249999J0D01*
G01*
X158354001Y-58482000D01*
G75*
G02*
X158604000Y-58731999I0J-249999D01*
G01*
G37*
G36*
G01*
X160429000Y-58731999D02*
X160429000Y-59632001D01*
G75*
G02*
X160179001Y-59882000I-249999J0D01*
G01*
X159653999Y-59882000D01*
G75*
G02*
X159404000Y-59632001I0J249999D01*
G01*
X159404000Y-58731999D01*
G75*
G02*
X159653999Y-58482000I249999J0D01*
G01*
X160179001Y-58482000D01*
G75*
G02*
X160429000Y-58731999I0J-249999D01*
G01*
G37*
%TD*%
%TO.C,R4*%
G36*
G01*
X122624000Y-74389000D02*
X122624000Y-73439000D01*
G75*
G02*
X122874000Y-73189000I250000J0D01*
G01*
X123374000Y-73189000D01*
G75*
G02*
X123624000Y-73439000I0J-250000D01*
G01*
X123624000Y-74389000D01*
G75*
G02*
X123374000Y-74639000I-250000J0D01*
G01*
X122874000Y-74639000D01*
G75*
G02*
X122624000Y-74389000I0J250000D01*
G01*
G37*
G36*
G01*
X120724000Y-74389000D02*
X120724000Y-73439000D01*
G75*
G02*
X120974000Y-73189000I250000J0D01*
G01*
X121474000Y-73189000D01*
G75*
G02*
X121724000Y-73439000I0J-250000D01*
G01*
X121724000Y-74389000D01*
G75*
G02*
X121474000Y-74639000I-250000J0D01*
G01*
X120974000Y-74639000D01*
G75*
G02*
X120724000Y-74389000I0J250000D01*
G01*
G37*
%TD*%
%TO.C,R3*%
G36*
G01*
X133966000Y-49333999D02*
X133966000Y-50234001D01*
G75*
G02*
X133716001Y-50484000I-249999J0D01*
G01*
X133190999Y-50484000D01*
G75*
G02*
X132941000Y-50234001I0J249999D01*
G01*
X132941000Y-49333999D01*
G75*
G02*
X133190999Y-49084000I249999J0D01*
G01*
X133716001Y-49084000D01*
G75*
G02*
X133966000Y-49333999I0J-249999D01*
G01*
G37*
G36*
G01*
X135791000Y-49333999D02*
X135791000Y-50234001D01*
G75*
G02*
X135541001Y-50484000I-249999J0D01*
G01*
X135015999Y-50484000D01*
G75*
G02*
X134766000Y-50234001I0J249999D01*
G01*
X134766000Y-49333999D01*
G75*
G02*
X135015999Y-49084000I249999J0D01*
G01*
X135541001Y-49084000D01*
G75*
G02*
X135791000Y-49333999I0J-249999D01*
G01*
G37*
%TD*%
%TO.C,R2*%
G36*
G01*
X129482001Y-50146000D02*
X128581999Y-50146000D01*
G75*
G02*
X128332000Y-49896001I0J249999D01*
G01*
X128332000Y-49370999D01*
G75*
G02*
X128581999Y-49121000I249999J0D01*
G01*
X129482001Y-49121000D01*
G75*
G02*
X129732000Y-49370999I0J-249999D01*
G01*
X129732000Y-49896001D01*
G75*
G02*
X129482001Y-50146000I-249999J0D01*
G01*
G37*
G36*
G01*
X129482001Y-51971000D02*
X128581999Y-51971000D01*
G75*
G02*
X128332000Y-51721001I0J249999D01*
G01*
X128332000Y-51195999D01*
G75*
G02*
X128581999Y-50946000I249999J0D01*
G01*
X129482001Y-50946000D01*
G75*
G02*
X129732000Y-51195999I0J-249999D01*
G01*
X129732000Y-51721001D01*
G75*
G02*
X129482001Y-51971000I-249999J0D01*
G01*
G37*
%TD*%
%TO.C,R1*%
G36*
G01*
X134766000Y-53790001D02*
X134766000Y-52889999D01*
G75*
G02*
X135015999Y-52640000I249999J0D01*
G01*
X135541001Y-52640000D01*
G75*
G02*
X135791000Y-52889999I0J-249999D01*
G01*
X135791000Y-53790001D01*
G75*
G02*
X135541001Y-54040000I-249999J0D01*
G01*
X135015999Y-54040000D01*
G75*
G02*
X134766000Y-53790001I0J249999D01*
G01*
G37*
G36*
G01*
X132941000Y-53790001D02*
X132941000Y-52889999D01*
G75*
G02*
X133190999Y-52640000I249999J0D01*
G01*
X133716001Y-52640000D01*
G75*
G02*
X133966000Y-52889999I0J-249999D01*
G01*
X133966000Y-53790001D01*
G75*
G02*
X133716001Y-54040000I-249999J0D01*
G01*
X133190999Y-54040000D01*
G75*
G02*
X132941000Y-53790001I0J249999D01*
G01*
G37*
%TD*%
D12*
%TO.C,Q1*%
X125730000Y-89662000D03*
D13*
X125730000Y-92202000D03*
X125730000Y-90932000D03*
%TD*%
D14*
%TO.C,J4*%
X176022000Y-92456000D03*
D15*
X173482000Y-92456000D03*
%TD*%
D16*
%TO.C,D1*%
X165100000Y-54102000D03*
X162560000Y-54102000D03*
D17*
X160020000Y-54102000D03*
%TD*%
%TO.C,C6*%
G36*
G01*
X131031000Y-91498000D02*
X130081000Y-91498000D01*
G75*
G02*
X129831000Y-91248000I0J250000D01*
G01*
X129831000Y-90748000D01*
G75*
G02*
X130081000Y-90498000I250000J0D01*
G01*
X131031000Y-90498000D01*
G75*
G02*
X131281000Y-90748000I0J-250000D01*
G01*
X131281000Y-91248000D01*
G75*
G02*
X131031000Y-91498000I-250000J0D01*
G01*
G37*
G36*
G01*
X131031000Y-93398000D02*
X130081000Y-93398000D01*
G75*
G02*
X129831000Y-93148000I0J250000D01*
G01*
X129831000Y-92648000D01*
G75*
G02*
X130081000Y-92398000I250000J0D01*
G01*
X131031000Y-92398000D01*
G75*
G02*
X131281000Y-92648000I0J-250000D01*
G01*
X131281000Y-93148000D01*
G75*
G02*
X131031000Y-93398000I-250000J0D01*
G01*
G37*
%TD*%
%TO.C,C5*%
G36*
G01*
X133408000Y-90711000D02*
X133408000Y-91661000D01*
G75*
G02*
X133158000Y-91911000I-250000J0D01*
G01*
X132658000Y-91911000D01*
G75*
G02*
X132408000Y-91661000I0J250000D01*
G01*
X132408000Y-90711000D01*
G75*
G02*
X132658000Y-90461000I250000J0D01*
G01*
X133158000Y-90461000D01*
G75*
G02*
X133408000Y-90711000I0J-250000D01*
G01*
G37*
G36*
G01*
X135308000Y-90711000D02*
X135308000Y-91661000D01*
G75*
G02*
X135058000Y-91911000I-250000J0D01*
G01*
X134558000Y-91911000D01*
G75*
G02*
X134308000Y-91661000I0J250000D01*
G01*
X134308000Y-90711000D01*
G75*
G02*
X134558000Y-90461000I250000J0D01*
G01*
X135058000Y-90461000D01*
G75*
G02*
X135308000Y-90711000I0J-250000D01*
G01*
G37*
%TD*%
D18*
%TO.C,C2*%
X134914000Y-68326000D03*
D19*
X137414000Y-68326000D03*
%TD*%
%TO.C,C1*%
G36*
G01*
X135948000Y-62771000D02*
X135948000Y-63721000D01*
G75*
G02*
X135698000Y-63971000I-250000J0D01*
G01*
X135198000Y-63971000D01*
G75*
G02*
X134948000Y-63721000I0J250000D01*
G01*
X134948000Y-62771000D01*
G75*
G02*
X135198000Y-62521000I250000J0D01*
G01*
X135698000Y-62521000D01*
G75*
G02*
X135948000Y-62771000I0J-250000D01*
G01*
G37*
G36*
G01*
X137848000Y-62771000D02*
X137848000Y-63721000D01*
G75*
G02*
X137598000Y-63971000I-250000J0D01*
G01*
X137098000Y-63971000D01*
G75*
G02*
X136848000Y-63721000I0J250000D01*
G01*
X136848000Y-62771000D01*
G75*
G02*
X137098000Y-62521000I250000J0D01*
G01*
X137598000Y-62521000D01*
G75*
G02*
X137848000Y-62771000I0J-250000D01*
G01*
G37*
%TD*%
D15*
%TO.C,J1*%
X120200000Y-97600000D03*
D14*
X122740000Y-97600000D03*
X125280000Y-97600000D03*
X127820000Y-97600000D03*
%TD*%
D15*
%TO.C,J2*%
X168380000Y-97500000D03*
D14*
X170920000Y-97500000D03*
X173460000Y-97500000D03*
X176000000Y-97500000D03*
%TD*%
D15*
%TO.C,J3*%
X118010600Y-66395000D03*
D14*
X118010600Y-68935000D03*
X118010600Y-71475000D03*
X118010600Y-74015000D03*
X118010600Y-76555000D03*
X118010600Y-79095000D03*
%TD*%
M02*
