M48
; DRILL file {KiCad 5.1.9+dfsg1-1} date Tue May 25 15:37:59 2021
; FORMAT={-:-/ absolute / inch / decimal}
; #@! TF.CreationDate,2021-05-25T15:37:59+02:00
; #@! TF.GenerationSoftware,Kicad,Pcbnew,5.1.9+dfsg1-1
; #@! TF.FileFunction,Plated,1,2,PTH
FMAT,2
INCH
T1C0.0157
T2C0.0295
T3C0.0315
T4C0.0354
T5C0.0394
%
G90
G05
T1
X4.64Y-3.74
X4.8041Y-3.6959
X4.93Y-2.66
X4.93Y-2.81
X5.01Y-2.6
X5.01Y-2.66
X5.09Y-2.2
X5.1185Y-2.27
X5.1471Y-2.62
X5.16Y-2.3
X5.16Y-3.83
X5.17Y-2.2
X5.24Y-3.67
X5.38Y-2.35
X5.39Y-2.17
X5.41Y-2.04
X5.6Y-2.2
X5.6Y-2.27
X5.67Y-2.26
X5.69Y-2.34
X5.88Y-2.16
X5.89Y-1.98
X6.6Y-2.27
X6.6035Y-3.73
X6.97Y-2.62
X7.04Y-3.73
T2
X4.95Y-3.53
X4.95Y-3.58
X4.95Y-3.63
T3
X5.3116Y-2.69
X5.41Y-2.69
T4
X6.3Y-2.13
X6.4Y-2.13
X6.5Y-2.13
T5
X4.6461Y-2.614
X4.6461Y-2.714
X4.6461Y-2.814
X4.6461Y-2.914
X4.6461Y-3.014
X4.6461Y-3.114
X4.7323Y-3.8425
X4.8323Y-3.8425
X4.9323Y-3.8425
X5.0323Y-3.8425
X6.6291Y-3.8386
X6.7291Y-3.8386
X6.8291Y-3.8386
X6.83Y-3.64
X6.9291Y-3.8386
X6.93Y-3.64
T0
M30
