%TF.GenerationSoftware,KiCad,Pcbnew,5.1.9+dfsg1-1*%
%TF.CreationDate,2021-05-25T15:38:03+02:00*%
%TF.ProjectId,vscp-din-wireless-esp8266,76736370-2d64-4696-9e2d-776972656c65,rev?*%
%TF.SameCoordinates,Original*%
%TF.FileFunction,Copper,L1,Top*%
%TF.FilePolarity,Positive*%
%FSLAX46Y46*%
G04 Gerber Fmt 4.6, Leading zero omitted, Abs format (unit mm)*
G04 Created by KiCad (PCBNEW 5.1.9+dfsg1-1) date 2021-05-25 15:38:03*
%MOMM*%
%LPD*%
G01*
G04 APERTURE LIST*
%TA.AperFunction,SMDPad,CuDef*%
%ADD10R,2.500000X1.000000*%
%TD*%
%TA.AperFunction,SMDPad,CuDef*%
%ADD11R,1.000000X1.800000*%
%TD*%
%TA.AperFunction,ComponentPad*%
%ADD12R,1.500000X1.050000*%
%TD*%
%TA.AperFunction,ComponentPad*%
%ADD13O,1.500000X1.050000*%
%TD*%
%TA.AperFunction,ComponentPad*%
%ADD14O,1.700000X1.700000*%
%TD*%
%TA.AperFunction,ComponentPad*%
%ADD15R,1.700000X1.700000*%
%TD*%
%TA.AperFunction,ComponentPad*%
%ADD16C,1.800000*%
%TD*%
%TA.AperFunction,ComponentPad*%
%ADD17R,1.800000X1.800000*%
%TD*%
%TA.AperFunction,ComponentPad*%
%ADD18C,1.600000*%
%TD*%
%TA.AperFunction,ComponentPad*%
%ADD19R,1.600000X1.600000*%
%TD*%
%TA.AperFunction,ViaPad*%
%ADD20C,0.800000*%
%TD*%
%TA.AperFunction,Conductor*%
%ADD21C,0.250000*%
%TD*%
%TA.AperFunction,Conductor*%
%ADD22C,1.000000*%
%TD*%
%TA.AperFunction,Conductor*%
%ADD23C,0.254000*%
%TD*%
%TA.AperFunction,Conductor*%
%ADD24C,0.100000*%
%TD*%
G04 APERTURE END LIST*
%TO.P,C3,2*%
%TO.N,GND*%
%TA.AperFunction,SMDPad,CuDef*%
G36*
G01*
X130843000Y-50996000D02*
X131793000Y-50996000D01*
G75*
G02*
X132043000Y-51246000I0J-250000D01*
G01*
X132043000Y-51746000D01*
G75*
G02*
X131793000Y-51996000I-250000J0D01*
G01*
X130843000Y-51996000D01*
G75*
G02*
X130593000Y-51746000I0J250000D01*
G01*
X130593000Y-51246000D01*
G75*
G02*
X130843000Y-50996000I250000J0D01*
G01*
G37*
%TD.AperFunction*%
%TO.P,C3,1*%
%TO.N,/RESET*%
%TA.AperFunction,SMDPad,CuDef*%
G36*
G01*
X130843000Y-49096000D02*
X131793000Y-49096000D01*
G75*
G02*
X132043000Y-49346000I0J-250000D01*
G01*
X132043000Y-49846000D01*
G75*
G02*
X131793000Y-50096000I-250000J0D01*
G01*
X130843000Y-50096000D01*
G75*
G02*
X130593000Y-49846000I0J250000D01*
G01*
X130593000Y-49346000D01*
G75*
G02*
X130843000Y-49096000I250000J0D01*
G01*
G37*
%TD.AperFunction*%
%TD*%
D10*
%TO.P,U2,22*%
%TO.N,/TXD*%
X155174000Y-49332000D03*
%TO.P,U2,21*%
%TO.N,/RXD*%
X155174000Y-51332000D03*
%TO.P,U2,20*%
%TO.N,/ledb*%
X155174000Y-53332000D03*
%TO.P,U2,19*%
%TO.N,/leda*%
X155174000Y-55332000D03*
%TO.P,U2,18*%
%TO.N,Net-(R5-Pad2)*%
X155174000Y-57332000D03*
%TO.P,U2,17*%
%TO.N,Net-(R6-Pad2)*%
X155174000Y-59332000D03*
%TO.P,U2,16*%
%TO.N,Net-(R8-Pad2)*%
X155174000Y-61332000D03*
%TO.P,U2,15*%
%TO.N,GND*%
X155174000Y-63332000D03*
D11*
%TO.P,U2,14*%
%TO.N,Net-(U2-Pad14)*%
X152574000Y-64832000D03*
%TO.P,U2,13*%
%TO.N,Net-(U2-Pad13)*%
X150574000Y-64832000D03*
%TO.P,U2,12*%
%TO.N,Net-(U2-Pad12)*%
X148574000Y-64832000D03*
%TO.P,U2,11*%
%TO.N,Net-(U2-Pad11)*%
X146574000Y-64832000D03*
%TO.P,U2,10*%
%TO.N,Net-(U2-Pad10)*%
X144574000Y-64832000D03*
%TO.P,U2,9*%
%TO.N,Net-(U2-Pad9)*%
X142574000Y-64832000D03*
D10*
%TO.P,U2,8*%
%TO.N,VCC*%
X139974000Y-63332000D03*
%TO.P,U2,7*%
%TO.N,Net-(U2-Pad7)*%
X139974000Y-61332000D03*
%TO.P,U2,6*%
%TO.N,Net-(U2-Pad6)*%
X139974000Y-59332000D03*
%TO.P,U2,5*%
%TO.N,Net-(U2-Pad5)*%
X139974000Y-57332000D03*
%TO.P,U2,4*%
%TO.N,Net-(R4-Pad2)*%
X139974000Y-55332000D03*
%TO.P,U2,3*%
%TO.N,Net-(R1-Pad2)*%
X139974000Y-53332000D03*
%TO.P,U2,2*%
%TO.N,Net-(U2-Pad2)*%
X139974000Y-51332000D03*
%TO.P,U2,1*%
%TO.N,Net-(R3-Pad1)*%
X139974000Y-49332000D03*
%TD*%
%TO.P,R12,2*%
%TO.N,VDD*%
%TA.AperFunction,SMDPad,CuDef*%
G36*
G01*
X168548000Y-93160001D02*
X168548000Y-92259999D01*
G75*
G02*
X168797999Y-92010000I249999J0D01*
G01*
X169323001Y-92010000D01*
G75*
G02*
X169573000Y-92259999I0J-249999D01*
G01*
X169573000Y-93160001D01*
G75*
G02*
X169323001Y-93410000I-249999J0D01*
G01*
X168797999Y-93410000D01*
G75*
G02*
X168548000Y-93160001I0J249999D01*
G01*
G37*
%TD.AperFunction*%
%TO.P,R12,1*%
%TO.N,Net-(J1-Pad2)*%
%TA.AperFunction,SMDPad,CuDef*%
G36*
G01*
X166723000Y-93160001D02*
X166723000Y-92259999D01*
G75*
G02*
X166972999Y-92010000I249999J0D01*
G01*
X167498001Y-92010000D01*
G75*
G02*
X167748000Y-92259999I0J-249999D01*
G01*
X167748000Y-93160001D01*
G75*
G02*
X167498001Y-93410000I-249999J0D01*
G01*
X166972999Y-93410000D01*
G75*
G02*
X166723000Y-93160001I0J249999D01*
G01*
G37*
%TD.AperFunction*%
%TD*%
%TO.P,R11,2*%
%TO.N,Net-(D1-Pad2)*%
%TA.AperFunction,SMDPad,CuDef*%
G36*
G01*
X163010001Y-59036000D02*
X162109999Y-59036000D01*
G75*
G02*
X161860000Y-58786001I0J249999D01*
G01*
X161860000Y-58260999D01*
G75*
G02*
X162109999Y-58011000I249999J0D01*
G01*
X163010001Y-58011000D01*
G75*
G02*
X163260000Y-58260999I0J-249999D01*
G01*
X163260000Y-58786001D01*
G75*
G02*
X163010001Y-59036000I-249999J0D01*
G01*
G37*
%TD.AperFunction*%
%TO.P,R11,1*%
%TO.N,VCC*%
%TA.AperFunction,SMDPad,CuDef*%
G36*
G01*
X163010001Y-60861000D02*
X162109999Y-60861000D01*
G75*
G02*
X161860000Y-60611001I0J249999D01*
G01*
X161860000Y-60085999D01*
G75*
G02*
X162109999Y-59836000I249999J0D01*
G01*
X163010001Y-59836000D01*
G75*
G02*
X163260000Y-60085999I0J-249999D01*
G01*
X163260000Y-60611001D01*
G75*
G02*
X163010001Y-60861000I-249999J0D01*
G01*
G37*
%TD.AperFunction*%
%TD*%
%TO.P,R10,2*%
%TO.N,VCC*%
%TA.AperFunction,SMDPad,CuDef*%
G36*
G01*
X119996000Y-88957999D02*
X119996000Y-89858001D01*
G75*
G02*
X119746001Y-90108000I-249999J0D01*
G01*
X119220999Y-90108000D01*
G75*
G02*
X118971000Y-89858001I0J249999D01*
G01*
X118971000Y-88957999D01*
G75*
G02*
X119220999Y-88708000I249999J0D01*
G01*
X119746001Y-88708000D01*
G75*
G02*
X119996000Y-88957999I0J-249999D01*
G01*
G37*
%TD.AperFunction*%
%TO.P,R10,1*%
%TO.N,/RXD*%
%TA.AperFunction,SMDPad,CuDef*%
G36*
G01*
X121821000Y-88957999D02*
X121821000Y-89858001D01*
G75*
G02*
X121571001Y-90108000I-249999J0D01*
G01*
X121045999Y-90108000D01*
G75*
G02*
X120796000Y-89858001I0J249999D01*
G01*
X120796000Y-88957999D01*
G75*
G02*
X121045999Y-88708000I249999J0D01*
G01*
X121571001Y-88708000D01*
G75*
G02*
X121821000Y-88957999I0J-249999D01*
G01*
G37*
%TD.AperFunction*%
%TD*%
%TO.P,R9,2*%
%TO.N,VDD*%
%TA.AperFunction,SMDPad,CuDef*%
G36*
G01*
X119691999Y-93364000D02*
X120592001Y-93364000D01*
G75*
G02*
X120842000Y-93613999I0J-249999D01*
G01*
X120842000Y-94139001D01*
G75*
G02*
X120592001Y-94389000I-249999J0D01*
G01*
X119691999Y-94389000D01*
G75*
G02*
X119442000Y-94139001I0J249999D01*
G01*
X119442000Y-93613999D01*
G75*
G02*
X119691999Y-93364000I249999J0D01*
G01*
G37*
%TD.AperFunction*%
%TO.P,R9,1*%
%TO.N,Net-(J1-Pad3)*%
%TA.AperFunction,SMDPad,CuDef*%
G36*
G01*
X119691999Y-91539000D02*
X120592001Y-91539000D01*
G75*
G02*
X120842000Y-91788999I0J-249999D01*
G01*
X120842000Y-92314001D01*
G75*
G02*
X120592001Y-92564000I-249999J0D01*
G01*
X119691999Y-92564000D01*
G75*
G02*
X119442000Y-92314001I0J249999D01*
G01*
X119442000Y-91788999D01*
G75*
G02*
X119691999Y-91539000I249999J0D01*
G01*
G37*
%TD.AperFunction*%
%TD*%
%TO.P,R8,2*%
%TO.N,Net-(R8-Pad2)*%
%TA.AperFunction,SMDPad,CuDef*%
G36*
G01*
X158692001Y-61830000D02*
X157791999Y-61830000D01*
G75*
G02*
X157542000Y-61580001I0J249999D01*
G01*
X157542000Y-61054999D01*
G75*
G02*
X157791999Y-60805000I249999J0D01*
G01*
X158692001Y-60805000D01*
G75*
G02*
X158942000Y-61054999I0J-249999D01*
G01*
X158942000Y-61580001D01*
G75*
G02*
X158692001Y-61830000I-249999J0D01*
G01*
G37*
%TD.AperFunction*%
%TO.P,R8,1*%
%TO.N,GND*%
%TA.AperFunction,SMDPad,CuDef*%
G36*
G01*
X158692001Y-63655000D02*
X157791999Y-63655000D01*
G75*
G02*
X157542000Y-63405001I0J249999D01*
G01*
X157542000Y-62879999D01*
G75*
G02*
X157791999Y-62630000I249999J0D01*
G01*
X158692001Y-62630000D01*
G75*
G02*
X158942000Y-62879999I0J-249999D01*
G01*
X158942000Y-63405001D01*
G75*
G02*
X158692001Y-63655000I-249999J0D01*
G01*
G37*
%TD.AperFunction*%
%TD*%
%TO.P,R7,2*%
%TO.N,/FLASH*%
%TA.AperFunction,SMDPad,CuDef*%
G36*
G01*
X121774000Y-66097999D02*
X121774000Y-66998001D01*
G75*
G02*
X121524001Y-67248000I-249999J0D01*
G01*
X120998999Y-67248000D01*
G75*
G02*
X120749000Y-66998001I0J249999D01*
G01*
X120749000Y-66097999D01*
G75*
G02*
X120998999Y-65848000I249999J0D01*
G01*
X121524001Y-65848000D01*
G75*
G02*
X121774000Y-66097999I0J-249999D01*
G01*
G37*
%TD.AperFunction*%
%TO.P,R7,1*%
%TO.N,Net-(R5-Pad2)*%
%TA.AperFunction,SMDPad,CuDef*%
G36*
G01*
X123599000Y-66097999D02*
X123599000Y-66998001D01*
G75*
G02*
X123349001Y-67248000I-249999J0D01*
G01*
X122823999Y-67248000D01*
G75*
G02*
X122574000Y-66998001I0J249999D01*
G01*
X122574000Y-66097999D01*
G75*
G02*
X122823999Y-65848000I249999J0D01*
G01*
X123349001Y-65848000D01*
G75*
G02*
X123599000Y-66097999I0J-249999D01*
G01*
G37*
%TD.AperFunction*%
%TD*%
%TO.P,R6,2*%
%TO.N,Net-(R6-Pad2)*%
%TA.AperFunction,SMDPad,CuDef*%
G36*
G01*
X162922000Y-62287999D02*
X162922000Y-63188001D01*
G75*
G02*
X162672001Y-63438000I-249999J0D01*
G01*
X162146999Y-63438000D01*
G75*
G02*
X161897000Y-63188001I0J249999D01*
G01*
X161897000Y-62287999D01*
G75*
G02*
X162146999Y-62038000I249999J0D01*
G01*
X162672001Y-62038000D01*
G75*
G02*
X162922000Y-62287999I0J-249999D01*
G01*
G37*
%TD.AperFunction*%
%TO.P,R6,1*%
%TO.N,VCC*%
%TA.AperFunction,SMDPad,CuDef*%
G36*
G01*
X164747000Y-62287999D02*
X164747000Y-63188001D01*
G75*
G02*
X164497001Y-63438000I-249999J0D01*
G01*
X163971999Y-63438000D01*
G75*
G02*
X163722000Y-63188001I0J249999D01*
G01*
X163722000Y-62287999D01*
G75*
G02*
X163971999Y-62038000I249999J0D01*
G01*
X164497001Y-62038000D01*
G75*
G02*
X164747000Y-62287999I0J-249999D01*
G01*
G37*
%TD.AperFunction*%
%TD*%
%TO.P,R5,2*%
%TO.N,Net-(R5-Pad2)*%
%TA.AperFunction,SMDPad,CuDef*%
G36*
G01*
X158604000Y-58731999D02*
X158604000Y-59632001D01*
G75*
G02*
X158354001Y-59882000I-249999J0D01*
G01*
X157828999Y-59882000D01*
G75*
G02*
X157579000Y-59632001I0J249999D01*
G01*
X157579000Y-58731999D01*
G75*
G02*
X157828999Y-58482000I249999J0D01*
G01*
X158354001Y-58482000D01*
G75*
G02*
X158604000Y-58731999I0J-249999D01*
G01*
G37*
%TD.AperFunction*%
%TO.P,R5,1*%
%TO.N,VCC*%
%TA.AperFunction,SMDPad,CuDef*%
G36*
G01*
X160429000Y-58731999D02*
X160429000Y-59632001D01*
G75*
G02*
X160179001Y-59882000I-249999J0D01*
G01*
X159653999Y-59882000D01*
G75*
G02*
X159404000Y-59632001I0J249999D01*
G01*
X159404000Y-58731999D01*
G75*
G02*
X159653999Y-58482000I249999J0D01*
G01*
X160179001Y-58482000D01*
G75*
G02*
X160429000Y-58731999I0J-249999D01*
G01*
G37*
%TD.AperFunction*%
%TD*%
%TO.P,R4,2*%
%TO.N,Net-(R4-Pad2)*%
%TA.AperFunction,SMDPad,CuDef*%
G36*
G01*
X122624000Y-74389000D02*
X122624000Y-73439000D01*
G75*
G02*
X122874000Y-73189000I250000J0D01*
G01*
X123374000Y-73189000D01*
G75*
G02*
X123624000Y-73439000I0J-250000D01*
G01*
X123624000Y-74389000D01*
G75*
G02*
X123374000Y-74639000I-250000J0D01*
G01*
X122874000Y-74639000D01*
G75*
G02*
X122624000Y-74389000I0J250000D01*
G01*
G37*
%TD.AperFunction*%
%TO.P,R4,1*%
%TO.N,/RESET*%
%TA.AperFunction,SMDPad,CuDef*%
G36*
G01*
X120724000Y-74389000D02*
X120724000Y-73439000D01*
G75*
G02*
X120974000Y-73189000I250000J0D01*
G01*
X121474000Y-73189000D01*
G75*
G02*
X121724000Y-73439000I0J-250000D01*
G01*
X121724000Y-74389000D01*
G75*
G02*
X121474000Y-74639000I-250000J0D01*
G01*
X120974000Y-74639000D01*
G75*
G02*
X120724000Y-74389000I0J250000D01*
G01*
G37*
%TD.AperFunction*%
%TD*%
%TO.P,R3,2*%
%TO.N,/RESET*%
%TA.AperFunction,SMDPad,CuDef*%
G36*
G01*
X133966000Y-49333999D02*
X133966000Y-50234001D01*
G75*
G02*
X133716001Y-50484000I-249999J0D01*
G01*
X133190999Y-50484000D01*
G75*
G02*
X132941000Y-50234001I0J249999D01*
G01*
X132941000Y-49333999D01*
G75*
G02*
X133190999Y-49084000I249999J0D01*
G01*
X133716001Y-49084000D01*
G75*
G02*
X133966000Y-49333999I0J-249999D01*
G01*
G37*
%TD.AperFunction*%
%TO.P,R3,1*%
%TO.N,Net-(R3-Pad1)*%
%TA.AperFunction,SMDPad,CuDef*%
G36*
G01*
X135791000Y-49333999D02*
X135791000Y-50234001D01*
G75*
G02*
X135541001Y-50484000I-249999J0D01*
G01*
X135015999Y-50484000D01*
G75*
G02*
X134766000Y-50234001I0J249999D01*
G01*
X134766000Y-49333999D01*
G75*
G02*
X135015999Y-49084000I249999J0D01*
G01*
X135541001Y-49084000D01*
G75*
G02*
X135791000Y-49333999I0J-249999D01*
G01*
G37*
%TD.AperFunction*%
%TD*%
%TO.P,R2,2*%
%TO.N,/RESET*%
%TA.AperFunction,SMDPad,CuDef*%
G36*
G01*
X129482001Y-50146000D02*
X128581999Y-50146000D01*
G75*
G02*
X128332000Y-49896001I0J249999D01*
G01*
X128332000Y-49370999D01*
G75*
G02*
X128581999Y-49121000I249999J0D01*
G01*
X129482001Y-49121000D01*
G75*
G02*
X129732000Y-49370999I0J-249999D01*
G01*
X129732000Y-49896001D01*
G75*
G02*
X129482001Y-50146000I-249999J0D01*
G01*
G37*
%TD.AperFunction*%
%TO.P,R2,1*%
%TO.N,VCC*%
%TA.AperFunction,SMDPad,CuDef*%
G36*
G01*
X129482001Y-51971000D02*
X128581999Y-51971000D01*
G75*
G02*
X128332000Y-51721001I0J249999D01*
G01*
X128332000Y-51195999D01*
G75*
G02*
X128581999Y-50946000I249999J0D01*
G01*
X129482001Y-50946000D01*
G75*
G02*
X129732000Y-51195999I0J-249999D01*
G01*
X129732000Y-51721001D01*
G75*
G02*
X129482001Y-51971000I-249999J0D01*
G01*
G37*
%TD.AperFunction*%
%TD*%
%TO.P,R1,2*%
%TO.N,Net-(R1-Pad2)*%
%TA.AperFunction,SMDPad,CuDef*%
G36*
G01*
X134766000Y-53790001D02*
X134766000Y-52889999D01*
G75*
G02*
X135015999Y-52640000I249999J0D01*
G01*
X135541001Y-52640000D01*
G75*
G02*
X135791000Y-52889999I0J-249999D01*
G01*
X135791000Y-53790001D01*
G75*
G02*
X135541001Y-54040000I-249999J0D01*
G01*
X135015999Y-54040000D01*
G75*
G02*
X134766000Y-53790001I0J249999D01*
G01*
G37*
%TD.AperFunction*%
%TO.P,R1,1*%
%TO.N,VCC*%
%TA.AperFunction,SMDPad,CuDef*%
G36*
G01*
X132941000Y-53790001D02*
X132941000Y-52889999D01*
G75*
G02*
X133190999Y-52640000I249999J0D01*
G01*
X133716001Y-52640000D01*
G75*
G02*
X133966000Y-52889999I0J-249999D01*
G01*
X133966000Y-53790001D01*
G75*
G02*
X133716001Y-54040000I-249999J0D01*
G01*
X133190999Y-54040000D01*
G75*
G02*
X132941000Y-53790001I0J249999D01*
G01*
G37*
%TD.AperFunction*%
%TD*%
D12*
%TO.P,Q1,1*%
%TO.N,/RXD*%
X125730000Y-89662000D03*
D13*
%TO.P,Q1,3*%
%TO.N,GND*%
X125730000Y-92202000D03*
%TO.P,Q1,2*%
%TO.N,Net-(J1-Pad3)*%
X125730000Y-90932000D03*
%TD*%
D14*
%TO.P,J4,2*%
%TO.N,VCC*%
X176022000Y-92456000D03*
D15*
%TO.P,J4,1*%
%TO.N,VDD*%
X173482000Y-92456000D03*
%TD*%
D16*
%TO.P,D1,3*%
%TO.N,/ledb*%
X165100000Y-54102000D03*
%TO.P,D1,2*%
%TO.N,Net-(D1-Pad2)*%
X162560000Y-54102000D03*
D17*
%TO.P,D1,1*%
%TO.N,/leda*%
X160020000Y-54102000D03*
%TD*%
%TO.P,C6,2*%
%TO.N,GND*%
%TA.AperFunction,SMDPad,CuDef*%
G36*
G01*
X131031000Y-91498000D02*
X130081000Y-91498000D01*
G75*
G02*
X129831000Y-91248000I0J250000D01*
G01*
X129831000Y-90748000D01*
G75*
G02*
X130081000Y-90498000I250000J0D01*
G01*
X131031000Y-90498000D01*
G75*
G02*
X131281000Y-90748000I0J-250000D01*
G01*
X131281000Y-91248000D01*
G75*
G02*
X131031000Y-91498000I-250000J0D01*
G01*
G37*
%TD.AperFunction*%
%TO.P,C6,1*%
%TO.N,VDD*%
%TA.AperFunction,SMDPad,CuDef*%
G36*
G01*
X131031000Y-93398000D02*
X130081000Y-93398000D01*
G75*
G02*
X129831000Y-93148000I0J250000D01*
G01*
X129831000Y-92648000D01*
G75*
G02*
X130081000Y-92398000I250000J0D01*
G01*
X131031000Y-92398000D01*
G75*
G02*
X131281000Y-92648000I0J-250000D01*
G01*
X131281000Y-93148000D01*
G75*
G02*
X131031000Y-93398000I-250000J0D01*
G01*
G37*
%TD.AperFunction*%
%TD*%
%TO.P,C5,2*%
%TO.N,GND*%
%TA.AperFunction,SMDPad,CuDef*%
G36*
G01*
X133408000Y-90711000D02*
X133408000Y-91661000D01*
G75*
G02*
X133158000Y-91911000I-250000J0D01*
G01*
X132658000Y-91911000D01*
G75*
G02*
X132408000Y-91661000I0J250000D01*
G01*
X132408000Y-90711000D01*
G75*
G02*
X132658000Y-90461000I250000J0D01*
G01*
X133158000Y-90461000D01*
G75*
G02*
X133408000Y-90711000I0J-250000D01*
G01*
G37*
%TD.AperFunction*%
%TO.P,C5,1*%
%TO.N,VCC*%
%TA.AperFunction,SMDPad,CuDef*%
G36*
G01*
X135308000Y-90711000D02*
X135308000Y-91661000D01*
G75*
G02*
X135058000Y-91911000I-250000J0D01*
G01*
X134558000Y-91911000D01*
G75*
G02*
X134308000Y-91661000I0J250000D01*
G01*
X134308000Y-90711000D01*
G75*
G02*
X134558000Y-90461000I250000J0D01*
G01*
X135058000Y-90461000D01*
G75*
G02*
X135308000Y-90711000I0J-250000D01*
G01*
G37*
%TD.AperFunction*%
%TD*%
D18*
%TO.P,C2,2*%
%TO.N,GND*%
X134914000Y-68326000D03*
D19*
%TO.P,C2,1*%
%TO.N,VCC*%
X137414000Y-68326000D03*
%TD*%
%TO.P,C1,2*%
%TO.N,GND*%
%TA.AperFunction,SMDPad,CuDef*%
G36*
G01*
X135948000Y-62771000D02*
X135948000Y-63721000D01*
G75*
G02*
X135698000Y-63971000I-250000J0D01*
G01*
X135198000Y-63971000D01*
G75*
G02*
X134948000Y-63721000I0J250000D01*
G01*
X134948000Y-62771000D01*
G75*
G02*
X135198000Y-62521000I250000J0D01*
G01*
X135698000Y-62521000D01*
G75*
G02*
X135948000Y-62771000I0J-250000D01*
G01*
G37*
%TD.AperFunction*%
%TO.P,C1,1*%
%TO.N,VCC*%
%TA.AperFunction,SMDPad,CuDef*%
G36*
G01*
X137848000Y-62771000D02*
X137848000Y-63721000D01*
G75*
G02*
X137598000Y-63971000I-250000J0D01*
G01*
X137098000Y-63971000D01*
G75*
G02*
X136848000Y-63721000I0J250000D01*
G01*
X136848000Y-62771000D01*
G75*
G02*
X137098000Y-62521000I250000J0D01*
G01*
X137598000Y-62521000D01*
G75*
G02*
X137848000Y-62771000I0J-250000D01*
G01*
G37*
%TD.AperFunction*%
%TD*%
D15*
%TO.P,J1,1*%
%TO.N,VDD*%
X120200000Y-97600000D03*
D14*
%TO.P,J1,2*%
%TO.N,Net-(J1-Pad2)*%
X122740000Y-97600000D03*
%TO.P,J1,3*%
%TO.N,Net-(J1-Pad3)*%
X125280000Y-97600000D03*
%TO.P,J1,4*%
%TO.N,GND*%
X127820000Y-97600000D03*
%TD*%
D15*
%TO.P,J2,1*%
%TO.N,GND*%
X168380000Y-97500000D03*
D14*
%TO.P,J2,2*%
%TO.N,VCC*%
X170920000Y-97500000D03*
%TO.P,J2,3*%
%TO.N,Net-(J2-Pad3)*%
X173460000Y-97500000D03*
%TO.P,J2,4*%
%TO.N,Net-(J2-Pad4)*%
X176000000Y-97500000D03*
%TD*%
D15*
%TO.P,J3,1*%
%TO.N,/FLASH*%
X118010600Y-66395000D03*
D14*
%TO.P,J3,2*%
%TO.N,/TXD*%
X118010600Y-68935000D03*
%TO.P,J3,3*%
%TO.N,/RXD*%
X118010600Y-71475000D03*
%TO.P,J3,4*%
%TO.N,/RESET*%
X118010600Y-74015000D03*
%TO.P,J3,5*%
%TO.N,VCC*%
X118010600Y-76555000D03*
%TO.P,J3,6*%
%TO.N,GND*%
X118010600Y-79095000D03*
%TD*%
D20*
%TO.N,GND*%
X137414000Y-51816000D03*
X144526000Y-59436000D03*
X125222000Y-71374000D03*
X149352000Y-54864000D03*
X167640000Y-57658000D03*
X149606000Y-50292000D03*
X136652000Y-59690000D03*
X125222000Y-67564000D03*
X127254000Y-66040000D03*
X177038000Y-66548000D03*
X178816000Y-94742000D03*
X117856000Y-94996000D03*
%TO.N,VDD*%
X167728500Y-94742000D03*
X133096000Y-93218000D03*
X122023500Y-93876500D03*
%TO.N,Net-(J1-Pad2)*%
X131064000Y-97282000D03*
%TO.N,/TXD*%
X131318000Y-55880000D03*
X142240000Y-55880000D03*
%TO.N,/RXD*%
X142240000Y-57658000D03*
X130011000Y-57658000D03*
%TO.N,Net-(R4-Pad2)*%
X136906000Y-55118000D03*
X129286000Y-55880000D03*
%TO.N,Net-(R5-Pad2)*%
X127254000Y-67564000D03*
X130736000Y-66548000D03*
X131064000Y-58420000D03*
X144018000Y-57404000D03*
%TD*%
D21*
%TO.N,GND*%
X125730000Y-92202000D02*
X127254000Y-92202000D01*
X128458000Y-90998000D02*
X130556000Y-90998000D01*
X127254000Y-92202000D02*
X128458000Y-90998000D01*
X132720000Y-90998000D02*
X132908000Y-91186000D01*
X130556000Y-90998000D02*
X132720000Y-90998000D01*
X125730000Y-92202000D02*
X126238000Y-92202000D01*
X127820000Y-93784000D02*
X127820000Y-97600000D01*
X126238000Y-92202000D02*
X127820000Y-93784000D01*
%TO.N,VCC*%
X129032000Y-51458500D02*
X129032000Y-52578000D01*
X129794000Y-53340000D02*
X133453500Y-53340000D01*
X129032000Y-52578000D02*
X129794000Y-53340000D01*
D22*
X137414000Y-63312000D02*
X137348000Y-63246000D01*
X137414000Y-68326000D02*
X137414000Y-63312000D01*
X137434000Y-63332000D02*
X137348000Y-63246000D01*
X139974000Y-63332000D02*
X137434000Y-63332000D01*
X137348000Y-63246000D02*
X137348000Y-62672000D01*
X133453500Y-58777500D02*
X133453500Y-53340000D01*
X137348000Y-62672000D02*
X133453500Y-58777500D01*
X162560000Y-60348500D02*
X166266500Y-60348500D01*
X167640000Y-61722000D02*
X167640000Y-68326000D01*
X166266500Y-60348500D02*
X167640000Y-61722000D01*
X167640000Y-68326000D02*
X137414000Y-68326000D01*
X137414000Y-72644000D02*
X137414000Y-68326000D01*
X133503000Y-76555000D02*
X137414000Y-72644000D01*
D21*
X159916500Y-59182000D02*
X160020000Y-59182000D01*
X161186500Y-60348500D02*
X162560000Y-60348500D01*
X160020000Y-59182000D02*
X161186500Y-60348500D01*
X162560000Y-60348500D02*
X163472500Y-60348500D01*
X164234500Y-61110500D02*
X164234500Y-62738000D01*
X163472500Y-60348500D02*
X164234500Y-61110500D01*
X133503000Y-76555000D02*
X133503000Y-76861000D01*
D22*
X134808000Y-78166000D02*
X134808000Y-91186000D01*
X133503000Y-76861000D02*
X134808000Y-78166000D01*
X177546000Y-68326000D02*
X167640000Y-68326000D01*
X179070000Y-69850000D02*
X177546000Y-68326000D01*
X179070000Y-90678000D02*
X179070000Y-69850000D01*
X177292000Y-92456000D02*
X179070000Y-90678000D01*
X176022000Y-92456000D02*
X177292000Y-92456000D01*
X119483500Y-89408000D02*
X119483500Y-82700500D01*
X119483500Y-82700500D02*
X121311000Y-80873000D01*
X121311000Y-80873000D02*
X121311000Y-76555000D01*
X121311000Y-76555000D02*
X133503000Y-76555000D01*
X118010600Y-76555000D02*
X121311000Y-76555000D01*
X176022000Y-92456000D02*
X176022000Y-94234000D01*
X176022000Y-94234000D02*
X175260000Y-94996000D01*
X175260000Y-94996000D02*
X171958000Y-94996000D01*
X170920000Y-96034000D02*
X170920000Y-97500000D01*
X171958000Y-94996000D02*
X170920000Y-96034000D01*
D21*
%TO.N,/RESET*%
X131506000Y-49784000D02*
X131318000Y-49596000D01*
X133453500Y-49784000D02*
X131506000Y-49784000D01*
X129069500Y-49596000D02*
X129032000Y-49633500D01*
X131318000Y-49596000D02*
X129069500Y-49596000D01*
X121123000Y-74015000D02*
X121224000Y-73914000D01*
X118010600Y-74015000D02*
X121123000Y-74015000D01*
X128006990Y-50658510D02*
X129032000Y-49633500D01*
X128006990Y-63987998D02*
X128006990Y-50658510D01*
X127244978Y-64750010D02*
X128006990Y-63987998D01*
X116835599Y-64750010D02*
X127244978Y-64750010D01*
X116835599Y-69499001D02*
X116835599Y-64750010D01*
X118574601Y-70299999D02*
X117636597Y-70299999D01*
X121224000Y-72949398D02*
X118574601Y-70299999D01*
X117636597Y-70299999D02*
X116835599Y-69499001D01*
X121224000Y-73914000D02*
X121224000Y-72949398D01*
%TO.N,VDD*%
X120142000Y-97542000D02*
X120200000Y-97600000D01*
D22*
X120142000Y-93876500D02*
X120142000Y-97542000D01*
X169314500Y-92456000D02*
X169060500Y-92710000D01*
X173482000Y-92456000D02*
X169314500Y-92456000D01*
X169060500Y-93410000D02*
X167728500Y-94742000D01*
X169060500Y-92710000D02*
X169060500Y-93410000D01*
X130876000Y-93218000D02*
X130556000Y-92898000D01*
X133096000Y-93218000D02*
X130876000Y-93218000D01*
X120142000Y-93876500D02*
X122023500Y-93876500D01*
D21*
%TO.N,Net-(D1-Pad2)*%
X162560000Y-58523500D02*
X162560000Y-54102000D01*
D22*
%TO.N,Net-(J1-Pad2)*%
X167235500Y-92710000D02*
X166370000Y-92710000D01*
X166370000Y-92710000D02*
X164084000Y-94996000D01*
X164084000Y-94996000D02*
X164084000Y-97536000D01*
X164084000Y-97536000D02*
X163068000Y-98552000D01*
X132334000Y-98552000D02*
X131064000Y-97282000D01*
X163068000Y-98552000D02*
X132334000Y-98552000D01*
D21*
%TO.N,Net-(J1-Pad3)*%
X120142000Y-92051500D02*
X123340500Y-92051500D01*
X124460000Y-90932000D02*
X125730000Y-90932000D01*
X123340500Y-92051500D02*
X124460000Y-90932000D01*
X124730000Y-90932000D02*
X125730000Y-90932000D01*
X124430001Y-91231999D02*
X124730000Y-90932000D01*
X124430001Y-96750001D02*
X124430001Y-91231999D01*
X125280000Y-97600000D02*
X124430001Y-96750001D01*
%TO.N,/FLASH*%
X118163600Y-66548000D02*
X118010600Y-66395000D01*
X121261500Y-66548000D02*
X118163600Y-66548000D01*
%TO.N,/TXD*%
X118010600Y-68935000D02*
X127915000Y-68935000D01*
X128937999Y-55154999D02*
X130592999Y-55154999D01*
X128560999Y-55531999D02*
X128937999Y-55154999D01*
X128560999Y-68289001D02*
X128560999Y-55531999D01*
X127915000Y-68935000D02*
X128560999Y-68289001D01*
X130592999Y-55154999D02*
X131318000Y-55880000D01*
X155174000Y-49332000D02*
X143200000Y-49332000D01*
X142240000Y-50292000D02*
X142240000Y-55880000D01*
X143200000Y-49332000D02*
X142240000Y-50292000D01*
%TO.N,/RXD*%
X155174000Y-51332000D02*
X144248000Y-51332000D01*
X144248000Y-51332000D02*
X143256000Y-52324000D01*
X143256000Y-56642000D02*
X142240000Y-57658000D01*
X143256000Y-52324000D02*
X143256000Y-56642000D01*
X116835599Y-74579001D02*
X116835599Y-72650001D01*
X117446599Y-75190001D02*
X116835599Y-74579001D01*
X127376409Y-75190001D02*
X117446599Y-75190001D01*
X130011000Y-72555410D02*
X127376409Y-75190001D01*
X130011000Y-57658000D02*
X130011000Y-72555410D01*
X125476000Y-89408000D02*
X125730000Y-89662000D01*
X121308500Y-89408000D02*
X125476000Y-89408000D01*
X116835599Y-72650001D02*
X118010600Y-71475000D01*
X119984180Y-90433010D02*
X118982820Y-90433010D01*
X120755190Y-89662000D02*
X119984180Y-90433010D01*
X116835599Y-88285789D02*
X116835599Y-72650001D01*
X118982820Y-90433010D02*
X116835599Y-88285789D01*
X125730000Y-89662000D02*
X120755190Y-89662000D01*
%TO.N,Net-(R1-Pad2)*%
X139966000Y-53340000D02*
X139974000Y-53332000D01*
X135278500Y-53340000D02*
X139966000Y-53340000D01*
%TO.N,Net-(R3-Pad1)*%
X135278500Y-49784000D02*
X137668000Y-49784000D01*
X138120000Y-49332000D02*
X139974000Y-49332000D01*
X137668000Y-49784000D02*
X138120000Y-49332000D01*
%TO.N,Net-(R4-Pad2)*%
X137120000Y-55332000D02*
X136906000Y-55118000D01*
X139974000Y-55332000D02*
X137120000Y-55332000D01*
X129286000Y-55880000D02*
X129286000Y-72644000D01*
X128016000Y-73914000D02*
X123124000Y-73914000D01*
X129286000Y-72644000D02*
X128016000Y-73914000D01*
%TO.N,Net-(R5-Pad2)*%
X155174000Y-57332000D02*
X157154000Y-57332000D01*
X158091500Y-58269500D02*
X158091500Y-59182000D01*
X157154000Y-57332000D02*
X158091500Y-58269500D01*
X126238000Y-66548000D02*
X127254000Y-67564000D01*
X123086500Y-66548000D02*
X126238000Y-66548000D01*
X130736000Y-58748000D02*
X131064000Y-58420000D01*
X130736000Y-66548000D02*
X130736000Y-58748000D01*
X155102000Y-57404000D02*
X155174000Y-57332000D01*
X144018000Y-57404000D02*
X155102000Y-57404000D01*
%TO.N,Net-(R6-Pad2)*%
X153811988Y-62304990D02*
X153162000Y-61655002D01*
X161976490Y-62304990D02*
X153811988Y-62304990D01*
X162409500Y-62738000D02*
X161976490Y-62304990D01*
X153674000Y-59332000D02*
X155174000Y-59332000D01*
X153162000Y-59844000D02*
X153674000Y-59332000D01*
X153162000Y-61655002D02*
X153162000Y-59844000D01*
%TO.N,Net-(R8-Pad2)*%
X158227500Y-61332000D02*
X158242000Y-61317500D01*
X155174000Y-61332000D02*
X158227500Y-61332000D01*
%TO.N,/ledb*%
X155174000Y-53332000D02*
X157234000Y-53332000D01*
X157234000Y-53332000D02*
X158242000Y-52324000D01*
X158242000Y-52324000D02*
X164846000Y-52324000D01*
X165100000Y-52578000D02*
X165100000Y-54102000D01*
X164846000Y-52324000D02*
X165100000Y-52578000D01*
%TO.N,/leda*%
X158790000Y-55332000D02*
X160020000Y-54102000D01*
X155174000Y-55332000D02*
X158790000Y-55332000D01*
%TD*%
D23*
%TO.N,GND*%
X118419021Y-90944013D02*
X118442819Y-90973011D01*
X118471817Y-90996809D01*
X118558543Y-91067984D01*
X118645467Y-91114446D01*
X118690573Y-91138556D01*
X118833834Y-91182013D01*
X118945487Y-91193010D01*
X118945496Y-91193010D01*
X118982819Y-91196686D01*
X119020142Y-91193010D01*
X119037799Y-91193010D01*
X118953595Y-91295613D01*
X118871528Y-91449149D01*
X118820992Y-91615745D01*
X118803928Y-91788999D01*
X118803928Y-92314001D01*
X118820992Y-92487255D01*
X118871528Y-92653851D01*
X118953595Y-92807387D01*
X119064038Y-92941962D01*
X119090891Y-92964000D01*
X119064038Y-92986038D01*
X118953595Y-93120613D01*
X118871528Y-93274149D01*
X118820992Y-93440745D01*
X118803928Y-93613999D01*
X118803928Y-94139001D01*
X118820992Y-94312255D01*
X118871528Y-94478851D01*
X118953595Y-94632387D01*
X119007000Y-94697461D01*
X119007001Y-96213319D01*
X118995506Y-96219463D01*
X118898815Y-96298815D01*
X118819463Y-96395506D01*
X118760498Y-96505820D01*
X118724188Y-96625518D01*
X118711928Y-96750000D01*
X118711928Y-98450000D01*
X118724188Y-98574482D01*
X118760498Y-98694180D01*
X118784990Y-98740000D01*
X116360000Y-98740000D01*
X116360000Y-88884991D01*
X118419021Y-90944013D01*
%TA.AperFunction,Conductor*%
D24*
G36*
X118419021Y-90944013D02*
G01*
X118442819Y-90973011D01*
X118471817Y-90996809D01*
X118558543Y-91067984D01*
X118645467Y-91114446D01*
X118690573Y-91138556D01*
X118833834Y-91182013D01*
X118945487Y-91193010D01*
X118945496Y-91193010D01*
X118982819Y-91196686D01*
X119020142Y-91193010D01*
X119037799Y-91193010D01*
X118953595Y-91295613D01*
X118871528Y-91449149D01*
X118820992Y-91615745D01*
X118803928Y-91788999D01*
X118803928Y-92314001D01*
X118820992Y-92487255D01*
X118871528Y-92653851D01*
X118953595Y-92807387D01*
X119064038Y-92941962D01*
X119090891Y-92964000D01*
X119064038Y-92986038D01*
X118953595Y-93120613D01*
X118871528Y-93274149D01*
X118820992Y-93440745D01*
X118803928Y-93613999D01*
X118803928Y-94139001D01*
X118820992Y-94312255D01*
X118871528Y-94478851D01*
X118953595Y-94632387D01*
X119007000Y-94697461D01*
X119007001Y-96213319D01*
X118995506Y-96219463D01*
X118898815Y-96298815D01*
X118819463Y-96395506D01*
X118760498Y-96505820D01*
X118724188Y-96625518D01*
X118711928Y-96750000D01*
X118711928Y-98450000D01*
X118724188Y-98574482D01*
X118760498Y-98694180D01*
X118784990Y-98740000D01*
X116360000Y-98740000D01*
X116360000Y-88884991D01*
X118419021Y-90944013D01*
G37*
%TD.AperFunction*%
D23*
X179840000Y-98740000D02*
X176817138Y-98740000D01*
X176946632Y-98653475D01*
X177153475Y-98446632D01*
X177315990Y-98203411D01*
X177427932Y-97933158D01*
X177485000Y-97646260D01*
X177485000Y-97353740D01*
X177427932Y-97066842D01*
X177315990Y-96796589D01*
X177153475Y-96553368D01*
X176946632Y-96346525D01*
X176703411Y-96184010D01*
X176433158Y-96072068D01*
X176146260Y-96015000D01*
X175853740Y-96015000D01*
X175706543Y-96044279D01*
X175893623Y-95944284D01*
X176066449Y-95802449D01*
X176101995Y-95759136D01*
X176785140Y-95075992D01*
X176828449Y-95040449D01*
X176970284Y-94867623D01*
X177075676Y-94670447D01*
X177140577Y-94456499D01*
X177157000Y-94289752D01*
X177162491Y-94234000D01*
X177157000Y-94178248D01*
X177157000Y-93591000D01*
X177236249Y-93591000D01*
X177292000Y-93596491D01*
X177347751Y-93591000D01*
X177347752Y-93591000D01*
X177514499Y-93574577D01*
X177728447Y-93509676D01*
X177925623Y-93404284D01*
X178098449Y-93262449D01*
X178133995Y-93219136D01*
X179833146Y-91519987D01*
X179840000Y-91514362D01*
X179840000Y-98740000D01*
%TA.AperFunction,Conductor*%
D24*
G36*
X179840000Y-98740000D02*
G01*
X176817138Y-98740000D01*
X176946632Y-98653475D01*
X177153475Y-98446632D01*
X177315990Y-98203411D01*
X177427932Y-97933158D01*
X177485000Y-97646260D01*
X177485000Y-97353740D01*
X177427932Y-97066842D01*
X177315990Y-96796589D01*
X177153475Y-96553368D01*
X176946632Y-96346525D01*
X176703411Y-96184010D01*
X176433158Y-96072068D01*
X176146260Y-96015000D01*
X175853740Y-96015000D01*
X175706543Y-96044279D01*
X175893623Y-95944284D01*
X176066449Y-95802449D01*
X176101995Y-95759136D01*
X176785140Y-95075992D01*
X176828449Y-95040449D01*
X176970284Y-94867623D01*
X177075676Y-94670447D01*
X177140577Y-94456499D01*
X177157000Y-94289752D01*
X177162491Y-94234000D01*
X177157000Y-94178248D01*
X177157000Y-93591000D01*
X177236249Y-93591000D01*
X177292000Y-93596491D01*
X177347751Y-93591000D01*
X177347752Y-93591000D01*
X177514499Y-93574577D01*
X177728447Y-93509676D01*
X177925623Y-93404284D01*
X178098449Y-93262449D01*
X178133995Y-93219136D01*
X179833146Y-91519987D01*
X179840000Y-91514362D01*
X179840000Y-98740000D01*
G37*
%TD.AperFunction*%
D23*
X167640000Y-69466491D02*
X167695752Y-69461000D01*
X177075869Y-69461000D01*
X177935001Y-70320133D01*
X177935000Y-90207867D01*
X176891729Y-91251140D01*
X176725411Y-91140010D01*
X176455158Y-91028068D01*
X176168260Y-90971000D01*
X175875740Y-90971000D01*
X175588842Y-91028068D01*
X175318589Y-91140010D01*
X175075368Y-91302525D01*
X174943513Y-91434380D01*
X174921502Y-91361820D01*
X174862537Y-91251506D01*
X174783185Y-91154815D01*
X174686494Y-91075463D01*
X174576180Y-91016498D01*
X174456482Y-90980188D01*
X174332000Y-90967928D01*
X172632000Y-90967928D01*
X172507518Y-90980188D01*
X172387820Y-91016498D01*
X172277506Y-91075463D01*
X172180815Y-91154815D01*
X172101463Y-91251506D01*
X172064317Y-91321000D01*
X169370241Y-91321000D01*
X169314499Y-91315510D01*
X169258757Y-91321000D01*
X169258748Y-91321000D01*
X169092001Y-91337423D01*
X168978254Y-91371928D01*
X168797999Y-91371928D01*
X168624745Y-91388992D01*
X168458149Y-91439528D01*
X168304613Y-91521595D01*
X168170038Y-91632038D01*
X168148000Y-91658891D01*
X168125962Y-91632038D01*
X167991387Y-91521595D01*
X167837851Y-91439528D01*
X167671255Y-91388992D01*
X167498001Y-91371928D01*
X166972999Y-91371928D01*
X166799745Y-91388992D01*
X166633149Y-91439528D01*
X166479613Y-91521595D01*
X166415739Y-91574015D01*
X166369999Y-91569510D01*
X166314255Y-91575000D01*
X166314248Y-91575000D01*
X166168493Y-91589356D01*
X166147500Y-91591423D01*
X166097705Y-91606529D01*
X165933553Y-91656324D01*
X165736377Y-91761716D01*
X165563551Y-91903551D01*
X165528011Y-91946857D01*
X163320865Y-94154004D01*
X163277551Y-94189551D01*
X163135716Y-94362377D01*
X163042767Y-94536274D01*
X163030324Y-94559554D01*
X162965423Y-94773502D01*
X162943509Y-94996000D01*
X162949000Y-95051752D01*
X162949001Y-97065868D01*
X162597869Y-97417000D01*
X132804132Y-97417000D01*
X131827143Y-96440012D01*
X131697622Y-96333717D01*
X131500446Y-96228324D01*
X131286498Y-96163423D01*
X131064000Y-96141509D01*
X130841502Y-96163423D01*
X130627554Y-96228324D01*
X130430378Y-96333717D01*
X130257552Y-96475552D01*
X130115717Y-96648378D01*
X130010324Y-96845554D01*
X129945423Y-97059502D01*
X129923509Y-97282000D01*
X129945423Y-97504498D01*
X130010324Y-97718446D01*
X130115717Y-97915622D01*
X130222012Y-98045143D01*
X130916868Y-98740000D01*
X128763408Y-98740000D01*
X128820269Y-98697588D01*
X129015178Y-98481355D01*
X129164157Y-98231252D01*
X129261481Y-97956891D01*
X129140814Y-97727000D01*
X127947000Y-97727000D01*
X127947000Y-97747000D01*
X127693000Y-97747000D01*
X127693000Y-97727000D01*
X127673000Y-97727000D01*
X127673000Y-97473000D01*
X127693000Y-97473000D01*
X127693000Y-96279845D01*
X127947000Y-96279845D01*
X127947000Y-97473000D01*
X129140814Y-97473000D01*
X129261481Y-97243109D01*
X129164157Y-96968748D01*
X129015178Y-96718645D01*
X128820269Y-96502412D01*
X128586920Y-96328359D01*
X128324099Y-96203175D01*
X128176890Y-96158524D01*
X127947000Y-96279845D01*
X127693000Y-96279845D01*
X127463110Y-96158524D01*
X127315901Y-96203175D01*
X127053080Y-96328359D01*
X126819731Y-96502412D01*
X126624822Y-96718645D01*
X126555195Y-96835534D01*
X126433475Y-96653368D01*
X126226632Y-96446525D01*
X125983411Y-96284010D01*
X125713158Y-96172068D01*
X125426260Y-96115000D01*
X125190001Y-96115000D01*
X125190001Y-93327854D01*
X125193596Y-93329239D01*
X125419493Y-93368331D01*
X125603000Y-93208598D01*
X125603000Y-92329000D01*
X125857000Y-92329000D01*
X125857000Y-93208598D01*
X126040507Y-93368331D01*
X126266404Y-93329239D01*
X126480334Y-93246828D01*
X126674076Y-93124264D01*
X126840184Y-92966258D01*
X126972275Y-92778882D01*
X127065272Y-92569337D01*
X127073964Y-92507810D01*
X126948163Y-92329000D01*
X125857000Y-92329000D01*
X125603000Y-92329000D01*
X125583000Y-92329000D01*
X125583000Y-92092000D01*
X126011979Y-92092000D01*
X126182400Y-92075215D01*
X126183109Y-92075000D01*
X126948163Y-92075000D01*
X127073964Y-91896190D01*
X127065272Y-91834663D01*
X126972275Y-91625118D01*
X126931071Y-91566669D01*
X127031885Y-91378060D01*
X127098215Y-91159400D01*
X127120612Y-90932000D01*
X127098215Y-90704600D01*
X127035544Y-90498000D01*
X129192928Y-90498000D01*
X129196000Y-90712250D01*
X129354750Y-90871000D01*
X130429000Y-90871000D01*
X130429000Y-90021750D01*
X130270250Y-89863000D01*
X129831000Y-89859928D01*
X129706518Y-89872188D01*
X129586820Y-89908498D01*
X129476506Y-89967463D01*
X129379815Y-90046815D01*
X129300463Y-90143506D01*
X129241498Y-90253820D01*
X129205188Y-90373518D01*
X129192928Y-90498000D01*
X127035544Y-90498000D01*
X127034907Y-90495902D01*
X127069502Y-90431180D01*
X127105812Y-90311482D01*
X127118072Y-90187000D01*
X127118072Y-89137000D01*
X127105812Y-89012518D01*
X127069502Y-88892820D01*
X127010537Y-88782506D01*
X126931185Y-88685815D01*
X126834494Y-88606463D01*
X126724180Y-88547498D01*
X126604482Y-88511188D01*
X126480000Y-88498928D01*
X124980000Y-88498928D01*
X124855518Y-88511188D01*
X124735820Y-88547498D01*
X124625506Y-88606463D01*
X124574893Y-88648000D01*
X122400527Y-88648000D01*
X122391472Y-88618149D01*
X122309405Y-88464613D01*
X122198962Y-88330038D01*
X122064387Y-88219595D01*
X121910851Y-88137528D01*
X121744255Y-88086992D01*
X121571001Y-88069928D01*
X121045999Y-88069928D01*
X120872745Y-88086992D01*
X120706149Y-88137528D01*
X120618500Y-88184378D01*
X120618500Y-83170631D01*
X122074140Y-81714991D01*
X122117449Y-81679449D01*
X122259284Y-81506623D01*
X122364676Y-81309447D01*
X122429577Y-81095499D01*
X122446000Y-80928752D01*
X122446000Y-80928743D01*
X122451490Y-80873001D01*
X122446000Y-80817259D01*
X122446000Y-77690000D01*
X132726869Y-77690000D01*
X133673000Y-78636133D01*
X133673001Y-89882627D01*
X133652180Y-89871498D01*
X133532482Y-89835188D01*
X133408000Y-89822928D01*
X133193750Y-89826000D01*
X133035000Y-89984750D01*
X133035000Y-91059000D01*
X133055000Y-91059000D01*
X133055000Y-91313000D01*
X133035000Y-91313000D01*
X133035000Y-91333000D01*
X132781000Y-91333000D01*
X132781000Y-91313000D01*
X132761000Y-91313000D01*
X132761000Y-91059000D01*
X132781000Y-91059000D01*
X132781000Y-89984750D01*
X132622250Y-89826000D01*
X132408000Y-89822928D01*
X132283518Y-89835188D01*
X132163820Y-89871498D01*
X132053506Y-89930463D01*
X131956815Y-90009815D01*
X131877463Y-90106506D01*
X131834611Y-90186674D01*
X131811537Y-90143506D01*
X131732185Y-90046815D01*
X131635494Y-89967463D01*
X131525180Y-89908498D01*
X131405482Y-89872188D01*
X131281000Y-89859928D01*
X130841750Y-89863000D01*
X130683000Y-90021750D01*
X130683000Y-90871000D01*
X130703000Y-90871000D01*
X130703000Y-91125000D01*
X130683000Y-91125000D01*
X130683000Y-91145000D01*
X130429000Y-91145000D01*
X130429000Y-91125000D01*
X129354750Y-91125000D01*
X129196000Y-91283750D01*
X129192928Y-91498000D01*
X129205188Y-91622482D01*
X129241498Y-91742180D01*
X129300463Y-91852494D01*
X129379815Y-91949185D01*
X129459594Y-92014658D01*
X129453038Y-92020038D01*
X129342595Y-92154614D01*
X129260528Y-92308150D01*
X129209992Y-92474746D01*
X129192928Y-92648000D01*
X129192928Y-93148000D01*
X129209992Y-93321254D01*
X129260528Y-93487850D01*
X129342595Y-93641386D01*
X129453038Y-93775962D01*
X129587614Y-93886405D01*
X129741150Y-93968472D01*
X129907746Y-94019008D01*
X130081000Y-94036072D01*
X130083714Y-94036072D01*
X130242377Y-94166284D01*
X130439553Y-94271676D01*
X130653501Y-94336577D01*
X130820248Y-94353000D01*
X130820257Y-94353000D01*
X130875999Y-94358490D01*
X130931741Y-94353000D01*
X133151752Y-94353000D01*
X133318499Y-94336577D01*
X133532447Y-94271676D01*
X133729623Y-94166284D01*
X133902449Y-94024449D01*
X134044284Y-93851623D01*
X134149676Y-93654447D01*
X134214577Y-93440499D01*
X134236491Y-93218000D01*
X134214577Y-92995501D01*
X134149676Y-92781553D01*
X134044284Y-92584377D01*
X133902449Y-92411551D01*
X133850741Y-92369115D01*
X133859185Y-92362185D01*
X133924658Y-92282406D01*
X133930038Y-92288962D01*
X134064614Y-92399405D01*
X134218150Y-92481472D01*
X134384746Y-92532008D01*
X134558000Y-92549072D01*
X135058000Y-92549072D01*
X135231254Y-92532008D01*
X135397850Y-92481472D01*
X135551386Y-92399405D01*
X135685962Y-92288962D01*
X135796405Y-92154386D01*
X135878472Y-92000850D01*
X135929008Y-91834254D01*
X135946072Y-91661000D01*
X135946072Y-90711000D01*
X135943000Y-90679809D01*
X135943000Y-78221752D01*
X135948491Y-78166000D01*
X135926577Y-77943501D01*
X135861676Y-77729553D01*
X135756284Y-77532377D01*
X135649989Y-77402856D01*
X135649987Y-77402854D01*
X135614449Y-77359551D01*
X135571146Y-77324013D01*
X134955132Y-76708000D01*
X138177141Y-73485991D01*
X138220449Y-73450449D01*
X138362284Y-73277623D01*
X138467676Y-73080447D01*
X138532577Y-72866499D01*
X138549000Y-72699752D01*
X138549000Y-72699743D01*
X138554490Y-72644001D01*
X138549000Y-72588259D01*
X138549000Y-69666957D01*
X138568494Y-69656537D01*
X138665185Y-69577185D01*
X138744537Y-69480494D01*
X138754957Y-69461000D01*
X167584249Y-69461000D01*
X167640000Y-69466491D01*
%TA.AperFunction,Conductor*%
D24*
G36*
X167640000Y-69466491D02*
G01*
X167695752Y-69461000D01*
X177075869Y-69461000D01*
X177935001Y-70320133D01*
X177935000Y-90207867D01*
X176891729Y-91251140D01*
X176725411Y-91140010D01*
X176455158Y-91028068D01*
X176168260Y-90971000D01*
X175875740Y-90971000D01*
X175588842Y-91028068D01*
X175318589Y-91140010D01*
X175075368Y-91302525D01*
X174943513Y-91434380D01*
X174921502Y-91361820D01*
X174862537Y-91251506D01*
X174783185Y-91154815D01*
X174686494Y-91075463D01*
X174576180Y-91016498D01*
X174456482Y-90980188D01*
X174332000Y-90967928D01*
X172632000Y-90967928D01*
X172507518Y-90980188D01*
X172387820Y-91016498D01*
X172277506Y-91075463D01*
X172180815Y-91154815D01*
X172101463Y-91251506D01*
X172064317Y-91321000D01*
X169370241Y-91321000D01*
X169314499Y-91315510D01*
X169258757Y-91321000D01*
X169258748Y-91321000D01*
X169092001Y-91337423D01*
X168978254Y-91371928D01*
X168797999Y-91371928D01*
X168624745Y-91388992D01*
X168458149Y-91439528D01*
X168304613Y-91521595D01*
X168170038Y-91632038D01*
X168148000Y-91658891D01*
X168125962Y-91632038D01*
X167991387Y-91521595D01*
X167837851Y-91439528D01*
X167671255Y-91388992D01*
X167498001Y-91371928D01*
X166972999Y-91371928D01*
X166799745Y-91388992D01*
X166633149Y-91439528D01*
X166479613Y-91521595D01*
X166415739Y-91574015D01*
X166369999Y-91569510D01*
X166314255Y-91575000D01*
X166314248Y-91575000D01*
X166168493Y-91589356D01*
X166147500Y-91591423D01*
X166097705Y-91606529D01*
X165933553Y-91656324D01*
X165736377Y-91761716D01*
X165563551Y-91903551D01*
X165528011Y-91946857D01*
X163320865Y-94154004D01*
X163277551Y-94189551D01*
X163135716Y-94362377D01*
X163042767Y-94536274D01*
X163030324Y-94559554D01*
X162965423Y-94773502D01*
X162943509Y-94996000D01*
X162949000Y-95051752D01*
X162949001Y-97065868D01*
X162597869Y-97417000D01*
X132804132Y-97417000D01*
X131827143Y-96440012D01*
X131697622Y-96333717D01*
X131500446Y-96228324D01*
X131286498Y-96163423D01*
X131064000Y-96141509D01*
X130841502Y-96163423D01*
X130627554Y-96228324D01*
X130430378Y-96333717D01*
X130257552Y-96475552D01*
X130115717Y-96648378D01*
X130010324Y-96845554D01*
X129945423Y-97059502D01*
X129923509Y-97282000D01*
X129945423Y-97504498D01*
X130010324Y-97718446D01*
X130115717Y-97915622D01*
X130222012Y-98045143D01*
X130916868Y-98740000D01*
X128763408Y-98740000D01*
X128820269Y-98697588D01*
X129015178Y-98481355D01*
X129164157Y-98231252D01*
X129261481Y-97956891D01*
X129140814Y-97727000D01*
X127947000Y-97727000D01*
X127947000Y-97747000D01*
X127693000Y-97747000D01*
X127693000Y-97727000D01*
X127673000Y-97727000D01*
X127673000Y-97473000D01*
X127693000Y-97473000D01*
X127693000Y-96279845D01*
X127947000Y-96279845D01*
X127947000Y-97473000D01*
X129140814Y-97473000D01*
X129261481Y-97243109D01*
X129164157Y-96968748D01*
X129015178Y-96718645D01*
X128820269Y-96502412D01*
X128586920Y-96328359D01*
X128324099Y-96203175D01*
X128176890Y-96158524D01*
X127947000Y-96279845D01*
X127693000Y-96279845D01*
X127463110Y-96158524D01*
X127315901Y-96203175D01*
X127053080Y-96328359D01*
X126819731Y-96502412D01*
X126624822Y-96718645D01*
X126555195Y-96835534D01*
X126433475Y-96653368D01*
X126226632Y-96446525D01*
X125983411Y-96284010D01*
X125713158Y-96172068D01*
X125426260Y-96115000D01*
X125190001Y-96115000D01*
X125190001Y-93327854D01*
X125193596Y-93329239D01*
X125419493Y-93368331D01*
X125603000Y-93208598D01*
X125603000Y-92329000D01*
X125857000Y-92329000D01*
X125857000Y-93208598D01*
X126040507Y-93368331D01*
X126266404Y-93329239D01*
X126480334Y-93246828D01*
X126674076Y-93124264D01*
X126840184Y-92966258D01*
X126972275Y-92778882D01*
X127065272Y-92569337D01*
X127073964Y-92507810D01*
X126948163Y-92329000D01*
X125857000Y-92329000D01*
X125603000Y-92329000D01*
X125583000Y-92329000D01*
X125583000Y-92092000D01*
X126011979Y-92092000D01*
X126182400Y-92075215D01*
X126183109Y-92075000D01*
X126948163Y-92075000D01*
X127073964Y-91896190D01*
X127065272Y-91834663D01*
X126972275Y-91625118D01*
X126931071Y-91566669D01*
X127031885Y-91378060D01*
X127098215Y-91159400D01*
X127120612Y-90932000D01*
X127098215Y-90704600D01*
X127035544Y-90498000D01*
X129192928Y-90498000D01*
X129196000Y-90712250D01*
X129354750Y-90871000D01*
X130429000Y-90871000D01*
X130429000Y-90021750D01*
X130270250Y-89863000D01*
X129831000Y-89859928D01*
X129706518Y-89872188D01*
X129586820Y-89908498D01*
X129476506Y-89967463D01*
X129379815Y-90046815D01*
X129300463Y-90143506D01*
X129241498Y-90253820D01*
X129205188Y-90373518D01*
X129192928Y-90498000D01*
X127035544Y-90498000D01*
X127034907Y-90495902D01*
X127069502Y-90431180D01*
X127105812Y-90311482D01*
X127118072Y-90187000D01*
X127118072Y-89137000D01*
X127105812Y-89012518D01*
X127069502Y-88892820D01*
X127010537Y-88782506D01*
X126931185Y-88685815D01*
X126834494Y-88606463D01*
X126724180Y-88547498D01*
X126604482Y-88511188D01*
X126480000Y-88498928D01*
X124980000Y-88498928D01*
X124855518Y-88511188D01*
X124735820Y-88547498D01*
X124625506Y-88606463D01*
X124574893Y-88648000D01*
X122400527Y-88648000D01*
X122391472Y-88618149D01*
X122309405Y-88464613D01*
X122198962Y-88330038D01*
X122064387Y-88219595D01*
X121910851Y-88137528D01*
X121744255Y-88086992D01*
X121571001Y-88069928D01*
X121045999Y-88069928D01*
X120872745Y-88086992D01*
X120706149Y-88137528D01*
X120618500Y-88184378D01*
X120618500Y-83170631D01*
X122074140Y-81714991D01*
X122117449Y-81679449D01*
X122259284Y-81506623D01*
X122364676Y-81309447D01*
X122429577Y-81095499D01*
X122446000Y-80928752D01*
X122446000Y-80928743D01*
X122451490Y-80873001D01*
X122446000Y-80817259D01*
X122446000Y-77690000D01*
X132726869Y-77690000D01*
X133673000Y-78636133D01*
X133673001Y-89882627D01*
X133652180Y-89871498D01*
X133532482Y-89835188D01*
X133408000Y-89822928D01*
X133193750Y-89826000D01*
X133035000Y-89984750D01*
X133035000Y-91059000D01*
X133055000Y-91059000D01*
X133055000Y-91313000D01*
X133035000Y-91313000D01*
X133035000Y-91333000D01*
X132781000Y-91333000D01*
X132781000Y-91313000D01*
X132761000Y-91313000D01*
X132761000Y-91059000D01*
X132781000Y-91059000D01*
X132781000Y-89984750D01*
X132622250Y-89826000D01*
X132408000Y-89822928D01*
X132283518Y-89835188D01*
X132163820Y-89871498D01*
X132053506Y-89930463D01*
X131956815Y-90009815D01*
X131877463Y-90106506D01*
X131834611Y-90186674D01*
X131811537Y-90143506D01*
X131732185Y-90046815D01*
X131635494Y-89967463D01*
X131525180Y-89908498D01*
X131405482Y-89872188D01*
X131281000Y-89859928D01*
X130841750Y-89863000D01*
X130683000Y-90021750D01*
X130683000Y-90871000D01*
X130703000Y-90871000D01*
X130703000Y-91125000D01*
X130683000Y-91125000D01*
X130683000Y-91145000D01*
X130429000Y-91145000D01*
X130429000Y-91125000D01*
X129354750Y-91125000D01*
X129196000Y-91283750D01*
X129192928Y-91498000D01*
X129205188Y-91622482D01*
X129241498Y-91742180D01*
X129300463Y-91852494D01*
X129379815Y-91949185D01*
X129459594Y-92014658D01*
X129453038Y-92020038D01*
X129342595Y-92154614D01*
X129260528Y-92308150D01*
X129209992Y-92474746D01*
X129192928Y-92648000D01*
X129192928Y-93148000D01*
X129209992Y-93321254D01*
X129260528Y-93487850D01*
X129342595Y-93641386D01*
X129453038Y-93775962D01*
X129587614Y-93886405D01*
X129741150Y-93968472D01*
X129907746Y-94019008D01*
X130081000Y-94036072D01*
X130083714Y-94036072D01*
X130242377Y-94166284D01*
X130439553Y-94271676D01*
X130653501Y-94336577D01*
X130820248Y-94353000D01*
X130820257Y-94353000D01*
X130875999Y-94358490D01*
X130931741Y-94353000D01*
X133151752Y-94353000D01*
X133318499Y-94336577D01*
X133532447Y-94271676D01*
X133729623Y-94166284D01*
X133902449Y-94024449D01*
X134044284Y-93851623D01*
X134149676Y-93654447D01*
X134214577Y-93440499D01*
X134236491Y-93218000D01*
X134214577Y-92995501D01*
X134149676Y-92781553D01*
X134044284Y-92584377D01*
X133902449Y-92411551D01*
X133850741Y-92369115D01*
X133859185Y-92362185D01*
X133924658Y-92282406D01*
X133930038Y-92288962D01*
X134064614Y-92399405D01*
X134218150Y-92481472D01*
X134384746Y-92532008D01*
X134558000Y-92549072D01*
X135058000Y-92549072D01*
X135231254Y-92532008D01*
X135397850Y-92481472D01*
X135551386Y-92399405D01*
X135685962Y-92288962D01*
X135796405Y-92154386D01*
X135878472Y-92000850D01*
X135929008Y-91834254D01*
X135946072Y-91661000D01*
X135946072Y-90711000D01*
X135943000Y-90679809D01*
X135943000Y-78221752D01*
X135948491Y-78166000D01*
X135926577Y-77943501D01*
X135861676Y-77729553D01*
X135756284Y-77532377D01*
X135649989Y-77402856D01*
X135649987Y-77402854D01*
X135614449Y-77359551D01*
X135571146Y-77324013D01*
X134955132Y-76708000D01*
X138177141Y-73485991D01*
X138220449Y-73450449D01*
X138362284Y-73277623D01*
X138467676Y-73080447D01*
X138532577Y-72866499D01*
X138549000Y-72699752D01*
X138549000Y-72699743D01*
X138554490Y-72644001D01*
X138549000Y-72588259D01*
X138549000Y-69666957D01*
X138568494Y-69656537D01*
X138665185Y-69577185D01*
X138744537Y-69480494D01*
X138754957Y-69461000D01*
X167584249Y-69461000D01*
X167640000Y-69466491D01*
G37*
%TD.AperFunction*%
D23*
X172101463Y-93660494D02*
X172180815Y-93757185D01*
X172277506Y-93836537D01*
X172323272Y-93861000D01*
X172013752Y-93861000D01*
X171958000Y-93855509D01*
X171735501Y-93877423D01*
X171521553Y-93942324D01*
X171324377Y-94047716D01*
X171194856Y-94154011D01*
X171194854Y-94154013D01*
X171151551Y-94189551D01*
X171116013Y-94232854D01*
X170156864Y-95192005D01*
X170113551Y-95227551D01*
X169971716Y-95400377D01*
X169873575Y-95583988D01*
X169866324Y-95597554D01*
X169801423Y-95811502D01*
X169779509Y-96034000D01*
X169785000Y-96089751D01*
X169785000Y-96341272D01*
X169760537Y-96295506D01*
X169681185Y-96198815D01*
X169584494Y-96119463D01*
X169474180Y-96060498D01*
X169354482Y-96024188D01*
X169230000Y-96011928D01*
X168665750Y-96015000D01*
X168507000Y-96173750D01*
X168507000Y-97373000D01*
X168527000Y-97373000D01*
X168527000Y-97627000D01*
X168507000Y-97627000D01*
X168507000Y-97647000D01*
X168253000Y-97647000D01*
X168253000Y-97627000D01*
X167053750Y-97627000D01*
X166895000Y-97785750D01*
X166891928Y-98350000D01*
X166904188Y-98474482D01*
X166940498Y-98594180D01*
X166999463Y-98704494D01*
X167028602Y-98740000D01*
X164485132Y-98740000D01*
X164847140Y-98377992D01*
X164890449Y-98342449D01*
X165032284Y-98169623D01*
X165137676Y-97972447D01*
X165202577Y-97758499D01*
X165219000Y-97591752D01*
X165224491Y-97536000D01*
X165219000Y-97480249D01*
X165219000Y-96650000D01*
X166891928Y-96650000D01*
X166895000Y-97214250D01*
X167053750Y-97373000D01*
X168253000Y-97373000D01*
X168253000Y-96173750D01*
X168094250Y-96015000D01*
X167530000Y-96011928D01*
X167405518Y-96024188D01*
X167285820Y-96060498D01*
X167175506Y-96119463D01*
X167078815Y-96198815D01*
X166999463Y-96295506D01*
X166940498Y-96405820D01*
X166904188Y-96525518D01*
X166891928Y-96650000D01*
X165219000Y-96650000D01*
X165219000Y-95466131D01*
X166688016Y-93997116D01*
X166799745Y-94031008D01*
X166840425Y-94035015D01*
X166780217Y-94108378D01*
X166674824Y-94305554D01*
X166609923Y-94519502D01*
X166588009Y-94742000D01*
X166609923Y-94964498D01*
X166674824Y-95178446D01*
X166780217Y-95375622D01*
X166922052Y-95548448D01*
X167094878Y-95690283D01*
X167292054Y-95795676D01*
X167506002Y-95860577D01*
X167728500Y-95882491D01*
X167950998Y-95860577D01*
X168164946Y-95795676D01*
X168362122Y-95690283D01*
X168491643Y-95583988D01*
X169823640Y-94251992D01*
X169866949Y-94216449D01*
X170008784Y-94043623D01*
X170114176Y-93846447D01*
X170179077Y-93632498D01*
X170183164Y-93591000D01*
X172064317Y-93591000D01*
X172101463Y-93660494D01*
%TA.AperFunction,Conductor*%
D24*
G36*
X172101463Y-93660494D02*
G01*
X172180815Y-93757185D01*
X172277506Y-93836537D01*
X172323272Y-93861000D01*
X172013752Y-93861000D01*
X171958000Y-93855509D01*
X171735501Y-93877423D01*
X171521553Y-93942324D01*
X171324377Y-94047716D01*
X171194856Y-94154011D01*
X171194854Y-94154013D01*
X171151551Y-94189551D01*
X171116013Y-94232854D01*
X170156864Y-95192005D01*
X170113551Y-95227551D01*
X169971716Y-95400377D01*
X169873575Y-95583988D01*
X169866324Y-95597554D01*
X169801423Y-95811502D01*
X169779509Y-96034000D01*
X169785000Y-96089751D01*
X169785000Y-96341272D01*
X169760537Y-96295506D01*
X169681185Y-96198815D01*
X169584494Y-96119463D01*
X169474180Y-96060498D01*
X169354482Y-96024188D01*
X169230000Y-96011928D01*
X168665750Y-96015000D01*
X168507000Y-96173750D01*
X168507000Y-97373000D01*
X168527000Y-97373000D01*
X168527000Y-97627000D01*
X168507000Y-97627000D01*
X168507000Y-97647000D01*
X168253000Y-97647000D01*
X168253000Y-97627000D01*
X167053750Y-97627000D01*
X166895000Y-97785750D01*
X166891928Y-98350000D01*
X166904188Y-98474482D01*
X166940498Y-98594180D01*
X166999463Y-98704494D01*
X167028602Y-98740000D01*
X164485132Y-98740000D01*
X164847140Y-98377992D01*
X164890449Y-98342449D01*
X165032284Y-98169623D01*
X165137676Y-97972447D01*
X165202577Y-97758499D01*
X165219000Y-97591752D01*
X165224491Y-97536000D01*
X165219000Y-97480249D01*
X165219000Y-96650000D01*
X166891928Y-96650000D01*
X166895000Y-97214250D01*
X167053750Y-97373000D01*
X168253000Y-97373000D01*
X168253000Y-96173750D01*
X168094250Y-96015000D01*
X167530000Y-96011928D01*
X167405518Y-96024188D01*
X167285820Y-96060498D01*
X167175506Y-96119463D01*
X167078815Y-96198815D01*
X166999463Y-96295506D01*
X166940498Y-96405820D01*
X166904188Y-96525518D01*
X166891928Y-96650000D01*
X165219000Y-96650000D01*
X165219000Y-95466131D01*
X166688016Y-93997116D01*
X166799745Y-94031008D01*
X166840425Y-94035015D01*
X166780217Y-94108378D01*
X166674824Y-94305554D01*
X166609923Y-94519502D01*
X166588009Y-94742000D01*
X166609923Y-94964498D01*
X166674824Y-95178446D01*
X166780217Y-95375622D01*
X166922052Y-95548448D01*
X167094878Y-95690283D01*
X167292054Y-95795676D01*
X167506002Y-95860577D01*
X167728500Y-95882491D01*
X167950998Y-95860577D01*
X168164946Y-95795676D01*
X168362122Y-95690283D01*
X168491643Y-95583988D01*
X169823640Y-94251992D01*
X169866949Y-94216449D01*
X170008784Y-94043623D01*
X170114176Y-93846447D01*
X170179077Y-93632498D01*
X170183164Y-93591000D01*
X172064317Y-93591000D01*
X172101463Y-93660494D01*
G37*
%TD.AperFunction*%
D23*
X120176000Y-80402868D02*
X118720360Y-81858509D01*
X118677052Y-81894051D01*
X118535217Y-82066877D01*
X118478884Y-82172270D01*
X118429824Y-82264054D01*
X118364923Y-82478002D01*
X118343009Y-82700500D01*
X118348501Y-82756261D01*
X118348500Y-88723889D01*
X117595599Y-87970988D01*
X117595599Y-80515868D01*
X117653709Y-80536481D01*
X117883600Y-80415814D01*
X117883600Y-79222000D01*
X118137600Y-79222000D01*
X118137600Y-80415814D01*
X118367491Y-80536481D01*
X118641852Y-80439157D01*
X118891955Y-80290178D01*
X119108188Y-80095269D01*
X119282241Y-79861920D01*
X119407425Y-79599099D01*
X119452076Y-79451890D01*
X119330755Y-79222000D01*
X118137600Y-79222000D01*
X117883600Y-79222000D01*
X117863600Y-79222000D01*
X117863600Y-78968000D01*
X117883600Y-78968000D01*
X117883600Y-78948000D01*
X118137600Y-78948000D01*
X118137600Y-78968000D01*
X119330755Y-78968000D01*
X119452076Y-78738110D01*
X119407425Y-78590901D01*
X119282241Y-78328080D01*
X119108188Y-78094731D01*
X118891955Y-77899822D01*
X118775066Y-77830195D01*
X118957232Y-77708475D01*
X118975707Y-77690000D01*
X120176001Y-77690000D01*
X120176000Y-80402868D01*
%TA.AperFunction,Conductor*%
D24*
G36*
X120176000Y-80402868D02*
G01*
X118720360Y-81858509D01*
X118677052Y-81894051D01*
X118535217Y-82066877D01*
X118478884Y-82172270D01*
X118429824Y-82264054D01*
X118364923Y-82478002D01*
X118343009Y-82700500D01*
X118348501Y-82756261D01*
X118348500Y-88723889D01*
X117595599Y-87970988D01*
X117595599Y-80515868D01*
X117653709Y-80536481D01*
X117883600Y-80415814D01*
X117883600Y-79222000D01*
X118137600Y-79222000D01*
X118137600Y-80415814D01*
X118367491Y-80536481D01*
X118641852Y-80439157D01*
X118891955Y-80290178D01*
X119108188Y-80095269D01*
X119282241Y-79861920D01*
X119407425Y-79599099D01*
X119452076Y-79451890D01*
X119330755Y-79222000D01*
X118137600Y-79222000D01*
X117883600Y-79222000D01*
X117863600Y-79222000D01*
X117863600Y-78968000D01*
X117883600Y-78968000D01*
X117883600Y-78948000D01*
X118137600Y-78948000D01*
X118137600Y-78968000D01*
X119330755Y-78968000D01*
X119452076Y-78738110D01*
X119407425Y-78590901D01*
X119282241Y-78328080D01*
X119108188Y-78094731D01*
X118891955Y-77899822D01*
X118775066Y-77830195D01*
X118957232Y-77708475D01*
X118975707Y-77690000D01*
X120176001Y-77690000D01*
X120176000Y-80402868D01*
G37*
%TD.AperFunction*%
D23*
X130322774Y-56181898D02*
X130400795Y-56370256D01*
X130514063Y-56539774D01*
X130658226Y-56683937D01*
X130827744Y-56797205D01*
X131016102Y-56875226D01*
X131216061Y-56915000D01*
X131419939Y-56915000D01*
X131619898Y-56875226D01*
X131808256Y-56797205D01*
X131977774Y-56683937D01*
X132121937Y-56539774D01*
X132235205Y-56370256D01*
X132313226Y-56181898D01*
X132318500Y-56155381D01*
X132318500Y-58721748D01*
X132313009Y-58777500D01*
X132318500Y-58833251D01*
X132334923Y-58999998D01*
X132399824Y-59213946D01*
X132505216Y-59411123D01*
X132647051Y-59583949D01*
X132690365Y-59619496D01*
X134953880Y-61883012D01*
X134948000Y-61882928D01*
X134823518Y-61895188D01*
X134703820Y-61931498D01*
X134593506Y-61990463D01*
X134496815Y-62069815D01*
X134417463Y-62166506D01*
X134358498Y-62276820D01*
X134322188Y-62396518D01*
X134309928Y-62521000D01*
X134313000Y-62960250D01*
X134471750Y-63119000D01*
X135321000Y-63119000D01*
X135321000Y-63099000D01*
X135575000Y-63099000D01*
X135575000Y-63119000D01*
X135595000Y-63119000D01*
X135595000Y-63373000D01*
X135575000Y-63373000D01*
X135575000Y-64447250D01*
X135733750Y-64606000D01*
X135948000Y-64609072D01*
X136072482Y-64596812D01*
X136192180Y-64560502D01*
X136279001Y-64514095D01*
X136279000Y-66985043D01*
X136259506Y-66995463D01*
X136162815Y-67074815D01*
X136083463Y-67171506D01*
X136024498Y-67281820D01*
X135988188Y-67401518D01*
X135975928Y-67526000D01*
X135975928Y-67533215D01*
X135906702Y-67512903D01*
X135093605Y-68326000D01*
X135906702Y-69139097D01*
X135975928Y-69118785D01*
X135975928Y-69126000D01*
X135988188Y-69250482D01*
X136024498Y-69370180D01*
X136083463Y-69480494D01*
X136162815Y-69577185D01*
X136259506Y-69656537D01*
X136279001Y-69666957D01*
X136279000Y-72173868D01*
X133032869Y-75420000D01*
X128221211Y-75420000D01*
X130522003Y-73119209D01*
X130551001Y-73095411D01*
X130645974Y-72979686D01*
X130716546Y-72847657D01*
X130760003Y-72704396D01*
X130771000Y-72592743D01*
X130771000Y-72592734D01*
X130774676Y-72555411D01*
X130771000Y-72518088D01*
X130771000Y-69318702D01*
X134100903Y-69318702D01*
X134172486Y-69562671D01*
X134427996Y-69683571D01*
X134702184Y-69752300D01*
X134984512Y-69766217D01*
X135264130Y-69724787D01*
X135530292Y-69629603D01*
X135655514Y-69562671D01*
X135727097Y-69318702D01*
X134914000Y-68505605D01*
X134100903Y-69318702D01*
X130771000Y-69318702D01*
X130771000Y-68396512D01*
X133473783Y-68396512D01*
X133515213Y-68676130D01*
X133610397Y-68942292D01*
X133677329Y-69067514D01*
X133921298Y-69139097D01*
X134734395Y-68326000D01*
X133921298Y-67512903D01*
X133677329Y-67584486D01*
X133556429Y-67839996D01*
X133487700Y-68114184D01*
X133473783Y-68396512D01*
X130771000Y-68396512D01*
X130771000Y-67583000D01*
X130837939Y-67583000D01*
X131037898Y-67543226D01*
X131226256Y-67465205D01*
X131395774Y-67351937D01*
X131414413Y-67333298D01*
X134100903Y-67333298D01*
X134914000Y-68146395D01*
X135727097Y-67333298D01*
X135655514Y-67089329D01*
X135400004Y-66968429D01*
X135125816Y-66899700D01*
X134843488Y-66885783D01*
X134563870Y-66927213D01*
X134297708Y-67022397D01*
X134172486Y-67089329D01*
X134100903Y-67333298D01*
X131414413Y-67333298D01*
X131539937Y-67207774D01*
X131653205Y-67038256D01*
X131731226Y-66849898D01*
X131771000Y-66649939D01*
X131771000Y-66446061D01*
X131731226Y-66246102D01*
X131653205Y-66057744D01*
X131539937Y-65888226D01*
X131496000Y-65844289D01*
X131496000Y-63971000D01*
X134309928Y-63971000D01*
X134322188Y-64095482D01*
X134358498Y-64215180D01*
X134417463Y-64325494D01*
X134496815Y-64422185D01*
X134593506Y-64501537D01*
X134703820Y-64560502D01*
X134823518Y-64596812D01*
X134948000Y-64609072D01*
X135162250Y-64606000D01*
X135321000Y-64447250D01*
X135321000Y-63373000D01*
X134471750Y-63373000D01*
X134313000Y-63531750D01*
X134309928Y-63971000D01*
X131496000Y-63971000D01*
X131496000Y-59361336D01*
X131554256Y-59337205D01*
X131723774Y-59223937D01*
X131867937Y-59079774D01*
X131981205Y-58910256D01*
X132059226Y-58721898D01*
X132099000Y-58521939D01*
X132099000Y-58318061D01*
X132059226Y-58118102D01*
X131981205Y-57929744D01*
X131867937Y-57760226D01*
X131723774Y-57616063D01*
X131554256Y-57502795D01*
X131365898Y-57424774D01*
X131165939Y-57385000D01*
X131011974Y-57385000D01*
X131006226Y-57356102D01*
X130928205Y-57167744D01*
X130814937Y-56998226D01*
X130670774Y-56854063D01*
X130501256Y-56740795D01*
X130312898Y-56662774D01*
X130112939Y-56623000D01*
X130046000Y-56623000D01*
X130046000Y-56583711D01*
X130089937Y-56539774D01*
X130203205Y-56370256D01*
X130281226Y-56181898D01*
X130302000Y-56077459D01*
X130322774Y-56181898D01*
%TA.AperFunction,Conductor*%
D24*
G36*
X130322774Y-56181898D02*
G01*
X130400795Y-56370256D01*
X130514063Y-56539774D01*
X130658226Y-56683937D01*
X130827744Y-56797205D01*
X131016102Y-56875226D01*
X131216061Y-56915000D01*
X131419939Y-56915000D01*
X131619898Y-56875226D01*
X131808256Y-56797205D01*
X131977774Y-56683937D01*
X132121937Y-56539774D01*
X132235205Y-56370256D01*
X132313226Y-56181898D01*
X132318500Y-56155381D01*
X132318500Y-58721748D01*
X132313009Y-58777500D01*
X132318500Y-58833251D01*
X132334923Y-58999998D01*
X132399824Y-59213946D01*
X132505216Y-59411123D01*
X132647051Y-59583949D01*
X132690365Y-59619496D01*
X134953880Y-61883012D01*
X134948000Y-61882928D01*
X134823518Y-61895188D01*
X134703820Y-61931498D01*
X134593506Y-61990463D01*
X134496815Y-62069815D01*
X134417463Y-62166506D01*
X134358498Y-62276820D01*
X134322188Y-62396518D01*
X134309928Y-62521000D01*
X134313000Y-62960250D01*
X134471750Y-63119000D01*
X135321000Y-63119000D01*
X135321000Y-63099000D01*
X135575000Y-63099000D01*
X135575000Y-63119000D01*
X135595000Y-63119000D01*
X135595000Y-63373000D01*
X135575000Y-63373000D01*
X135575000Y-64447250D01*
X135733750Y-64606000D01*
X135948000Y-64609072D01*
X136072482Y-64596812D01*
X136192180Y-64560502D01*
X136279001Y-64514095D01*
X136279000Y-66985043D01*
X136259506Y-66995463D01*
X136162815Y-67074815D01*
X136083463Y-67171506D01*
X136024498Y-67281820D01*
X135988188Y-67401518D01*
X135975928Y-67526000D01*
X135975928Y-67533215D01*
X135906702Y-67512903D01*
X135093605Y-68326000D01*
X135906702Y-69139097D01*
X135975928Y-69118785D01*
X135975928Y-69126000D01*
X135988188Y-69250482D01*
X136024498Y-69370180D01*
X136083463Y-69480494D01*
X136162815Y-69577185D01*
X136259506Y-69656537D01*
X136279001Y-69666957D01*
X136279000Y-72173868D01*
X133032869Y-75420000D01*
X128221211Y-75420000D01*
X130522003Y-73119209D01*
X130551001Y-73095411D01*
X130645974Y-72979686D01*
X130716546Y-72847657D01*
X130760003Y-72704396D01*
X130771000Y-72592743D01*
X130771000Y-72592734D01*
X130774676Y-72555411D01*
X130771000Y-72518088D01*
X130771000Y-69318702D01*
X134100903Y-69318702D01*
X134172486Y-69562671D01*
X134427996Y-69683571D01*
X134702184Y-69752300D01*
X134984512Y-69766217D01*
X135264130Y-69724787D01*
X135530292Y-69629603D01*
X135655514Y-69562671D01*
X135727097Y-69318702D01*
X134914000Y-68505605D01*
X134100903Y-69318702D01*
X130771000Y-69318702D01*
X130771000Y-68396512D01*
X133473783Y-68396512D01*
X133515213Y-68676130D01*
X133610397Y-68942292D01*
X133677329Y-69067514D01*
X133921298Y-69139097D01*
X134734395Y-68326000D01*
X133921298Y-67512903D01*
X133677329Y-67584486D01*
X133556429Y-67839996D01*
X133487700Y-68114184D01*
X133473783Y-68396512D01*
X130771000Y-68396512D01*
X130771000Y-67583000D01*
X130837939Y-67583000D01*
X131037898Y-67543226D01*
X131226256Y-67465205D01*
X131395774Y-67351937D01*
X131414413Y-67333298D01*
X134100903Y-67333298D01*
X134914000Y-68146395D01*
X135727097Y-67333298D01*
X135655514Y-67089329D01*
X135400004Y-66968429D01*
X135125816Y-66899700D01*
X134843488Y-66885783D01*
X134563870Y-66927213D01*
X134297708Y-67022397D01*
X134172486Y-67089329D01*
X134100903Y-67333298D01*
X131414413Y-67333298D01*
X131539937Y-67207774D01*
X131653205Y-67038256D01*
X131731226Y-66849898D01*
X131771000Y-66649939D01*
X131771000Y-66446061D01*
X131731226Y-66246102D01*
X131653205Y-66057744D01*
X131539937Y-65888226D01*
X131496000Y-65844289D01*
X131496000Y-63971000D01*
X134309928Y-63971000D01*
X134322188Y-64095482D01*
X134358498Y-64215180D01*
X134417463Y-64325494D01*
X134496815Y-64422185D01*
X134593506Y-64501537D01*
X134703820Y-64560502D01*
X134823518Y-64596812D01*
X134948000Y-64609072D01*
X135162250Y-64606000D01*
X135321000Y-64447250D01*
X135321000Y-63373000D01*
X134471750Y-63373000D01*
X134313000Y-63531750D01*
X134309928Y-63971000D01*
X131496000Y-63971000D01*
X131496000Y-59361336D01*
X131554256Y-59337205D01*
X131723774Y-59223937D01*
X131867937Y-59079774D01*
X131981205Y-58910256D01*
X132059226Y-58721898D01*
X132099000Y-58521939D01*
X132099000Y-58318061D01*
X132059226Y-58118102D01*
X131981205Y-57929744D01*
X131867937Y-57760226D01*
X131723774Y-57616063D01*
X131554256Y-57502795D01*
X131365898Y-57424774D01*
X131165939Y-57385000D01*
X131011974Y-57385000D01*
X131006226Y-57356102D01*
X130928205Y-57167744D01*
X130814937Y-56998226D01*
X130670774Y-56854063D01*
X130501256Y-56740795D01*
X130312898Y-56662774D01*
X130112939Y-56623000D01*
X130046000Y-56623000D01*
X130046000Y-56583711D01*
X130089937Y-56539774D01*
X130203205Y-56370256D01*
X130281226Y-56181898D01*
X130302000Y-56077459D01*
X130322774Y-56181898D01*
G37*
%TD.AperFunction*%
D23*
X128526001Y-72329197D02*
X127701199Y-73154000D01*
X124211110Y-73154000D01*
X124194472Y-73099150D01*
X124112405Y-72945614D01*
X124001962Y-72811038D01*
X123867386Y-72700595D01*
X123713850Y-72618528D01*
X123547254Y-72567992D01*
X123374000Y-72550928D01*
X122874000Y-72550928D01*
X122700746Y-72567992D01*
X122534150Y-72618528D01*
X122380614Y-72700595D01*
X122246038Y-72811038D01*
X122174000Y-72898817D01*
X122101962Y-72811038D01*
X121967386Y-72700595D01*
X121937952Y-72684862D01*
X121929546Y-72657151D01*
X121895119Y-72592743D01*
X121858974Y-72525121D01*
X121787799Y-72438395D01*
X121764001Y-72409397D01*
X121735003Y-72385599D01*
X119190895Y-69841492D01*
X119288778Y-69695000D01*
X127877678Y-69695000D01*
X127915000Y-69698676D01*
X127952322Y-69695000D01*
X127952333Y-69695000D01*
X128063986Y-69684003D01*
X128207247Y-69640546D01*
X128339276Y-69569974D01*
X128455001Y-69475001D01*
X128478803Y-69445998D01*
X128526001Y-69398800D01*
X128526001Y-72329197D01*
%TA.AperFunction,Conductor*%
D24*
G36*
X128526001Y-72329197D02*
G01*
X127701199Y-73154000D01*
X124211110Y-73154000D01*
X124194472Y-73099150D01*
X124112405Y-72945614D01*
X124001962Y-72811038D01*
X123867386Y-72700595D01*
X123713850Y-72618528D01*
X123547254Y-72567992D01*
X123374000Y-72550928D01*
X122874000Y-72550928D01*
X122700746Y-72567992D01*
X122534150Y-72618528D01*
X122380614Y-72700595D01*
X122246038Y-72811038D01*
X122174000Y-72898817D01*
X122101962Y-72811038D01*
X121967386Y-72700595D01*
X121937952Y-72684862D01*
X121929546Y-72657151D01*
X121895119Y-72592743D01*
X121858974Y-72525121D01*
X121787799Y-72438395D01*
X121764001Y-72409397D01*
X121735003Y-72385599D01*
X119190895Y-69841492D01*
X119288778Y-69695000D01*
X127877678Y-69695000D01*
X127915000Y-69698676D01*
X127952322Y-69695000D01*
X127952333Y-69695000D01*
X128063986Y-69684003D01*
X128207247Y-69640546D01*
X128339276Y-69569974D01*
X128455001Y-69475001D01*
X128478803Y-69445998D01*
X128526001Y-69398800D01*
X128526001Y-72329197D01*
G37*
%TD.AperFunction*%
D23*
X168846207Y-65012710D02*
X168970617Y-65050450D01*
X169100000Y-65063193D01*
X169132419Y-65060000D01*
X179840001Y-65060000D01*
X179840001Y-69013639D01*
X179833140Y-69008009D01*
X178387996Y-67562865D01*
X178352449Y-67519551D01*
X178179623Y-67377716D01*
X177982447Y-67272324D01*
X177768499Y-67207423D01*
X177601752Y-67191000D01*
X177601751Y-67191000D01*
X177546000Y-67185509D01*
X177490249Y-67191000D01*
X168775000Y-67191000D01*
X168775000Y-64974649D01*
X168846207Y-65012710D01*
%TA.AperFunction,Conductor*%
D24*
G36*
X168846207Y-65012710D02*
G01*
X168970617Y-65050450D01*
X169100000Y-65063193D01*
X169132419Y-65060000D01*
X179840001Y-65060000D01*
X179840001Y-69013639D01*
X179833140Y-69008009D01*
X178387996Y-67562865D01*
X178352449Y-67519551D01*
X178179623Y-67377716D01*
X177982447Y-67272324D01*
X177768499Y-67207423D01*
X177601752Y-67191000D01*
X177601751Y-67191000D01*
X177546000Y-67185509D01*
X177490249Y-67191000D01*
X168775000Y-67191000D01*
X168775000Y-64974649D01*
X168846207Y-65012710D01*
G37*
%TD.AperFunction*%
D23*
X120178528Y-67337851D02*
X120260595Y-67491387D01*
X120371038Y-67625962D01*
X120505613Y-67736405D01*
X120659149Y-67818472D01*
X120825745Y-67869008D01*
X120998999Y-67886072D01*
X121524001Y-67886072D01*
X121697255Y-67869008D01*
X121863851Y-67818472D01*
X122017387Y-67736405D01*
X122151962Y-67625962D01*
X122174000Y-67599109D01*
X122196038Y-67625962D01*
X122330613Y-67736405D01*
X122484149Y-67818472D01*
X122650745Y-67869008D01*
X122823999Y-67886072D01*
X123349001Y-67886072D01*
X123522255Y-67869008D01*
X123688851Y-67818472D01*
X123842387Y-67736405D01*
X123976962Y-67625962D01*
X124087405Y-67491387D01*
X124169472Y-67337851D01*
X124178527Y-67308000D01*
X125923199Y-67308000D01*
X126219000Y-67603802D01*
X126219000Y-67665939D01*
X126258774Y-67865898D01*
X126336795Y-68054256D01*
X126417473Y-68175000D01*
X119288778Y-68175000D01*
X119164075Y-67988368D01*
X119032220Y-67856513D01*
X119104780Y-67834502D01*
X119215094Y-67775537D01*
X119311785Y-67696185D01*
X119391137Y-67599494D01*
X119450102Y-67489180D01*
X119486412Y-67369482D01*
X119492467Y-67308000D01*
X120169473Y-67308000D01*
X120178528Y-67337851D01*
%TA.AperFunction,Conductor*%
D24*
G36*
X120178528Y-67337851D02*
G01*
X120260595Y-67491387D01*
X120371038Y-67625962D01*
X120505613Y-67736405D01*
X120659149Y-67818472D01*
X120825745Y-67869008D01*
X120998999Y-67886072D01*
X121524001Y-67886072D01*
X121697255Y-67869008D01*
X121863851Y-67818472D01*
X122017387Y-67736405D01*
X122151962Y-67625962D01*
X122174000Y-67599109D01*
X122196038Y-67625962D01*
X122330613Y-67736405D01*
X122484149Y-67818472D01*
X122650745Y-67869008D01*
X122823999Y-67886072D01*
X123349001Y-67886072D01*
X123522255Y-67869008D01*
X123688851Y-67818472D01*
X123842387Y-67736405D01*
X123976962Y-67625962D01*
X124087405Y-67491387D01*
X124169472Y-67337851D01*
X124178527Y-67308000D01*
X125923199Y-67308000D01*
X126219000Y-67603802D01*
X126219000Y-67665939D01*
X126258774Y-67865898D01*
X126336795Y-68054256D01*
X126417473Y-68175000D01*
X119288778Y-68175000D01*
X119164075Y-67988368D01*
X119032220Y-67856513D01*
X119104780Y-67834502D01*
X119215094Y-67775537D01*
X119311785Y-67696185D01*
X119391137Y-67599494D01*
X119450102Y-67489180D01*
X119486412Y-67369482D01*
X119492467Y-67308000D01*
X120169473Y-67308000D01*
X120178528Y-67337851D01*
G37*
%TD.AperFunction*%
D23*
X143214063Y-58063774D02*
X143358226Y-58207937D01*
X143527744Y-58321205D01*
X143716102Y-58399226D01*
X143916061Y-58439000D01*
X144119939Y-58439000D01*
X144319898Y-58399226D01*
X144508256Y-58321205D01*
X144677774Y-58207937D01*
X144721711Y-58164000D01*
X153381440Y-58164000D01*
X153393463Y-58186494D01*
X153472815Y-58283185D01*
X153532296Y-58332000D01*
X153472815Y-58380815D01*
X153393463Y-58477506D01*
X153334498Y-58587820D01*
X153311366Y-58664077D01*
X153249724Y-58697026D01*
X153133999Y-58791999D01*
X153110200Y-58820998D01*
X152650998Y-59280201D01*
X152622000Y-59303999D01*
X152598202Y-59332997D01*
X152598201Y-59332998D01*
X152527026Y-59419724D01*
X152456454Y-59551754D01*
X152432112Y-59632001D01*
X152412998Y-59695014D01*
X152402140Y-59805255D01*
X152398324Y-59844000D01*
X152402001Y-59881332D01*
X152402000Y-61617679D01*
X152398324Y-61655002D01*
X152402000Y-61692324D01*
X152402000Y-61692334D01*
X152412997Y-61803987D01*
X152451676Y-61931498D01*
X152456454Y-61947248D01*
X152527026Y-62079278D01*
X152566538Y-62127423D01*
X152621999Y-62195003D01*
X152651002Y-62218805D01*
X153248188Y-62815992D01*
X153271987Y-62844991D01*
X153286282Y-62856723D01*
X153289000Y-63046250D01*
X153447750Y-63205000D01*
X155047000Y-63205000D01*
X155047000Y-63185000D01*
X155301000Y-63185000D01*
X155301000Y-63205000D01*
X155321000Y-63205000D01*
X155321000Y-63459000D01*
X155301000Y-63459000D01*
X155301000Y-64308250D01*
X155459750Y-64467000D01*
X156424000Y-64470072D01*
X156548482Y-64457812D01*
X156668180Y-64421502D01*
X156778494Y-64362537D01*
X156875185Y-64283185D01*
X156954537Y-64186494D01*
X157013502Y-64076180D01*
X157027721Y-64029305D01*
X157090815Y-64106185D01*
X157187506Y-64185537D01*
X157297820Y-64244502D01*
X157417518Y-64280812D01*
X157542000Y-64293072D01*
X157956250Y-64290000D01*
X158115000Y-64131250D01*
X158115000Y-63269500D01*
X158369000Y-63269500D01*
X158369000Y-64131250D01*
X158527750Y-64290000D01*
X158942000Y-64293072D01*
X159066482Y-64280812D01*
X159186180Y-64244502D01*
X159296494Y-64185537D01*
X159393185Y-64106185D01*
X159472537Y-64009494D01*
X159531502Y-63899180D01*
X159567812Y-63779482D01*
X159580072Y-63655000D01*
X159577000Y-63428250D01*
X159418250Y-63269500D01*
X158369000Y-63269500D01*
X158115000Y-63269500D01*
X158095000Y-63269500D01*
X158095000Y-63064990D01*
X161258928Y-63064990D01*
X161258928Y-63188001D01*
X161275992Y-63361255D01*
X161326528Y-63527851D01*
X161408595Y-63681387D01*
X161519038Y-63815962D01*
X161653613Y-63926405D01*
X161807149Y-64008472D01*
X161973745Y-64059008D01*
X162146999Y-64076072D01*
X162672001Y-64076072D01*
X162845255Y-64059008D01*
X163011851Y-64008472D01*
X163165387Y-63926405D01*
X163299962Y-63815962D01*
X163322000Y-63789109D01*
X163344038Y-63815962D01*
X163478613Y-63926405D01*
X163632149Y-64008472D01*
X163798745Y-64059008D01*
X163971999Y-64076072D01*
X164497001Y-64076072D01*
X164670255Y-64059008D01*
X164836851Y-64008472D01*
X164990387Y-63926405D01*
X165124962Y-63815962D01*
X165235405Y-63681387D01*
X165317472Y-63527851D01*
X165368008Y-63361255D01*
X165385072Y-63188001D01*
X165385072Y-62287999D01*
X165368008Y-62114745D01*
X165317472Y-61948149D01*
X165235405Y-61794613D01*
X165124962Y-61660038D01*
X164994500Y-61552970D01*
X164994500Y-61483500D01*
X165796369Y-61483500D01*
X166505000Y-62192132D01*
X166505001Y-67191000D01*
X138754957Y-67191000D01*
X138744537Y-67171506D01*
X138665185Y-67074815D01*
X138568494Y-66995463D01*
X138549000Y-66985043D01*
X138549000Y-64467000D01*
X138692808Y-64467000D01*
X138724000Y-64470072D01*
X141224000Y-64470072D01*
X141348482Y-64457812D01*
X141435928Y-64431286D01*
X141435928Y-65732000D01*
X141448188Y-65856482D01*
X141484498Y-65976180D01*
X141543463Y-66086494D01*
X141622815Y-66183185D01*
X141719506Y-66262537D01*
X141829820Y-66321502D01*
X141949518Y-66357812D01*
X142074000Y-66370072D01*
X143074000Y-66370072D01*
X143198482Y-66357812D01*
X143318180Y-66321502D01*
X143428494Y-66262537D01*
X143525185Y-66183185D01*
X143574000Y-66123704D01*
X143622815Y-66183185D01*
X143719506Y-66262537D01*
X143829820Y-66321502D01*
X143949518Y-66357812D01*
X144074000Y-66370072D01*
X145074000Y-66370072D01*
X145198482Y-66357812D01*
X145318180Y-66321502D01*
X145428494Y-66262537D01*
X145525185Y-66183185D01*
X145574000Y-66123704D01*
X145622815Y-66183185D01*
X145719506Y-66262537D01*
X145829820Y-66321502D01*
X145949518Y-66357812D01*
X146074000Y-66370072D01*
X147074000Y-66370072D01*
X147198482Y-66357812D01*
X147318180Y-66321502D01*
X147428494Y-66262537D01*
X147525185Y-66183185D01*
X147574000Y-66123704D01*
X147622815Y-66183185D01*
X147719506Y-66262537D01*
X147829820Y-66321502D01*
X147949518Y-66357812D01*
X148074000Y-66370072D01*
X149074000Y-66370072D01*
X149198482Y-66357812D01*
X149318180Y-66321502D01*
X149428494Y-66262537D01*
X149525185Y-66183185D01*
X149574000Y-66123704D01*
X149622815Y-66183185D01*
X149719506Y-66262537D01*
X149829820Y-66321502D01*
X149949518Y-66357812D01*
X150074000Y-66370072D01*
X151074000Y-66370072D01*
X151198482Y-66357812D01*
X151318180Y-66321502D01*
X151428494Y-66262537D01*
X151525185Y-66183185D01*
X151574000Y-66123704D01*
X151622815Y-66183185D01*
X151719506Y-66262537D01*
X151829820Y-66321502D01*
X151949518Y-66357812D01*
X152074000Y-66370072D01*
X153074000Y-66370072D01*
X153198482Y-66357812D01*
X153318180Y-66321502D01*
X153428494Y-66262537D01*
X153525185Y-66183185D01*
X153604537Y-66086494D01*
X153663502Y-65976180D01*
X153699812Y-65856482D01*
X153712072Y-65732000D01*
X153712072Y-64431286D01*
X153799518Y-64457812D01*
X153924000Y-64470072D01*
X154888250Y-64467000D01*
X155047000Y-64308250D01*
X155047000Y-63459000D01*
X153498603Y-63459000D01*
X153428494Y-63401463D01*
X153318180Y-63342498D01*
X153198482Y-63306188D01*
X153074000Y-63293928D01*
X152074000Y-63293928D01*
X151949518Y-63306188D01*
X151829820Y-63342498D01*
X151719506Y-63401463D01*
X151622815Y-63480815D01*
X151574000Y-63540296D01*
X151525185Y-63480815D01*
X151428494Y-63401463D01*
X151318180Y-63342498D01*
X151198482Y-63306188D01*
X151074000Y-63293928D01*
X150074000Y-63293928D01*
X149949518Y-63306188D01*
X149829820Y-63342498D01*
X149719506Y-63401463D01*
X149622815Y-63480815D01*
X149574000Y-63540296D01*
X149525185Y-63480815D01*
X149428494Y-63401463D01*
X149318180Y-63342498D01*
X149198482Y-63306188D01*
X149074000Y-63293928D01*
X148074000Y-63293928D01*
X147949518Y-63306188D01*
X147829820Y-63342498D01*
X147719506Y-63401463D01*
X147622815Y-63480815D01*
X147574000Y-63540296D01*
X147525185Y-63480815D01*
X147428494Y-63401463D01*
X147318180Y-63342498D01*
X147198482Y-63306188D01*
X147074000Y-63293928D01*
X146074000Y-63293928D01*
X145949518Y-63306188D01*
X145829820Y-63342498D01*
X145719506Y-63401463D01*
X145622815Y-63480815D01*
X145574000Y-63540296D01*
X145525185Y-63480815D01*
X145428494Y-63401463D01*
X145318180Y-63342498D01*
X145198482Y-63306188D01*
X145074000Y-63293928D01*
X144074000Y-63293928D01*
X143949518Y-63306188D01*
X143829820Y-63342498D01*
X143719506Y-63401463D01*
X143622815Y-63480815D01*
X143574000Y-63540296D01*
X143525185Y-63480815D01*
X143428494Y-63401463D01*
X143318180Y-63342498D01*
X143198482Y-63306188D01*
X143074000Y-63293928D01*
X142074000Y-63293928D01*
X141949518Y-63306188D01*
X141862072Y-63332714D01*
X141862072Y-62832000D01*
X141849812Y-62707518D01*
X141813502Y-62587820D01*
X141754537Y-62477506D01*
X141675185Y-62380815D01*
X141615704Y-62332000D01*
X141675185Y-62283185D01*
X141754537Y-62186494D01*
X141813502Y-62076180D01*
X141849812Y-61956482D01*
X141862072Y-61832000D01*
X141862072Y-60832000D01*
X141849812Y-60707518D01*
X141813502Y-60587820D01*
X141754537Y-60477506D01*
X141675185Y-60380815D01*
X141615704Y-60332000D01*
X141675185Y-60283185D01*
X141754537Y-60186494D01*
X141813502Y-60076180D01*
X141849812Y-59956482D01*
X141862072Y-59832000D01*
X141862072Y-58832000D01*
X141849812Y-58707518D01*
X141818288Y-58603597D01*
X141938102Y-58653226D01*
X142138061Y-58693000D01*
X142341939Y-58693000D01*
X142541898Y-58653226D01*
X142730256Y-58575205D01*
X142899774Y-58461937D01*
X143043937Y-58317774D01*
X143157205Y-58148256D01*
X143200566Y-58043574D01*
X143214063Y-58063774D01*
%TA.AperFunction,Conductor*%
D24*
G36*
X143214063Y-58063774D02*
G01*
X143358226Y-58207937D01*
X143527744Y-58321205D01*
X143716102Y-58399226D01*
X143916061Y-58439000D01*
X144119939Y-58439000D01*
X144319898Y-58399226D01*
X144508256Y-58321205D01*
X144677774Y-58207937D01*
X144721711Y-58164000D01*
X153381440Y-58164000D01*
X153393463Y-58186494D01*
X153472815Y-58283185D01*
X153532296Y-58332000D01*
X153472815Y-58380815D01*
X153393463Y-58477506D01*
X153334498Y-58587820D01*
X153311366Y-58664077D01*
X153249724Y-58697026D01*
X153133999Y-58791999D01*
X153110200Y-58820998D01*
X152650998Y-59280201D01*
X152622000Y-59303999D01*
X152598202Y-59332997D01*
X152598201Y-59332998D01*
X152527026Y-59419724D01*
X152456454Y-59551754D01*
X152432112Y-59632001D01*
X152412998Y-59695014D01*
X152402140Y-59805255D01*
X152398324Y-59844000D01*
X152402001Y-59881332D01*
X152402000Y-61617679D01*
X152398324Y-61655002D01*
X152402000Y-61692324D01*
X152402000Y-61692334D01*
X152412997Y-61803987D01*
X152451676Y-61931498D01*
X152456454Y-61947248D01*
X152527026Y-62079278D01*
X152566538Y-62127423D01*
X152621999Y-62195003D01*
X152651002Y-62218805D01*
X153248188Y-62815992D01*
X153271987Y-62844991D01*
X153286282Y-62856723D01*
X153289000Y-63046250D01*
X153447750Y-63205000D01*
X155047000Y-63205000D01*
X155047000Y-63185000D01*
X155301000Y-63185000D01*
X155301000Y-63205000D01*
X155321000Y-63205000D01*
X155321000Y-63459000D01*
X155301000Y-63459000D01*
X155301000Y-64308250D01*
X155459750Y-64467000D01*
X156424000Y-64470072D01*
X156548482Y-64457812D01*
X156668180Y-64421502D01*
X156778494Y-64362537D01*
X156875185Y-64283185D01*
X156954537Y-64186494D01*
X157013502Y-64076180D01*
X157027721Y-64029305D01*
X157090815Y-64106185D01*
X157187506Y-64185537D01*
X157297820Y-64244502D01*
X157417518Y-64280812D01*
X157542000Y-64293072D01*
X157956250Y-64290000D01*
X158115000Y-64131250D01*
X158115000Y-63269500D01*
X158369000Y-63269500D01*
X158369000Y-64131250D01*
X158527750Y-64290000D01*
X158942000Y-64293072D01*
X159066482Y-64280812D01*
X159186180Y-64244502D01*
X159296494Y-64185537D01*
X159393185Y-64106185D01*
X159472537Y-64009494D01*
X159531502Y-63899180D01*
X159567812Y-63779482D01*
X159580072Y-63655000D01*
X159577000Y-63428250D01*
X159418250Y-63269500D01*
X158369000Y-63269500D01*
X158115000Y-63269500D01*
X158095000Y-63269500D01*
X158095000Y-63064990D01*
X161258928Y-63064990D01*
X161258928Y-63188001D01*
X161275992Y-63361255D01*
X161326528Y-63527851D01*
X161408595Y-63681387D01*
X161519038Y-63815962D01*
X161653613Y-63926405D01*
X161807149Y-64008472D01*
X161973745Y-64059008D01*
X162146999Y-64076072D01*
X162672001Y-64076072D01*
X162845255Y-64059008D01*
X163011851Y-64008472D01*
X163165387Y-63926405D01*
X163299962Y-63815962D01*
X163322000Y-63789109D01*
X163344038Y-63815962D01*
X163478613Y-63926405D01*
X163632149Y-64008472D01*
X163798745Y-64059008D01*
X163971999Y-64076072D01*
X164497001Y-64076072D01*
X164670255Y-64059008D01*
X164836851Y-64008472D01*
X164990387Y-63926405D01*
X165124962Y-63815962D01*
X165235405Y-63681387D01*
X165317472Y-63527851D01*
X165368008Y-63361255D01*
X165385072Y-63188001D01*
X165385072Y-62287999D01*
X165368008Y-62114745D01*
X165317472Y-61948149D01*
X165235405Y-61794613D01*
X165124962Y-61660038D01*
X164994500Y-61552970D01*
X164994500Y-61483500D01*
X165796369Y-61483500D01*
X166505000Y-62192132D01*
X166505001Y-67191000D01*
X138754957Y-67191000D01*
X138744537Y-67171506D01*
X138665185Y-67074815D01*
X138568494Y-66995463D01*
X138549000Y-66985043D01*
X138549000Y-64467000D01*
X138692808Y-64467000D01*
X138724000Y-64470072D01*
X141224000Y-64470072D01*
X141348482Y-64457812D01*
X141435928Y-64431286D01*
X141435928Y-65732000D01*
X141448188Y-65856482D01*
X141484498Y-65976180D01*
X141543463Y-66086494D01*
X141622815Y-66183185D01*
X141719506Y-66262537D01*
X141829820Y-66321502D01*
X141949518Y-66357812D01*
X142074000Y-66370072D01*
X143074000Y-66370072D01*
X143198482Y-66357812D01*
X143318180Y-66321502D01*
X143428494Y-66262537D01*
X143525185Y-66183185D01*
X143574000Y-66123704D01*
X143622815Y-66183185D01*
X143719506Y-66262537D01*
X143829820Y-66321502D01*
X143949518Y-66357812D01*
X144074000Y-66370072D01*
X145074000Y-66370072D01*
X145198482Y-66357812D01*
X145318180Y-66321502D01*
X145428494Y-66262537D01*
X145525185Y-66183185D01*
X145574000Y-66123704D01*
X145622815Y-66183185D01*
X145719506Y-66262537D01*
X145829820Y-66321502D01*
X145949518Y-66357812D01*
X146074000Y-66370072D01*
X147074000Y-66370072D01*
X147198482Y-66357812D01*
X147318180Y-66321502D01*
X147428494Y-66262537D01*
X147525185Y-66183185D01*
X147574000Y-66123704D01*
X147622815Y-66183185D01*
X147719506Y-66262537D01*
X147829820Y-66321502D01*
X147949518Y-66357812D01*
X148074000Y-66370072D01*
X149074000Y-66370072D01*
X149198482Y-66357812D01*
X149318180Y-66321502D01*
X149428494Y-66262537D01*
X149525185Y-66183185D01*
X149574000Y-66123704D01*
X149622815Y-66183185D01*
X149719506Y-66262537D01*
X149829820Y-66321502D01*
X149949518Y-66357812D01*
X150074000Y-66370072D01*
X151074000Y-66370072D01*
X151198482Y-66357812D01*
X151318180Y-66321502D01*
X151428494Y-66262537D01*
X151525185Y-66183185D01*
X151574000Y-66123704D01*
X151622815Y-66183185D01*
X151719506Y-66262537D01*
X151829820Y-66321502D01*
X151949518Y-66357812D01*
X152074000Y-66370072D01*
X153074000Y-66370072D01*
X153198482Y-66357812D01*
X153318180Y-66321502D01*
X153428494Y-66262537D01*
X153525185Y-66183185D01*
X153604537Y-66086494D01*
X153663502Y-65976180D01*
X153699812Y-65856482D01*
X153712072Y-65732000D01*
X153712072Y-64431286D01*
X153799518Y-64457812D01*
X153924000Y-64470072D01*
X154888250Y-64467000D01*
X155047000Y-64308250D01*
X155047000Y-63459000D01*
X153498603Y-63459000D01*
X153428494Y-63401463D01*
X153318180Y-63342498D01*
X153198482Y-63306188D01*
X153074000Y-63293928D01*
X152074000Y-63293928D01*
X151949518Y-63306188D01*
X151829820Y-63342498D01*
X151719506Y-63401463D01*
X151622815Y-63480815D01*
X151574000Y-63540296D01*
X151525185Y-63480815D01*
X151428494Y-63401463D01*
X151318180Y-63342498D01*
X151198482Y-63306188D01*
X151074000Y-63293928D01*
X150074000Y-63293928D01*
X149949518Y-63306188D01*
X149829820Y-63342498D01*
X149719506Y-63401463D01*
X149622815Y-63480815D01*
X149574000Y-63540296D01*
X149525185Y-63480815D01*
X149428494Y-63401463D01*
X149318180Y-63342498D01*
X149198482Y-63306188D01*
X149074000Y-63293928D01*
X148074000Y-63293928D01*
X147949518Y-63306188D01*
X147829820Y-63342498D01*
X147719506Y-63401463D01*
X147622815Y-63480815D01*
X147574000Y-63540296D01*
X147525185Y-63480815D01*
X147428494Y-63401463D01*
X147318180Y-63342498D01*
X147198482Y-63306188D01*
X147074000Y-63293928D01*
X146074000Y-63293928D01*
X145949518Y-63306188D01*
X145829820Y-63342498D01*
X145719506Y-63401463D01*
X145622815Y-63480815D01*
X145574000Y-63540296D01*
X145525185Y-63480815D01*
X145428494Y-63401463D01*
X145318180Y-63342498D01*
X145198482Y-63306188D01*
X145074000Y-63293928D01*
X144074000Y-63293928D01*
X143949518Y-63306188D01*
X143829820Y-63342498D01*
X143719506Y-63401463D01*
X143622815Y-63480815D01*
X143574000Y-63540296D01*
X143525185Y-63480815D01*
X143428494Y-63401463D01*
X143318180Y-63342498D01*
X143198482Y-63306188D01*
X143074000Y-63293928D01*
X142074000Y-63293928D01*
X141949518Y-63306188D01*
X141862072Y-63332714D01*
X141862072Y-62832000D01*
X141849812Y-62707518D01*
X141813502Y-62587820D01*
X141754537Y-62477506D01*
X141675185Y-62380815D01*
X141615704Y-62332000D01*
X141675185Y-62283185D01*
X141754537Y-62186494D01*
X141813502Y-62076180D01*
X141849812Y-61956482D01*
X141862072Y-61832000D01*
X141862072Y-60832000D01*
X141849812Y-60707518D01*
X141813502Y-60587820D01*
X141754537Y-60477506D01*
X141675185Y-60380815D01*
X141615704Y-60332000D01*
X141675185Y-60283185D01*
X141754537Y-60186494D01*
X141813502Y-60076180D01*
X141849812Y-59956482D01*
X141862072Y-59832000D01*
X141862072Y-58832000D01*
X141849812Y-58707518D01*
X141818288Y-58603597D01*
X141938102Y-58653226D01*
X142138061Y-58693000D01*
X142341939Y-58693000D01*
X142541898Y-58653226D01*
X142730256Y-58575205D01*
X142899774Y-58461937D01*
X143043937Y-58317774D01*
X143157205Y-58148256D01*
X143200566Y-58043574D01*
X143214063Y-58063774D01*
G37*
%TD.AperFunction*%
D23*
X127800999Y-66684709D02*
X127744256Y-66646795D01*
X127555898Y-66568774D01*
X127355939Y-66529000D01*
X127293802Y-66529000D01*
X126801804Y-66037002D01*
X126778001Y-66007999D01*
X126662276Y-65913026D01*
X126530247Y-65842454D01*
X126386986Y-65798997D01*
X126275333Y-65788000D01*
X126275322Y-65788000D01*
X126238000Y-65784324D01*
X126200678Y-65788000D01*
X124178527Y-65788000D01*
X124169472Y-65758149D01*
X124087405Y-65604613D01*
X124009766Y-65510010D01*
X127207656Y-65510010D01*
X127244978Y-65513686D01*
X127282300Y-65510010D01*
X127282311Y-65510010D01*
X127393964Y-65499013D01*
X127537225Y-65455556D01*
X127669254Y-65384984D01*
X127784979Y-65290011D01*
X127800999Y-65270490D01*
X127800999Y-66684709D01*
%TA.AperFunction,Conductor*%
D24*
G36*
X127800999Y-66684709D02*
G01*
X127744256Y-66646795D01*
X127555898Y-66568774D01*
X127355939Y-66529000D01*
X127293802Y-66529000D01*
X126801804Y-66037002D01*
X126778001Y-66007999D01*
X126662276Y-65913026D01*
X126530247Y-65842454D01*
X126386986Y-65798997D01*
X126275333Y-65788000D01*
X126275322Y-65788000D01*
X126238000Y-65784324D01*
X126200678Y-65788000D01*
X124178527Y-65788000D01*
X124169472Y-65758149D01*
X124087405Y-65604613D01*
X124009766Y-65510010D01*
X127207656Y-65510010D01*
X127244978Y-65513686D01*
X127282300Y-65510010D01*
X127282311Y-65510010D01*
X127393964Y-65499013D01*
X127537225Y-65455556D01*
X127669254Y-65384984D01*
X127784979Y-65290011D01*
X127800999Y-65270490D01*
X127800999Y-66684709D01*
G37*
%TD.AperFunction*%
D23*
X135988795Y-54627744D02*
X135910774Y-54816102D01*
X135871000Y-55016061D01*
X135871000Y-55219939D01*
X135910774Y-55419898D01*
X135988795Y-55608256D01*
X136102063Y-55777774D01*
X136246226Y-55921937D01*
X136415744Y-56035205D01*
X136604102Y-56113226D01*
X136804061Y-56153000D01*
X137007939Y-56153000D01*
X137207898Y-56113226D01*
X137259142Y-56092000D01*
X138142954Y-56092000D01*
X138193463Y-56186494D01*
X138272815Y-56283185D01*
X138332296Y-56332000D01*
X138272815Y-56380815D01*
X138193463Y-56477506D01*
X138134498Y-56587820D01*
X138098188Y-56707518D01*
X138085928Y-56832000D01*
X138085928Y-57832000D01*
X138098188Y-57956482D01*
X138134498Y-58076180D01*
X138193463Y-58186494D01*
X138272815Y-58283185D01*
X138332296Y-58332000D01*
X138272815Y-58380815D01*
X138193463Y-58477506D01*
X138134498Y-58587820D01*
X138098188Y-58707518D01*
X138085928Y-58832000D01*
X138085928Y-59832000D01*
X138098188Y-59956482D01*
X138134498Y-60076180D01*
X138193463Y-60186494D01*
X138272815Y-60283185D01*
X138332296Y-60332000D01*
X138272815Y-60380815D01*
X138193463Y-60477506D01*
X138134498Y-60587820D01*
X138098188Y-60707518D01*
X138085928Y-60832000D01*
X138085928Y-61804795D01*
X134588500Y-58307369D01*
X134588500Y-54563622D01*
X134676149Y-54610472D01*
X134842745Y-54661008D01*
X135015999Y-54678072D01*
X135541001Y-54678072D01*
X135714255Y-54661008D01*
X135880851Y-54610472D01*
X136034387Y-54528405D01*
X136080406Y-54490638D01*
X135988795Y-54627744D01*
%TA.AperFunction,Conductor*%
D24*
G36*
X135988795Y-54627744D02*
G01*
X135910774Y-54816102D01*
X135871000Y-55016061D01*
X135871000Y-55219939D01*
X135910774Y-55419898D01*
X135988795Y-55608256D01*
X136102063Y-55777774D01*
X136246226Y-55921937D01*
X136415744Y-56035205D01*
X136604102Y-56113226D01*
X136804061Y-56153000D01*
X137007939Y-56153000D01*
X137207898Y-56113226D01*
X137259142Y-56092000D01*
X138142954Y-56092000D01*
X138193463Y-56186494D01*
X138272815Y-56283185D01*
X138332296Y-56332000D01*
X138272815Y-56380815D01*
X138193463Y-56477506D01*
X138134498Y-56587820D01*
X138098188Y-56707518D01*
X138085928Y-56832000D01*
X138085928Y-57832000D01*
X138098188Y-57956482D01*
X138134498Y-58076180D01*
X138193463Y-58186494D01*
X138272815Y-58283185D01*
X138332296Y-58332000D01*
X138272815Y-58380815D01*
X138193463Y-58477506D01*
X138134498Y-58587820D01*
X138098188Y-58707518D01*
X138085928Y-58832000D01*
X138085928Y-59832000D01*
X138098188Y-59956482D01*
X138134498Y-60076180D01*
X138193463Y-60186494D01*
X138272815Y-60283185D01*
X138332296Y-60332000D01*
X138272815Y-60380815D01*
X138193463Y-60477506D01*
X138134498Y-60587820D01*
X138098188Y-60707518D01*
X138085928Y-60832000D01*
X138085928Y-61804795D01*
X134588500Y-58307369D01*
X134588500Y-54563622D01*
X134676149Y-54610472D01*
X134842745Y-54661008D01*
X135015999Y-54678072D01*
X135541001Y-54678072D01*
X135714255Y-54661008D01*
X135880851Y-54610472D01*
X136034387Y-54528405D01*
X136080406Y-54490638D01*
X135988795Y-54627744D01*
G37*
%TD.AperFunction*%
D23*
X168440000Y-60910259D02*
X168403140Y-60880008D01*
X167108496Y-59585365D01*
X167072949Y-59542051D01*
X166900123Y-59400216D01*
X166702947Y-59294824D01*
X166488999Y-59229923D01*
X166322252Y-59213500D01*
X166322251Y-59213500D01*
X166266500Y-59208009D01*
X166210749Y-59213500D01*
X163783622Y-59213500D01*
X163830472Y-59125851D01*
X163881008Y-58959255D01*
X163898072Y-58786001D01*
X163898072Y-58260999D01*
X163881008Y-58087745D01*
X163830472Y-57921149D01*
X163748405Y-57767613D01*
X163637962Y-57633038D01*
X163503387Y-57522595D01*
X163349851Y-57440528D01*
X163320000Y-57431473D01*
X163320000Y-55440313D01*
X163538505Y-55294312D01*
X163752312Y-55080505D01*
X163830000Y-54964237D01*
X163907688Y-55080505D01*
X164121495Y-55294312D01*
X164372905Y-55462299D01*
X164652257Y-55578011D01*
X164948816Y-55637000D01*
X165251184Y-55637000D01*
X165547743Y-55578011D01*
X165827095Y-55462299D01*
X166078505Y-55294312D01*
X166292312Y-55080505D01*
X166460299Y-54829095D01*
X166576011Y-54549743D01*
X166635000Y-54253184D01*
X166635000Y-53950816D01*
X166576011Y-53654257D01*
X166460299Y-53374905D01*
X166292312Y-53123495D01*
X166078505Y-52909688D01*
X165860000Y-52763687D01*
X165860000Y-52615322D01*
X165863676Y-52577999D01*
X165860000Y-52540676D01*
X165860000Y-52540667D01*
X165849003Y-52429014D01*
X165805546Y-52285753D01*
X165734974Y-52153724D01*
X165640001Y-52037999D01*
X165610998Y-52014197D01*
X165409804Y-51813003D01*
X165386001Y-51783999D01*
X165270276Y-51689026D01*
X165138247Y-51618454D01*
X164994986Y-51574997D01*
X164883333Y-51564000D01*
X164883322Y-51564000D01*
X164846000Y-51560324D01*
X164808678Y-51564000D01*
X158279322Y-51564000D01*
X158241999Y-51560324D01*
X158204676Y-51564000D01*
X158204667Y-51564000D01*
X158093014Y-51574997D01*
X157949753Y-51618454D01*
X157817724Y-51689026D01*
X157701999Y-51783999D01*
X157678201Y-51812997D01*
X156975143Y-52516056D01*
X156954537Y-52477506D01*
X156875185Y-52380815D01*
X156815704Y-52332000D01*
X156875185Y-52283185D01*
X156954537Y-52186494D01*
X157013502Y-52076180D01*
X157049812Y-51956482D01*
X157062072Y-51832000D01*
X157062072Y-50832000D01*
X157049812Y-50707518D01*
X157013502Y-50587820D01*
X156954537Y-50477506D01*
X156875185Y-50380815D01*
X156815704Y-50332000D01*
X156875185Y-50283185D01*
X156954537Y-50186494D01*
X157013502Y-50076180D01*
X157049812Y-49956482D01*
X157062072Y-49832000D01*
X157062072Y-49060000D01*
X168440001Y-49060000D01*
X168440000Y-60910259D01*
%TA.AperFunction,Conductor*%
D24*
G36*
X168440000Y-60910259D02*
G01*
X168403140Y-60880008D01*
X167108496Y-59585365D01*
X167072949Y-59542051D01*
X166900123Y-59400216D01*
X166702947Y-59294824D01*
X166488999Y-59229923D01*
X166322252Y-59213500D01*
X166322251Y-59213500D01*
X166266500Y-59208009D01*
X166210749Y-59213500D01*
X163783622Y-59213500D01*
X163830472Y-59125851D01*
X163881008Y-58959255D01*
X163898072Y-58786001D01*
X163898072Y-58260999D01*
X163881008Y-58087745D01*
X163830472Y-57921149D01*
X163748405Y-57767613D01*
X163637962Y-57633038D01*
X163503387Y-57522595D01*
X163349851Y-57440528D01*
X163320000Y-57431473D01*
X163320000Y-55440313D01*
X163538505Y-55294312D01*
X163752312Y-55080505D01*
X163830000Y-54964237D01*
X163907688Y-55080505D01*
X164121495Y-55294312D01*
X164372905Y-55462299D01*
X164652257Y-55578011D01*
X164948816Y-55637000D01*
X165251184Y-55637000D01*
X165547743Y-55578011D01*
X165827095Y-55462299D01*
X166078505Y-55294312D01*
X166292312Y-55080505D01*
X166460299Y-54829095D01*
X166576011Y-54549743D01*
X166635000Y-54253184D01*
X166635000Y-53950816D01*
X166576011Y-53654257D01*
X166460299Y-53374905D01*
X166292312Y-53123495D01*
X166078505Y-52909688D01*
X165860000Y-52763687D01*
X165860000Y-52615322D01*
X165863676Y-52577999D01*
X165860000Y-52540676D01*
X165860000Y-52540667D01*
X165849003Y-52429014D01*
X165805546Y-52285753D01*
X165734974Y-52153724D01*
X165640001Y-52037999D01*
X165610998Y-52014197D01*
X165409804Y-51813003D01*
X165386001Y-51783999D01*
X165270276Y-51689026D01*
X165138247Y-51618454D01*
X164994986Y-51574997D01*
X164883333Y-51564000D01*
X164883322Y-51564000D01*
X164846000Y-51560324D01*
X164808678Y-51564000D01*
X158279322Y-51564000D01*
X158241999Y-51560324D01*
X158204676Y-51564000D01*
X158204667Y-51564000D01*
X158093014Y-51574997D01*
X157949753Y-51618454D01*
X157817724Y-51689026D01*
X157701999Y-51783999D01*
X157678201Y-51812997D01*
X156975143Y-52516056D01*
X156954537Y-52477506D01*
X156875185Y-52380815D01*
X156815704Y-52332000D01*
X156875185Y-52283185D01*
X156954537Y-52186494D01*
X157013502Y-52076180D01*
X157049812Y-51956482D01*
X157062072Y-51832000D01*
X157062072Y-50832000D01*
X157049812Y-50707518D01*
X157013502Y-50587820D01*
X156954537Y-50477506D01*
X156875185Y-50380815D01*
X156815704Y-50332000D01*
X156875185Y-50283185D01*
X156954537Y-50186494D01*
X157013502Y-50076180D01*
X157049812Y-49956482D01*
X157062072Y-49832000D01*
X157062072Y-49060000D01*
X168440001Y-49060000D01*
X168440000Y-60910259D01*
G37*
%TD.AperFunction*%
D23*
X153393463Y-52186494D02*
X153472815Y-52283185D01*
X153532296Y-52332000D01*
X153472815Y-52380815D01*
X153393463Y-52477506D01*
X153334498Y-52587820D01*
X153298188Y-52707518D01*
X153285928Y-52832000D01*
X153285928Y-53832000D01*
X153298188Y-53956482D01*
X153334498Y-54076180D01*
X153393463Y-54186494D01*
X153472815Y-54283185D01*
X153532296Y-54332000D01*
X153472815Y-54380815D01*
X153393463Y-54477506D01*
X153334498Y-54587820D01*
X153298188Y-54707518D01*
X153285928Y-54832000D01*
X153285928Y-55832000D01*
X153298188Y-55956482D01*
X153334498Y-56076180D01*
X153393463Y-56186494D01*
X153472815Y-56283185D01*
X153532296Y-56332000D01*
X153472815Y-56380815D01*
X153393463Y-56477506D01*
X153334498Y-56587820D01*
X153317456Y-56644000D01*
X144721711Y-56644000D01*
X144677774Y-56600063D01*
X144508256Y-56486795D01*
X144319898Y-56408774D01*
X144119939Y-56369000D01*
X144016000Y-56369000D01*
X144016000Y-52638801D01*
X144562802Y-52092000D01*
X153342954Y-52092000D01*
X153393463Y-52186494D01*
%TA.AperFunction,Conductor*%
D24*
G36*
X153393463Y-52186494D02*
G01*
X153472815Y-52283185D01*
X153532296Y-52332000D01*
X153472815Y-52380815D01*
X153393463Y-52477506D01*
X153334498Y-52587820D01*
X153298188Y-52707518D01*
X153285928Y-52832000D01*
X153285928Y-53832000D01*
X153298188Y-53956482D01*
X153334498Y-54076180D01*
X153393463Y-54186494D01*
X153472815Y-54283185D01*
X153532296Y-54332000D01*
X153472815Y-54380815D01*
X153393463Y-54477506D01*
X153334498Y-54587820D01*
X153298188Y-54707518D01*
X153285928Y-54832000D01*
X153285928Y-55832000D01*
X153298188Y-55956482D01*
X153334498Y-56076180D01*
X153393463Y-56186494D01*
X153472815Y-56283185D01*
X153532296Y-56332000D01*
X153472815Y-56380815D01*
X153393463Y-56477506D01*
X153334498Y-56587820D01*
X153317456Y-56644000D01*
X144721711Y-56644000D01*
X144677774Y-56600063D01*
X144508256Y-56486795D01*
X144319898Y-56408774D01*
X144119939Y-56369000D01*
X144016000Y-56369000D01*
X144016000Y-52638801D01*
X144562802Y-52092000D01*
X153342954Y-52092000D01*
X153393463Y-52186494D01*
G37*
%TD.AperFunction*%
D23*
X138272815Y-50283185D02*
X138332296Y-50332000D01*
X138272815Y-50380815D01*
X138193463Y-50477506D01*
X138134498Y-50587820D01*
X138098188Y-50707518D01*
X138085928Y-50832000D01*
X138085928Y-51832000D01*
X138098188Y-51956482D01*
X138134498Y-52076180D01*
X138193463Y-52186494D01*
X138272815Y-52283185D01*
X138332296Y-52332000D01*
X138272815Y-52380815D01*
X138193463Y-52477506D01*
X138138678Y-52580000D01*
X136370527Y-52580000D01*
X136361472Y-52550149D01*
X136279405Y-52396613D01*
X136168962Y-52262038D01*
X136034387Y-52151595D01*
X135880851Y-52069528D01*
X135714255Y-52018992D01*
X135541001Y-52001928D01*
X135015999Y-52001928D01*
X134842745Y-52018992D01*
X134676149Y-52069528D01*
X134522613Y-52151595D01*
X134388038Y-52262038D01*
X134366000Y-52288891D01*
X134343962Y-52262038D01*
X134209387Y-52151595D01*
X134055851Y-52069528D01*
X133889255Y-52018992D01*
X133716001Y-52001928D01*
X133190999Y-52001928D01*
X133017745Y-52018992D01*
X132851149Y-52069528D01*
X132697613Y-52151595D01*
X132646699Y-52193379D01*
X132668812Y-52120482D01*
X132681072Y-51996000D01*
X132678000Y-51781750D01*
X132519250Y-51623000D01*
X131445000Y-51623000D01*
X131445000Y-51643000D01*
X131191000Y-51643000D01*
X131191000Y-51623000D01*
X131171000Y-51623000D01*
X131171000Y-51369000D01*
X131191000Y-51369000D01*
X131191000Y-51349000D01*
X131445000Y-51349000D01*
X131445000Y-51369000D01*
X132519250Y-51369000D01*
X132678000Y-51210250D01*
X132681072Y-50996000D01*
X132677089Y-50955562D01*
X132697613Y-50972405D01*
X132851149Y-51054472D01*
X133017745Y-51105008D01*
X133190999Y-51122072D01*
X133716001Y-51122072D01*
X133889255Y-51105008D01*
X134055851Y-51054472D01*
X134209387Y-50972405D01*
X134343962Y-50861962D01*
X134366000Y-50835109D01*
X134388038Y-50861962D01*
X134522613Y-50972405D01*
X134676149Y-51054472D01*
X134842745Y-51105008D01*
X135015999Y-51122072D01*
X135541001Y-51122072D01*
X135714255Y-51105008D01*
X135880851Y-51054472D01*
X136034387Y-50972405D01*
X136168962Y-50861962D01*
X136279405Y-50727387D01*
X136361472Y-50573851D01*
X136370527Y-50544000D01*
X137630678Y-50544000D01*
X137668000Y-50547676D01*
X137705322Y-50544000D01*
X137705333Y-50544000D01*
X137816986Y-50533003D01*
X137960247Y-50489546D01*
X138092276Y-50418974D01*
X138208001Y-50324001D01*
X138231804Y-50294997D01*
X138259653Y-50267148D01*
X138272815Y-50283185D01*
%TA.AperFunction,Conductor*%
D24*
G36*
X138272815Y-50283185D02*
G01*
X138332296Y-50332000D01*
X138272815Y-50380815D01*
X138193463Y-50477506D01*
X138134498Y-50587820D01*
X138098188Y-50707518D01*
X138085928Y-50832000D01*
X138085928Y-51832000D01*
X138098188Y-51956482D01*
X138134498Y-52076180D01*
X138193463Y-52186494D01*
X138272815Y-52283185D01*
X138332296Y-52332000D01*
X138272815Y-52380815D01*
X138193463Y-52477506D01*
X138138678Y-52580000D01*
X136370527Y-52580000D01*
X136361472Y-52550149D01*
X136279405Y-52396613D01*
X136168962Y-52262038D01*
X136034387Y-52151595D01*
X135880851Y-52069528D01*
X135714255Y-52018992D01*
X135541001Y-52001928D01*
X135015999Y-52001928D01*
X134842745Y-52018992D01*
X134676149Y-52069528D01*
X134522613Y-52151595D01*
X134388038Y-52262038D01*
X134366000Y-52288891D01*
X134343962Y-52262038D01*
X134209387Y-52151595D01*
X134055851Y-52069528D01*
X133889255Y-52018992D01*
X133716001Y-52001928D01*
X133190999Y-52001928D01*
X133017745Y-52018992D01*
X132851149Y-52069528D01*
X132697613Y-52151595D01*
X132646699Y-52193379D01*
X132668812Y-52120482D01*
X132681072Y-51996000D01*
X132678000Y-51781750D01*
X132519250Y-51623000D01*
X131445000Y-51623000D01*
X131445000Y-51643000D01*
X131191000Y-51643000D01*
X131191000Y-51623000D01*
X131171000Y-51623000D01*
X131171000Y-51369000D01*
X131191000Y-51369000D01*
X131191000Y-51349000D01*
X131445000Y-51349000D01*
X131445000Y-51369000D01*
X132519250Y-51369000D01*
X132678000Y-51210250D01*
X132681072Y-50996000D01*
X132677089Y-50955562D01*
X132697613Y-50972405D01*
X132851149Y-51054472D01*
X133017745Y-51105008D01*
X133190999Y-51122072D01*
X133716001Y-51122072D01*
X133889255Y-51105008D01*
X134055851Y-51054472D01*
X134209387Y-50972405D01*
X134343962Y-50861962D01*
X134366000Y-50835109D01*
X134388038Y-50861962D01*
X134522613Y-50972405D01*
X134676149Y-51054472D01*
X134842745Y-51105008D01*
X135015999Y-51122072D01*
X135541001Y-51122072D01*
X135714255Y-51105008D01*
X135880851Y-51054472D01*
X136034387Y-50972405D01*
X136168962Y-50861962D01*
X136279405Y-50727387D01*
X136361472Y-50573851D01*
X136370527Y-50544000D01*
X137630678Y-50544000D01*
X137668000Y-50547676D01*
X137705322Y-50544000D01*
X137705333Y-50544000D01*
X137816986Y-50533003D01*
X137960247Y-50489546D01*
X138092276Y-50418974D01*
X138208001Y-50324001D01*
X138231804Y-50294997D01*
X138259653Y-50267148D01*
X138272815Y-50283185D01*
G37*
%TD.AperFunction*%
D23*
X153393463Y-50186494D02*
X153472815Y-50283185D01*
X153532296Y-50332000D01*
X153472815Y-50380815D01*
X153393463Y-50477506D01*
X153342954Y-50572000D01*
X144285323Y-50572000D01*
X144248000Y-50568324D01*
X144210677Y-50572000D01*
X144210667Y-50572000D01*
X144099014Y-50582997D01*
X143955753Y-50626454D01*
X143823724Y-50697026D01*
X143707999Y-50791999D01*
X143684201Y-50820997D01*
X143000000Y-51505199D01*
X143000000Y-50606801D01*
X143514802Y-50092000D01*
X153342954Y-50092000D01*
X153393463Y-50186494D01*
%TA.AperFunction,Conductor*%
D24*
G36*
X153393463Y-50186494D02*
G01*
X153472815Y-50283185D01*
X153532296Y-50332000D01*
X153472815Y-50380815D01*
X153393463Y-50477506D01*
X153342954Y-50572000D01*
X144285323Y-50572000D01*
X144248000Y-50568324D01*
X144210677Y-50572000D01*
X144210667Y-50572000D01*
X144099014Y-50582997D01*
X143955753Y-50626454D01*
X143823724Y-50697026D01*
X143707999Y-50791999D01*
X143684201Y-50820997D01*
X143000000Y-51505199D01*
X143000000Y-50606801D01*
X143514802Y-50092000D01*
X153342954Y-50092000D01*
X153393463Y-50186494D01*
G37*
%TD.AperFunction*%
%TD*%
M02*
