%TF.GenerationSoftware,KiCad,Pcbnew,5.1.9+dfsg1-1*%
%TF.CreationDate,2021-05-25T15:38:03+02:00*%
%TF.ProjectId,vscp-din-wireless-esp8266,76736370-2d64-4696-9e2d-776972656c65,rev?*%
%TF.SameCoordinates,Original*%
%TF.FileFunction,Copper,L2,Bot*%
%TF.FilePolarity,Positive*%
%FSLAX46Y46*%
G04 Gerber Fmt 4.6, Leading zero omitted, Abs format (unit mm)*
G04 Created by KiCad (PCBNEW 5.1.9+dfsg1-1) date 2021-05-25 15:38:03*
%MOMM*%
%LPD*%
G01*
G04 APERTURE LIST*
%TA.AperFunction,ComponentPad*%
%ADD10R,1.500000X1.050000*%
%TD*%
%TA.AperFunction,ComponentPad*%
%ADD11O,1.500000X1.050000*%
%TD*%
%TA.AperFunction,ComponentPad*%
%ADD12O,1.700000X1.700000*%
%TD*%
%TA.AperFunction,ComponentPad*%
%ADD13R,1.700000X1.700000*%
%TD*%
%TA.AperFunction,ComponentPad*%
%ADD14C,1.800000*%
%TD*%
%TA.AperFunction,ComponentPad*%
%ADD15R,1.800000X1.800000*%
%TD*%
%TA.AperFunction,ComponentPad*%
%ADD16C,1.600000*%
%TD*%
%TA.AperFunction,ComponentPad*%
%ADD17R,1.600000X1.600000*%
%TD*%
%TA.AperFunction,ViaPad*%
%ADD18C,0.800000*%
%TD*%
%TA.AperFunction,Conductor*%
%ADD19C,1.000000*%
%TD*%
%TA.AperFunction,Conductor*%
%ADD20C,0.250000*%
%TD*%
%TA.AperFunction,Conductor*%
%ADD21C,0.254000*%
%TD*%
%TA.AperFunction,Conductor*%
%ADD22C,0.100000*%
%TD*%
G04 APERTURE END LIST*
D10*
%TO.P,Q1,1*%
%TO.N,/RXD*%
X125730000Y-89662000D03*
D11*
%TO.P,Q1,3*%
%TO.N,GND*%
X125730000Y-92202000D03*
%TO.P,Q1,2*%
%TO.N,Net-(J1-Pad3)*%
X125730000Y-90932000D03*
%TD*%
D12*
%TO.P,J4,2*%
%TO.N,VCC*%
X176022000Y-92456000D03*
D13*
%TO.P,J4,1*%
%TO.N,VDD*%
X173482000Y-92456000D03*
%TD*%
D14*
%TO.P,D1,3*%
%TO.N,/ledb*%
X165100000Y-54102000D03*
%TO.P,D1,2*%
%TO.N,Net-(D1-Pad2)*%
X162560000Y-54102000D03*
D15*
%TO.P,D1,1*%
%TO.N,/leda*%
X160020000Y-54102000D03*
%TD*%
D16*
%TO.P,C2,2*%
%TO.N,GND*%
X134914000Y-68326000D03*
D17*
%TO.P,C2,1*%
%TO.N,VCC*%
X137414000Y-68326000D03*
%TD*%
D13*
%TO.P,J1,1*%
%TO.N,VDD*%
X120200000Y-97600000D03*
D12*
%TO.P,J1,2*%
%TO.N,Net-(J1-Pad2)*%
X122740000Y-97600000D03*
%TO.P,J1,3*%
%TO.N,Net-(J1-Pad3)*%
X125280000Y-97600000D03*
%TO.P,J1,4*%
%TO.N,GND*%
X127820000Y-97600000D03*
%TD*%
D13*
%TO.P,J2,1*%
%TO.N,GND*%
X168380000Y-97500000D03*
D12*
%TO.P,J2,2*%
%TO.N,VCC*%
X170920000Y-97500000D03*
%TO.P,J2,3*%
%TO.N,Net-(J2-Pad3)*%
X173460000Y-97500000D03*
%TO.P,J2,4*%
%TO.N,Net-(J2-Pad4)*%
X176000000Y-97500000D03*
%TD*%
D13*
%TO.P,J3,1*%
%TO.N,/FLASH*%
X118010600Y-66395000D03*
D12*
%TO.P,J3,2*%
%TO.N,/TXD*%
X118010600Y-68935000D03*
%TO.P,J3,3*%
%TO.N,/RXD*%
X118010600Y-71475000D03*
%TO.P,J3,4*%
%TO.N,/RESET*%
X118010600Y-74015000D03*
%TO.P,J3,5*%
%TO.N,VCC*%
X118010600Y-76555000D03*
%TO.P,J3,6*%
%TO.N,GND*%
X118010600Y-79095000D03*
%TD*%
D18*
%TO.N,GND*%
X137414000Y-51816000D03*
X144526000Y-59436000D03*
X125222000Y-71374000D03*
X149352000Y-54864000D03*
X167640000Y-57658000D03*
X149606000Y-50292000D03*
X136652000Y-59690000D03*
X125222000Y-67564000D03*
X127254000Y-66040000D03*
X177038000Y-66548000D03*
X178816000Y-94742000D03*
X117856000Y-94996000D03*
%TO.N,VDD*%
X167728500Y-94742000D03*
X133096000Y-93218000D03*
X122023500Y-93876500D03*
%TO.N,Net-(J1-Pad2)*%
X131064000Y-97282000D03*
%TO.N,/TXD*%
X131318000Y-55880000D03*
X142240000Y-55880000D03*
%TO.N,/RXD*%
X142240000Y-57658000D03*
X130011000Y-57658000D03*
%TO.N,Net-(R4-Pad2)*%
X136906000Y-55118000D03*
X129286000Y-55880000D03*
%TO.N,Net-(R5-Pad2)*%
X127254000Y-67564000D03*
X130736000Y-66548000D03*
X131064000Y-58420000D03*
X144018000Y-57404000D03*
%TD*%
D19*
%TO.N,VDD*%
X167728500Y-94742000D02*
X134874000Y-94742000D01*
X133350000Y-93218000D02*
X133096000Y-93218000D01*
X134874000Y-94742000D02*
X133350000Y-93218000D01*
X122023500Y-93876500D02*
X122428000Y-93472000D01*
X133096000Y-93472000D02*
X133350000Y-93218000D01*
X122428000Y-93472000D02*
X133096000Y-93472000D01*
%TO.N,Net-(J1-Pad2)*%
X131064000Y-97282000D02*
X130556000Y-96774000D01*
X130556000Y-96774000D02*
X130556000Y-95758000D01*
X130556000Y-95758000D02*
X129794000Y-94996000D01*
X129794000Y-94996000D02*
X123698000Y-94996000D01*
X122740000Y-95954000D02*
X122740000Y-97600000D01*
X123698000Y-94996000D02*
X122740000Y-95954000D01*
D20*
%TO.N,/TXD*%
X131318000Y-55880000D02*
X142240000Y-55880000D01*
%TO.N,/RXD*%
X142240000Y-57658000D02*
X130048000Y-57658000D01*
X130048000Y-57658000D02*
X130011000Y-57658000D01*
%TO.N,Net-(R4-Pad2)*%
X136906000Y-55118000D02*
X129540000Y-55118000D01*
X129286000Y-55372000D02*
X129286000Y-55880000D01*
X129540000Y-55118000D02*
X129286000Y-55372000D01*
%TO.N,Net-(R5-Pad2)*%
X127254000Y-67564000D02*
X127762000Y-67056000D01*
X130228000Y-67056000D02*
X130736000Y-66548000D01*
X127762000Y-67056000D02*
X130228000Y-67056000D01*
X143002000Y-58420000D02*
X144018000Y-57404000D01*
X131064000Y-58420000D02*
X143002000Y-58420000D01*
%TD*%
D21*
%TO.N,GND*%
X168440000Y-64367581D02*
X168436807Y-64400000D01*
X168449550Y-64529383D01*
X168487290Y-64653793D01*
X168548575Y-64768450D01*
X168631052Y-64868948D01*
X168731550Y-64951425D01*
X168846207Y-65012710D01*
X168970617Y-65050450D01*
X169100000Y-65063193D01*
X169132419Y-65060000D01*
X176243572Y-65060000D01*
X179840001Y-65139921D01*
X179840000Y-98740000D01*
X176817138Y-98740000D01*
X176946632Y-98653475D01*
X177153475Y-98446632D01*
X177315990Y-98203411D01*
X177427932Y-97933158D01*
X177485000Y-97646260D01*
X177485000Y-97353740D01*
X177427932Y-97066842D01*
X177315990Y-96796589D01*
X177153475Y-96553368D01*
X176946632Y-96346525D01*
X176703411Y-96184010D01*
X176433158Y-96072068D01*
X176146260Y-96015000D01*
X175853740Y-96015000D01*
X175566842Y-96072068D01*
X175296589Y-96184010D01*
X175053368Y-96346525D01*
X174846525Y-96553368D01*
X174730000Y-96727760D01*
X174613475Y-96553368D01*
X174406632Y-96346525D01*
X174163411Y-96184010D01*
X173893158Y-96072068D01*
X173606260Y-96015000D01*
X173313740Y-96015000D01*
X173026842Y-96072068D01*
X172756589Y-96184010D01*
X172513368Y-96346525D01*
X172306525Y-96553368D01*
X172190000Y-96727760D01*
X172073475Y-96553368D01*
X171866632Y-96346525D01*
X171623411Y-96184010D01*
X171353158Y-96072068D01*
X171066260Y-96015000D01*
X170773740Y-96015000D01*
X170486842Y-96072068D01*
X170216589Y-96184010D01*
X169973368Y-96346525D01*
X169841513Y-96478380D01*
X169819502Y-96405820D01*
X169760537Y-96295506D01*
X169681185Y-96198815D01*
X169584494Y-96119463D01*
X169474180Y-96060498D01*
X169354482Y-96024188D01*
X169230000Y-96011928D01*
X168665750Y-96015000D01*
X168507000Y-96173750D01*
X168507000Y-97373000D01*
X168527000Y-97373000D01*
X168527000Y-97627000D01*
X168507000Y-97627000D01*
X168507000Y-97647000D01*
X168253000Y-97647000D01*
X168253000Y-97627000D01*
X167053750Y-97627000D01*
X166895000Y-97785750D01*
X166891928Y-98350000D01*
X166904188Y-98474482D01*
X166940498Y-98594180D01*
X166999463Y-98704494D01*
X167028602Y-98740000D01*
X128763408Y-98740000D01*
X128820269Y-98697588D01*
X129015178Y-98481355D01*
X129164157Y-98231252D01*
X129261481Y-97956891D01*
X129140814Y-97727000D01*
X127947000Y-97727000D01*
X127947000Y-97747000D01*
X127693000Y-97747000D01*
X127693000Y-97727000D01*
X127673000Y-97727000D01*
X127673000Y-97473000D01*
X127693000Y-97473000D01*
X127693000Y-97453000D01*
X127947000Y-97453000D01*
X127947000Y-97473000D01*
X129140814Y-97473000D01*
X129261481Y-97243109D01*
X129164157Y-96968748D01*
X129015178Y-96718645D01*
X128820269Y-96502412D01*
X128586920Y-96328359D01*
X128324099Y-96203175D01*
X128176890Y-96158524D01*
X127947002Y-96279844D01*
X127947002Y-96131000D01*
X129323869Y-96131000D01*
X129421000Y-96228132D01*
X129421000Y-96718249D01*
X129415509Y-96774000D01*
X129421000Y-96829751D01*
X129437423Y-96996498D01*
X129502324Y-97210446D01*
X129607716Y-97407623D01*
X129749551Y-97580449D01*
X129792865Y-97615996D01*
X130300857Y-98123988D01*
X130430377Y-98230283D01*
X130627552Y-98335675D01*
X130841500Y-98400576D01*
X131063999Y-98422490D01*
X131286498Y-98400576D01*
X131500446Y-98335675D01*
X131697622Y-98230283D01*
X131870448Y-98088448D01*
X132012283Y-97915622D01*
X132117675Y-97718446D01*
X132182576Y-97504498D01*
X132204490Y-97281999D01*
X132182576Y-97059500D01*
X132117675Y-96845552D01*
X132013151Y-96650000D01*
X166891928Y-96650000D01*
X166895000Y-97214250D01*
X167053750Y-97373000D01*
X168253000Y-97373000D01*
X168253000Y-96173750D01*
X168094250Y-96015000D01*
X167530000Y-96011928D01*
X167405518Y-96024188D01*
X167285820Y-96060498D01*
X167175506Y-96119463D01*
X167078815Y-96198815D01*
X166999463Y-96295506D01*
X166940498Y-96405820D01*
X166904188Y-96525518D01*
X166891928Y-96650000D01*
X132013151Y-96650000D01*
X132012283Y-96648377D01*
X131905988Y-96518857D01*
X131691000Y-96303869D01*
X131691000Y-95813752D01*
X131696491Y-95758000D01*
X131674577Y-95535501D01*
X131609676Y-95321553D01*
X131504284Y-95124377D01*
X131397989Y-94994857D01*
X131362449Y-94951551D01*
X131319140Y-94916008D01*
X131010132Y-94607000D01*
X133040249Y-94607000D01*
X133096000Y-94612491D01*
X133135472Y-94608603D01*
X134032009Y-95505140D01*
X134067551Y-95548449D01*
X134240377Y-95690284D01*
X134437553Y-95795676D01*
X134651501Y-95860577D01*
X134818248Y-95877000D01*
X134818257Y-95877000D01*
X134873999Y-95882490D01*
X134929741Y-95877000D01*
X167784252Y-95877000D01*
X167950999Y-95860577D01*
X168164947Y-95795676D01*
X168362123Y-95690284D01*
X168534949Y-95548449D01*
X168676784Y-95375623D01*
X168782176Y-95178447D01*
X168847077Y-94964499D01*
X168868991Y-94742000D01*
X168847077Y-94519501D01*
X168782176Y-94305553D01*
X168676784Y-94108377D01*
X168534949Y-93935551D01*
X168362123Y-93793716D01*
X168164947Y-93688324D01*
X167950999Y-93623423D01*
X167784252Y-93607000D01*
X135344132Y-93607000D01*
X134191996Y-92454865D01*
X134156449Y-92411551D01*
X133983623Y-92269716D01*
X133786447Y-92164324D01*
X133572499Y-92099423D01*
X133405752Y-92083000D01*
X133405751Y-92083000D01*
X133350000Y-92077509D01*
X133294249Y-92083000D01*
X133040248Y-92083000D01*
X132873501Y-92099423D01*
X132659553Y-92164324D01*
X132462377Y-92269716D01*
X132380391Y-92337000D01*
X126953791Y-92337000D01*
X126948163Y-92329000D01*
X125857000Y-92329000D01*
X125857000Y-92337000D01*
X125603000Y-92337000D01*
X125603000Y-92329000D01*
X124511837Y-92329000D01*
X124506209Y-92337000D01*
X122483741Y-92337000D01*
X122427999Y-92331510D01*
X122372257Y-92337000D01*
X122372248Y-92337000D01*
X122205501Y-92353423D01*
X121991553Y-92418324D01*
X121794377Y-92523716D01*
X121621551Y-92665551D01*
X121586004Y-92708865D01*
X121181512Y-93113357D01*
X121075217Y-93242878D01*
X120969824Y-93440054D01*
X120904923Y-93654002D01*
X120883009Y-93876500D01*
X120904923Y-94098998D01*
X120969824Y-94312946D01*
X121075217Y-94510122D01*
X121217052Y-94682948D01*
X121389878Y-94824783D01*
X121587054Y-94930176D01*
X121801002Y-94995077D01*
X122023500Y-95016991D01*
X122077163Y-95011706D01*
X121976864Y-95112005D01*
X121933551Y-95147551D01*
X121791716Y-95320377D01*
X121686325Y-95517553D01*
X121686324Y-95517554D01*
X121621423Y-95731502D01*
X121599509Y-95954000D01*
X121605000Y-96009751D01*
X121605000Y-96441272D01*
X121580537Y-96395506D01*
X121501185Y-96298815D01*
X121404494Y-96219463D01*
X121294180Y-96160498D01*
X121174482Y-96124188D01*
X121050000Y-96111928D01*
X119350000Y-96111928D01*
X119225518Y-96124188D01*
X119105820Y-96160498D01*
X118995506Y-96219463D01*
X118898815Y-96298815D01*
X118819463Y-96395506D01*
X118760498Y-96505820D01*
X118724188Y-96625518D01*
X118711928Y-96750000D01*
X118711928Y-98450000D01*
X118724188Y-98574482D01*
X118760498Y-98694180D01*
X118763776Y-98700312D01*
X116360000Y-98681234D01*
X116360000Y-90932000D01*
X124339388Y-90932000D01*
X124361785Y-91159400D01*
X124428115Y-91378060D01*
X124528929Y-91566669D01*
X124487725Y-91625118D01*
X124394728Y-91834663D01*
X124386036Y-91896190D01*
X124511837Y-92075000D01*
X125276891Y-92075000D01*
X125277600Y-92075215D01*
X125448021Y-92092000D01*
X126011979Y-92092000D01*
X126182400Y-92075215D01*
X126183109Y-92075000D01*
X126948163Y-92075000D01*
X127073964Y-91896190D01*
X127065272Y-91834663D01*
X126972275Y-91625118D01*
X126958798Y-91606000D01*
X171993928Y-91606000D01*
X171993928Y-93306000D01*
X172006188Y-93430482D01*
X172042498Y-93550180D01*
X172101463Y-93660494D01*
X172180815Y-93757185D01*
X172277506Y-93836537D01*
X172387820Y-93895502D01*
X172507518Y-93931812D01*
X172632000Y-93944072D01*
X174332000Y-93944072D01*
X174456482Y-93931812D01*
X174576180Y-93895502D01*
X174686494Y-93836537D01*
X174783185Y-93757185D01*
X174862537Y-93660494D01*
X174921502Y-93550180D01*
X174943513Y-93477620D01*
X175075368Y-93609475D01*
X175318589Y-93771990D01*
X175588842Y-93883932D01*
X175875740Y-93941000D01*
X176168260Y-93941000D01*
X176455158Y-93883932D01*
X176725411Y-93771990D01*
X176968632Y-93609475D01*
X177175475Y-93402632D01*
X177337990Y-93159411D01*
X177449932Y-92889158D01*
X177507000Y-92602260D01*
X177507000Y-92309740D01*
X177449932Y-92022842D01*
X177337990Y-91752589D01*
X177175475Y-91509368D01*
X176968632Y-91302525D01*
X176725411Y-91140010D01*
X176455158Y-91028068D01*
X176168260Y-90971000D01*
X175875740Y-90971000D01*
X175588842Y-91028068D01*
X175318589Y-91140010D01*
X175075368Y-91302525D01*
X174943513Y-91434380D01*
X174921502Y-91361820D01*
X174862537Y-91251506D01*
X174783185Y-91154815D01*
X174686494Y-91075463D01*
X174576180Y-91016498D01*
X174456482Y-90980188D01*
X174332000Y-90967928D01*
X172632000Y-90967928D01*
X172507518Y-90980188D01*
X172387820Y-91016498D01*
X172277506Y-91075463D01*
X172180815Y-91154815D01*
X172101463Y-91251506D01*
X172042498Y-91361820D01*
X172006188Y-91481518D01*
X171993928Y-91606000D01*
X126958798Y-91606000D01*
X126931071Y-91566669D01*
X127031885Y-91378060D01*
X127098215Y-91159400D01*
X127120612Y-90932000D01*
X127098215Y-90704600D01*
X127034907Y-90495902D01*
X127069502Y-90431180D01*
X127105812Y-90311482D01*
X127118072Y-90187000D01*
X127118072Y-89137000D01*
X127105812Y-89012518D01*
X127069502Y-88892820D01*
X127010537Y-88782506D01*
X126931185Y-88685815D01*
X126834494Y-88606463D01*
X126724180Y-88547498D01*
X126604482Y-88511188D01*
X126480000Y-88498928D01*
X124980000Y-88498928D01*
X124855518Y-88511188D01*
X124735820Y-88547498D01*
X124625506Y-88606463D01*
X124528815Y-88685815D01*
X124449463Y-88782506D01*
X124390498Y-88892820D01*
X124354188Y-89012518D01*
X124341928Y-89137000D01*
X124341928Y-90187000D01*
X124354188Y-90311482D01*
X124390498Y-90431180D01*
X124425093Y-90495902D01*
X124361785Y-90704600D01*
X124339388Y-90932000D01*
X116360000Y-90932000D01*
X116360000Y-79451890D01*
X116569124Y-79451890D01*
X116613775Y-79599099D01*
X116738959Y-79861920D01*
X116913012Y-80095269D01*
X117129245Y-80290178D01*
X117379348Y-80439157D01*
X117653709Y-80536481D01*
X117883600Y-80415814D01*
X117883600Y-79222000D01*
X118137600Y-79222000D01*
X118137600Y-80415814D01*
X118367491Y-80536481D01*
X118641852Y-80439157D01*
X118891955Y-80290178D01*
X119108188Y-80095269D01*
X119282241Y-79861920D01*
X119407425Y-79599099D01*
X119452076Y-79451890D01*
X119330755Y-79222000D01*
X118137600Y-79222000D01*
X117883600Y-79222000D01*
X116690445Y-79222000D01*
X116569124Y-79451890D01*
X116360000Y-79451890D01*
X116360000Y-65060000D01*
X116750619Y-65060000D01*
X116709415Y-65093815D01*
X116630063Y-65190506D01*
X116571098Y-65300820D01*
X116534788Y-65420518D01*
X116522528Y-65545000D01*
X116522528Y-67245000D01*
X116534788Y-67369482D01*
X116571098Y-67489180D01*
X116630063Y-67599494D01*
X116709415Y-67696185D01*
X116806106Y-67775537D01*
X116916420Y-67834502D01*
X116988980Y-67856513D01*
X116857125Y-67988368D01*
X116694610Y-68231589D01*
X116582668Y-68501842D01*
X116525600Y-68788740D01*
X116525600Y-69081260D01*
X116582668Y-69368158D01*
X116694610Y-69638411D01*
X116857125Y-69881632D01*
X117063968Y-70088475D01*
X117238360Y-70205000D01*
X117063968Y-70321525D01*
X116857125Y-70528368D01*
X116694610Y-70771589D01*
X116582668Y-71041842D01*
X116525600Y-71328740D01*
X116525600Y-71621260D01*
X116582668Y-71908158D01*
X116694610Y-72178411D01*
X116857125Y-72421632D01*
X117063968Y-72628475D01*
X117238360Y-72745000D01*
X117063968Y-72861525D01*
X116857125Y-73068368D01*
X116694610Y-73311589D01*
X116582668Y-73581842D01*
X116525600Y-73868740D01*
X116525600Y-74161260D01*
X116582668Y-74448158D01*
X116694610Y-74718411D01*
X116857125Y-74961632D01*
X117063968Y-75168475D01*
X117238360Y-75285000D01*
X117063968Y-75401525D01*
X116857125Y-75608368D01*
X116694610Y-75851589D01*
X116582668Y-76121842D01*
X116525600Y-76408740D01*
X116525600Y-76701260D01*
X116582668Y-76988158D01*
X116694610Y-77258411D01*
X116857125Y-77501632D01*
X117063968Y-77708475D01*
X117246134Y-77830195D01*
X117129245Y-77899822D01*
X116913012Y-78094731D01*
X116738959Y-78328080D01*
X116613775Y-78590901D01*
X116569124Y-78738110D01*
X116690445Y-78968000D01*
X117883600Y-78968000D01*
X117883600Y-78948000D01*
X118137600Y-78948000D01*
X118137600Y-78968000D01*
X119330755Y-78968000D01*
X119452076Y-78738110D01*
X119407425Y-78590901D01*
X119282241Y-78328080D01*
X119108188Y-78094731D01*
X118891955Y-77899822D01*
X118775066Y-77830195D01*
X118957232Y-77708475D01*
X119164075Y-77501632D01*
X119326590Y-77258411D01*
X119438532Y-76988158D01*
X119495600Y-76701260D01*
X119495600Y-76408740D01*
X119438532Y-76121842D01*
X119326590Y-75851589D01*
X119164075Y-75608368D01*
X118957232Y-75401525D01*
X118782840Y-75285000D01*
X118957232Y-75168475D01*
X119164075Y-74961632D01*
X119326590Y-74718411D01*
X119438532Y-74448158D01*
X119495600Y-74161260D01*
X119495600Y-73868740D01*
X119438532Y-73581842D01*
X119326590Y-73311589D01*
X119164075Y-73068368D01*
X118957232Y-72861525D01*
X118782840Y-72745000D01*
X118957232Y-72628475D01*
X119164075Y-72421632D01*
X119326590Y-72178411D01*
X119438532Y-71908158D01*
X119495600Y-71621260D01*
X119495600Y-71328740D01*
X119438532Y-71041842D01*
X119326590Y-70771589D01*
X119164075Y-70528368D01*
X118957232Y-70321525D01*
X118782840Y-70205000D01*
X118957232Y-70088475D01*
X119164075Y-69881632D01*
X119326590Y-69638411D01*
X119438532Y-69368158D01*
X119448369Y-69318702D01*
X134100903Y-69318702D01*
X134172486Y-69562671D01*
X134427996Y-69683571D01*
X134702184Y-69752300D01*
X134984512Y-69766217D01*
X135264130Y-69724787D01*
X135530292Y-69629603D01*
X135655514Y-69562671D01*
X135727097Y-69318702D01*
X134914000Y-68505605D01*
X134100903Y-69318702D01*
X119448369Y-69318702D01*
X119495600Y-69081260D01*
X119495600Y-68788740D01*
X119438532Y-68501842D01*
X119326590Y-68231589D01*
X119164075Y-67988368D01*
X119032220Y-67856513D01*
X119104780Y-67834502D01*
X119215094Y-67775537D01*
X119311785Y-67696185D01*
X119391137Y-67599494D01*
X119450102Y-67489180D01*
X119458328Y-67462061D01*
X126219000Y-67462061D01*
X126219000Y-67665939D01*
X126258774Y-67865898D01*
X126336795Y-68054256D01*
X126450063Y-68223774D01*
X126594226Y-68367937D01*
X126763744Y-68481205D01*
X126952102Y-68559226D01*
X127152061Y-68599000D01*
X127355939Y-68599000D01*
X127555898Y-68559226D01*
X127744256Y-68481205D01*
X127871008Y-68396512D01*
X133473783Y-68396512D01*
X133515213Y-68676130D01*
X133610397Y-68942292D01*
X133677329Y-69067514D01*
X133921298Y-69139097D01*
X134734395Y-68326000D01*
X135093605Y-68326000D01*
X135906702Y-69139097D01*
X135975928Y-69118785D01*
X135975928Y-69126000D01*
X135988188Y-69250482D01*
X136024498Y-69370180D01*
X136083463Y-69480494D01*
X136162815Y-69577185D01*
X136259506Y-69656537D01*
X136369820Y-69715502D01*
X136489518Y-69751812D01*
X136614000Y-69764072D01*
X138214000Y-69764072D01*
X138338482Y-69751812D01*
X138458180Y-69715502D01*
X138568494Y-69656537D01*
X138665185Y-69577185D01*
X138744537Y-69480494D01*
X138803502Y-69370180D01*
X138839812Y-69250482D01*
X138852072Y-69126000D01*
X138852072Y-67526000D01*
X138839812Y-67401518D01*
X138803502Y-67281820D01*
X138744537Y-67171506D01*
X138665185Y-67074815D01*
X138568494Y-66995463D01*
X138458180Y-66936498D01*
X138338482Y-66900188D01*
X138214000Y-66887928D01*
X136614000Y-66887928D01*
X136489518Y-66900188D01*
X136369820Y-66936498D01*
X136259506Y-66995463D01*
X136162815Y-67074815D01*
X136083463Y-67171506D01*
X136024498Y-67281820D01*
X135988188Y-67401518D01*
X135975928Y-67526000D01*
X135975928Y-67533215D01*
X135906702Y-67512903D01*
X135093605Y-68326000D01*
X134734395Y-68326000D01*
X133921298Y-67512903D01*
X133677329Y-67584486D01*
X133556429Y-67839996D01*
X133487700Y-68114184D01*
X133473783Y-68396512D01*
X127871008Y-68396512D01*
X127913774Y-68367937D01*
X128057937Y-68223774D01*
X128171205Y-68054256D01*
X128249226Y-67865898D01*
X128259151Y-67816000D01*
X130190678Y-67816000D01*
X130228000Y-67819676D01*
X130265322Y-67816000D01*
X130265333Y-67816000D01*
X130376986Y-67805003D01*
X130520247Y-67761546D01*
X130652276Y-67690974D01*
X130768001Y-67596001D01*
X130778671Y-67583000D01*
X130837939Y-67583000D01*
X131037898Y-67543226D01*
X131226256Y-67465205D01*
X131395774Y-67351937D01*
X131414413Y-67333298D01*
X134100903Y-67333298D01*
X134914000Y-68146395D01*
X135727097Y-67333298D01*
X135655514Y-67089329D01*
X135400004Y-66968429D01*
X135125816Y-66899700D01*
X134843488Y-66885783D01*
X134563870Y-66927213D01*
X134297708Y-67022397D01*
X134172486Y-67089329D01*
X134100903Y-67333298D01*
X131414413Y-67333298D01*
X131539937Y-67207774D01*
X131653205Y-67038256D01*
X131731226Y-66849898D01*
X131771000Y-66649939D01*
X131771000Y-66446061D01*
X131731226Y-66246102D01*
X131653205Y-66057744D01*
X131539937Y-65888226D01*
X131395774Y-65744063D01*
X131226256Y-65630795D01*
X131037898Y-65552774D01*
X130837939Y-65513000D01*
X130634061Y-65513000D01*
X130434102Y-65552774D01*
X130245744Y-65630795D01*
X130076226Y-65744063D01*
X129932063Y-65888226D01*
X129818795Y-66057744D01*
X129740774Y-66246102D01*
X129730849Y-66296000D01*
X127799322Y-66296000D01*
X127761999Y-66292324D01*
X127724676Y-66296000D01*
X127724667Y-66296000D01*
X127613014Y-66306997D01*
X127469753Y-66350454D01*
X127337724Y-66421026D01*
X127221999Y-66515999D01*
X127211329Y-66529000D01*
X127152061Y-66529000D01*
X126952102Y-66568774D01*
X126763744Y-66646795D01*
X126594226Y-66760063D01*
X126450063Y-66904226D01*
X126336795Y-67073744D01*
X126258774Y-67262102D01*
X126219000Y-67462061D01*
X119458328Y-67462061D01*
X119486412Y-67369482D01*
X119498672Y-67245000D01*
X119498672Y-65545000D01*
X119486412Y-65420518D01*
X119450102Y-65300820D01*
X119391137Y-65190506D01*
X119311785Y-65093815D01*
X119270581Y-65060000D01*
X127067581Y-65060000D01*
X127100000Y-65063193D01*
X127132419Y-65060000D01*
X127229383Y-65050450D01*
X127353793Y-65012710D01*
X127468450Y-64951425D01*
X127540650Y-64892171D01*
X127556601Y-64887333D01*
X127578557Y-64875597D01*
X127597803Y-64859803D01*
X127613597Y-64840557D01*
X127625333Y-64818601D01*
X127632560Y-64794776D01*
X127632934Y-64790982D01*
X127651425Y-64768450D01*
X127712710Y-64653793D01*
X127750450Y-64529383D01*
X127763193Y-64400000D01*
X127760000Y-64367581D01*
X127760000Y-55778061D01*
X128251000Y-55778061D01*
X128251000Y-55981939D01*
X128290774Y-56181898D01*
X128368795Y-56370256D01*
X128482063Y-56539774D01*
X128626226Y-56683937D01*
X128795744Y-56797205D01*
X128984102Y-56875226D01*
X129184061Y-56915000D01*
X129290289Y-56915000D01*
X129207063Y-56998226D01*
X129093795Y-57167744D01*
X129015774Y-57356102D01*
X128976000Y-57556061D01*
X128976000Y-57759939D01*
X129015774Y-57959898D01*
X129093795Y-58148256D01*
X129207063Y-58317774D01*
X129351226Y-58461937D01*
X129520744Y-58575205D01*
X129709102Y-58653226D01*
X129909061Y-58693000D01*
X130063026Y-58693000D01*
X130068774Y-58721898D01*
X130146795Y-58910256D01*
X130260063Y-59079774D01*
X130404226Y-59223937D01*
X130573744Y-59337205D01*
X130762102Y-59415226D01*
X130962061Y-59455000D01*
X131165939Y-59455000D01*
X131365898Y-59415226D01*
X131554256Y-59337205D01*
X131723774Y-59223937D01*
X131767711Y-59180000D01*
X142964678Y-59180000D01*
X143002000Y-59183676D01*
X143039322Y-59180000D01*
X143039333Y-59180000D01*
X143150986Y-59169003D01*
X143294247Y-59125546D01*
X143426276Y-59054974D01*
X143542001Y-58960001D01*
X143565804Y-58930998D01*
X144057802Y-58439000D01*
X144119939Y-58439000D01*
X144319898Y-58399226D01*
X144508256Y-58321205D01*
X144677774Y-58207937D01*
X144821937Y-58063774D01*
X144935205Y-57894256D01*
X145013226Y-57705898D01*
X145053000Y-57505939D01*
X145053000Y-57302061D01*
X145013226Y-57102102D01*
X144935205Y-56913744D01*
X144821937Y-56744226D01*
X144677774Y-56600063D01*
X144508256Y-56486795D01*
X144319898Y-56408774D01*
X144119939Y-56369000D01*
X143916061Y-56369000D01*
X143716102Y-56408774D01*
X143527744Y-56486795D01*
X143358226Y-56600063D01*
X143214063Y-56744226D01*
X143100795Y-56913744D01*
X143057434Y-57018426D01*
X143043937Y-56998226D01*
X142899774Y-56854063D01*
X142772468Y-56769000D01*
X142899774Y-56683937D01*
X143043937Y-56539774D01*
X143157205Y-56370256D01*
X143235226Y-56181898D01*
X143275000Y-55981939D01*
X143275000Y-55778061D01*
X143235226Y-55578102D01*
X143157205Y-55389744D01*
X143043937Y-55220226D01*
X142899774Y-55076063D01*
X142730256Y-54962795D01*
X142541898Y-54884774D01*
X142341939Y-54845000D01*
X142138061Y-54845000D01*
X141938102Y-54884774D01*
X141749744Y-54962795D01*
X141580226Y-55076063D01*
X141536289Y-55120000D01*
X137941000Y-55120000D01*
X137941000Y-55016061D01*
X137901226Y-54816102D01*
X137823205Y-54627744D01*
X137709937Y-54458226D01*
X137565774Y-54314063D01*
X137396256Y-54200795D01*
X137207898Y-54122774D01*
X137007939Y-54083000D01*
X136804061Y-54083000D01*
X136604102Y-54122774D01*
X136415744Y-54200795D01*
X136246226Y-54314063D01*
X136202289Y-54358000D01*
X129577322Y-54358000D01*
X129539999Y-54354324D01*
X129502676Y-54358000D01*
X129502667Y-54358000D01*
X129391014Y-54368997D01*
X129247753Y-54412454D01*
X129115724Y-54483026D01*
X128999999Y-54577999D01*
X128976196Y-54607003D01*
X128775003Y-54808196D01*
X128745999Y-54831999D01*
X128702688Y-54884774D01*
X128651026Y-54947724D01*
X128639646Y-54969015D01*
X128580454Y-55079754D01*
X128562131Y-55140158D01*
X128482063Y-55220226D01*
X128368795Y-55389744D01*
X128290774Y-55578102D01*
X128251000Y-55778061D01*
X127760000Y-55778061D01*
X127760000Y-53202000D01*
X158481928Y-53202000D01*
X158481928Y-55002000D01*
X158494188Y-55126482D01*
X158530498Y-55246180D01*
X158589463Y-55356494D01*
X158668815Y-55453185D01*
X158765506Y-55532537D01*
X158875820Y-55591502D01*
X158995518Y-55627812D01*
X159120000Y-55640072D01*
X160920000Y-55640072D01*
X161044482Y-55627812D01*
X161164180Y-55591502D01*
X161274494Y-55532537D01*
X161371185Y-55453185D01*
X161450537Y-55356494D01*
X161509502Y-55246180D01*
X161515056Y-55227873D01*
X161581495Y-55294312D01*
X161832905Y-55462299D01*
X162112257Y-55578011D01*
X162408816Y-55637000D01*
X162711184Y-55637000D01*
X163007743Y-55578011D01*
X163287095Y-55462299D01*
X163538505Y-55294312D01*
X163752312Y-55080505D01*
X163830000Y-54964237D01*
X163907688Y-55080505D01*
X164121495Y-55294312D01*
X164372905Y-55462299D01*
X164652257Y-55578011D01*
X164948816Y-55637000D01*
X165251184Y-55637000D01*
X165547743Y-55578011D01*
X165827095Y-55462299D01*
X166078505Y-55294312D01*
X166292312Y-55080505D01*
X166460299Y-54829095D01*
X166576011Y-54549743D01*
X166635000Y-54253184D01*
X166635000Y-53950816D01*
X166576011Y-53654257D01*
X166460299Y-53374905D01*
X166292312Y-53123495D01*
X166078505Y-52909688D01*
X165827095Y-52741701D01*
X165547743Y-52625989D01*
X165251184Y-52567000D01*
X164948816Y-52567000D01*
X164652257Y-52625989D01*
X164372905Y-52741701D01*
X164121495Y-52909688D01*
X163907688Y-53123495D01*
X163830000Y-53239763D01*
X163752312Y-53123495D01*
X163538505Y-52909688D01*
X163287095Y-52741701D01*
X163007743Y-52625989D01*
X162711184Y-52567000D01*
X162408816Y-52567000D01*
X162112257Y-52625989D01*
X161832905Y-52741701D01*
X161581495Y-52909688D01*
X161515056Y-52976127D01*
X161509502Y-52957820D01*
X161450537Y-52847506D01*
X161371185Y-52750815D01*
X161274494Y-52671463D01*
X161164180Y-52612498D01*
X161044482Y-52576188D01*
X160920000Y-52563928D01*
X159120000Y-52563928D01*
X158995518Y-52576188D01*
X158875820Y-52612498D01*
X158765506Y-52671463D01*
X158668815Y-52750815D01*
X158589463Y-52847506D01*
X158530498Y-52957820D01*
X158494188Y-53077518D01*
X158481928Y-53202000D01*
X127760000Y-53202000D01*
X127760000Y-49060000D01*
X168440001Y-49060000D01*
X168440000Y-64367581D01*
%TA.AperFunction,Conductor*%
D22*
G36*
X168440000Y-64367581D02*
G01*
X168436807Y-64400000D01*
X168449550Y-64529383D01*
X168487290Y-64653793D01*
X168548575Y-64768450D01*
X168631052Y-64868948D01*
X168731550Y-64951425D01*
X168846207Y-65012710D01*
X168970617Y-65050450D01*
X169100000Y-65063193D01*
X169132419Y-65060000D01*
X176243572Y-65060000D01*
X179840001Y-65139921D01*
X179840000Y-98740000D01*
X176817138Y-98740000D01*
X176946632Y-98653475D01*
X177153475Y-98446632D01*
X177315990Y-98203411D01*
X177427932Y-97933158D01*
X177485000Y-97646260D01*
X177485000Y-97353740D01*
X177427932Y-97066842D01*
X177315990Y-96796589D01*
X177153475Y-96553368D01*
X176946632Y-96346525D01*
X176703411Y-96184010D01*
X176433158Y-96072068D01*
X176146260Y-96015000D01*
X175853740Y-96015000D01*
X175566842Y-96072068D01*
X175296589Y-96184010D01*
X175053368Y-96346525D01*
X174846525Y-96553368D01*
X174730000Y-96727760D01*
X174613475Y-96553368D01*
X174406632Y-96346525D01*
X174163411Y-96184010D01*
X173893158Y-96072068D01*
X173606260Y-96015000D01*
X173313740Y-96015000D01*
X173026842Y-96072068D01*
X172756589Y-96184010D01*
X172513368Y-96346525D01*
X172306525Y-96553368D01*
X172190000Y-96727760D01*
X172073475Y-96553368D01*
X171866632Y-96346525D01*
X171623411Y-96184010D01*
X171353158Y-96072068D01*
X171066260Y-96015000D01*
X170773740Y-96015000D01*
X170486842Y-96072068D01*
X170216589Y-96184010D01*
X169973368Y-96346525D01*
X169841513Y-96478380D01*
X169819502Y-96405820D01*
X169760537Y-96295506D01*
X169681185Y-96198815D01*
X169584494Y-96119463D01*
X169474180Y-96060498D01*
X169354482Y-96024188D01*
X169230000Y-96011928D01*
X168665750Y-96015000D01*
X168507000Y-96173750D01*
X168507000Y-97373000D01*
X168527000Y-97373000D01*
X168527000Y-97627000D01*
X168507000Y-97627000D01*
X168507000Y-97647000D01*
X168253000Y-97647000D01*
X168253000Y-97627000D01*
X167053750Y-97627000D01*
X166895000Y-97785750D01*
X166891928Y-98350000D01*
X166904188Y-98474482D01*
X166940498Y-98594180D01*
X166999463Y-98704494D01*
X167028602Y-98740000D01*
X128763408Y-98740000D01*
X128820269Y-98697588D01*
X129015178Y-98481355D01*
X129164157Y-98231252D01*
X129261481Y-97956891D01*
X129140814Y-97727000D01*
X127947000Y-97727000D01*
X127947000Y-97747000D01*
X127693000Y-97747000D01*
X127693000Y-97727000D01*
X127673000Y-97727000D01*
X127673000Y-97473000D01*
X127693000Y-97473000D01*
X127693000Y-97453000D01*
X127947000Y-97453000D01*
X127947000Y-97473000D01*
X129140814Y-97473000D01*
X129261481Y-97243109D01*
X129164157Y-96968748D01*
X129015178Y-96718645D01*
X128820269Y-96502412D01*
X128586920Y-96328359D01*
X128324099Y-96203175D01*
X128176890Y-96158524D01*
X127947002Y-96279844D01*
X127947002Y-96131000D01*
X129323869Y-96131000D01*
X129421000Y-96228132D01*
X129421000Y-96718249D01*
X129415509Y-96774000D01*
X129421000Y-96829751D01*
X129437423Y-96996498D01*
X129502324Y-97210446D01*
X129607716Y-97407623D01*
X129749551Y-97580449D01*
X129792865Y-97615996D01*
X130300857Y-98123988D01*
X130430377Y-98230283D01*
X130627552Y-98335675D01*
X130841500Y-98400576D01*
X131063999Y-98422490D01*
X131286498Y-98400576D01*
X131500446Y-98335675D01*
X131697622Y-98230283D01*
X131870448Y-98088448D01*
X132012283Y-97915622D01*
X132117675Y-97718446D01*
X132182576Y-97504498D01*
X132204490Y-97281999D01*
X132182576Y-97059500D01*
X132117675Y-96845552D01*
X132013151Y-96650000D01*
X166891928Y-96650000D01*
X166895000Y-97214250D01*
X167053750Y-97373000D01*
X168253000Y-97373000D01*
X168253000Y-96173750D01*
X168094250Y-96015000D01*
X167530000Y-96011928D01*
X167405518Y-96024188D01*
X167285820Y-96060498D01*
X167175506Y-96119463D01*
X167078815Y-96198815D01*
X166999463Y-96295506D01*
X166940498Y-96405820D01*
X166904188Y-96525518D01*
X166891928Y-96650000D01*
X132013151Y-96650000D01*
X132012283Y-96648377D01*
X131905988Y-96518857D01*
X131691000Y-96303869D01*
X131691000Y-95813752D01*
X131696491Y-95758000D01*
X131674577Y-95535501D01*
X131609676Y-95321553D01*
X131504284Y-95124377D01*
X131397989Y-94994857D01*
X131362449Y-94951551D01*
X131319140Y-94916008D01*
X131010132Y-94607000D01*
X133040249Y-94607000D01*
X133096000Y-94612491D01*
X133135472Y-94608603D01*
X134032009Y-95505140D01*
X134067551Y-95548449D01*
X134240377Y-95690284D01*
X134437553Y-95795676D01*
X134651501Y-95860577D01*
X134818248Y-95877000D01*
X134818257Y-95877000D01*
X134873999Y-95882490D01*
X134929741Y-95877000D01*
X167784252Y-95877000D01*
X167950999Y-95860577D01*
X168164947Y-95795676D01*
X168362123Y-95690284D01*
X168534949Y-95548449D01*
X168676784Y-95375623D01*
X168782176Y-95178447D01*
X168847077Y-94964499D01*
X168868991Y-94742000D01*
X168847077Y-94519501D01*
X168782176Y-94305553D01*
X168676784Y-94108377D01*
X168534949Y-93935551D01*
X168362123Y-93793716D01*
X168164947Y-93688324D01*
X167950999Y-93623423D01*
X167784252Y-93607000D01*
X135344132Y-93607000D01*
X134191996Y-92454865D01*
X134156449Y-92411551D01*
X133983623Y-92269716D01*
X133786447Y-92164324D01*
X133572499Y-92099423D01*
X133405752Y-92083000D01*
X133405751Y-92083000D01*
X133350000Y-92077509D01*
X133294249Y-92083000D01*
X133040248Y-92083000D01*
X132873501Y-92099423D01*
X132659553Y-92164324D01*
X132462377Y-92269716D01*
X132380391Y-92337000D01*
X126953791Y-92337000D01*
X126948163Y-92329000D01*
X125857000Y-92329000D01*
X125857000Y-92337000D01*
X125603000Y-92337000D01*
X125603000Y-92329000D01*
X124511837Y-92329000D01*
X124506209Y-92337000D01*
X122483741Y-92337000D01*
X122427999Y-92331510D01*
X122372257Y-92337000D01*
X122372248Y-92337000D01*
X122205501Y-92353423D01*
X121991553Y-92418324D01*
X121794377Y-92523716D01*
X121621551Y-92665551D01*
X121586004Y-92708865D01*
X121181512Y-93113357D01*
X121075217Y-93242878D01*
X120969824Y-93440054D01*
X120904923Y-93654002D01*
X120883009Y-93876500D01*
X120904923Y-94098998D01*
X120969824Y-94312946D01*
X121075217Y-94510122D01*
X121217052Y-94682948D01*
X121389878Y-94824783D01*
X121587054Y-94930176D01*
X121801002Y-94995077D01*
X122023500Y-95016991D01*
X122077163Y-95011706D01*
X121976864Y-95112005D01*
X121933551Y-95147551D01*
X121791716Y-95320377D01*
X121686325Y-95517553D01*
X121686324Y-95517554D01*
X121621423Y-95731502D01*
X121599509Y-95954000D01*
X121605000Y-96009751D01*
X121605000Y-96441272D01*
X121580537Y-96395506D01*
X121501185Y-96298815D01*
X121404494Y-96219463D01*
X121294180Y-96160498D01*
X121174482Y-96124188D01*
X121050000Y-96111928D01*
X119350000Y-96111928D01*
X119225518Y-96124188D01*
X119105820Y-96160498D01*
X118995506Y-96219463D01*
X118898815Y-96298815D01*
X118819463Y-96395506D01*
X118760498Y-96505820D01*
X118724188Y-96625518D01*
X118711928Y-96750000D01*
X118711928Y-98450000D01*
X118724188Y-98574482D01*
X118760498Y-98694180D01*
X118763776Y-98700312D01*
X116360000Y-98681234D01*
X116360000Y-90932000D01*
X124339388Y-90932000D01*
X124361785Y-91159400D01*
X124428115Y-91378060D01*
X124528929Y-91566669D01*
X124487725Y-91625118D01*
X124394728Y-91834663D01*
X124386036Y-91896190D01*
X124511837Y-92075000D01*
X125276891Y-92075000D01*
X125277600Y-92075215D01*
X125448021Y-92092000D01*
X126011979Y-92092000D01*
X126182400Y-92075215D01*
X126183109Y-92075000D01*
X126948163Y-92075000D01*
X127073964Y-91896190D01*
X127065272Y-91834663D01*
X126972275Y-91625118D01*
X126958798Y-91606000D01*
X171993928Y-91606000D01*
X171993928Y-93306000D01*
X172006188Y-93430482D01*
X172042498Y-93550180D01*
X172101463Y-93660494D01*
X172180815Y-93757185D01*
X172277506Y-93836537D01*
X172387820Y-93895502D01*
X172507518Y-93931812D01*
X172632000Y-93944072D01*
X174332000Y-93944072D01*
X174456482Y-93931812D01*
X174576180Y-93895502D01*
X174686494Y-93836537D01*
X174783185Y-93757185D01*
X174862537Y-93660494D01*
X174921502Y-93550180D01*
X174943513Y-93477620D01*
X175075368Y-93609475D01*
X175318589Y-93771990D01*
X175588842Y-93883932D01*
X175875740Y-93941000D01*
X176168260Y-93941000D01*
X176455158Y-93883932D01*
X176725411Y-93771990D01*
X176968632Y-93609475D01*
X177175475Y-93402632D01*
X177337990Y-93159411D01*
X177449932Y-92889158D01*
X177507000Y-92602260D01*
X177507000Y-92309740D01*
X177449932Y-92022842D01*
X177337990Y-91752589D01*
X177175475Y-91509368D01*
X176968632Y-91302525D01*
X176725411Y-91140010D01*
X176455158Y-91028068D01*
X176168260Y-90971000D01*
X175875740Y-90971000D01*
X175588842Y-91028068D01*
X175318589Y-91140010D01*
X175075368Y-91302525D01*
X174943513Y-91434380D01*
X174921502Y-91361820D01*
X174862537Y-91251506D01*
X174783185Y-91154815D01*
X174686494Y-91075463D01*
X174576180Y-91016498D01*
X174456482Y-90980188D01*
X174332000Y-90967928D01*
X172632000Y-90967928D01*
X172507518Y-90980188D01*
X172387820Y-91016498D01*
X172277506Y-91075463D01*
X172180815Y-91154815D01*
X172101463Y-91251506D01*
X172042498Y-91361820D01*
X172006188Y-91481518D01*
X171993928Y-91606000D01*
X126958798Y-91606000D01*
X126931071Y-91566669D01*
X127031885Y-91378060D01*
X127098215Y-91159400D01*
X127120612Y-90932000D01*
X127098215Y-90704600D01*
X127034907Y-90495902D01*
X127069502Y-90431180D01*
X127105812Y-90311482D01*
X127118072Y-90187000D01*
X127118072Y-89137000D01*
X127105812Y-89012518D01*
X127069502Y-88892820D01*
X127010537Y-88782506D01*
X126931185Y-88685815D01*
X126834494Y-88606463D01*
X126724180Y-88547498D01*
X126604482Y-88511188D01*
X126480000Y-88498928D01*
X124980000Y-88498928D01*
X124855518Y-88511188D01*
X124735820Y-88547498D01*
X124625506Y-88606463D01*
X124528815Y-88685815D01*
X124449463Y-88782506D01*
X124390498Y-88892820D01*
X124354188Y-89012518D01*
X124341928Y-89137000D01*
X124341928Y-90187000D01*
X124354188Y-90311482D01*
X124390498Y-90431180D01*
X124425093Y-90495902D01*
X124361785Y-90704600D01*
X124339388Y-90932000D01*
X116360000Y-90932000D01*
X116360000Y-79451890D01*
X116569124Y-79451890D01*
X116613775Y-79599099D01*
X116738959Y-79861920D01*
X116913012Y-80095269D01*
X117129245Y-80290178D01*
X117379348Y-80439157D01*
X117653709Y-80536481D01*
X117883600Y-80415814D01*
X117883600Y-79222000D01*
X118137600Y-79222000D01*
X118137600Y-80415814D01*
X118367491Y-80536481D01*
X118641852Y-80439157D01*
X118891955Y-80290178D01*
X119108188Y-80095269D01*
X119282241Y-79861920D01*
X119407425Y-79599099D01*
X119452076Y-79451890D01*
X119330755Y-79222000D01*
X118137600Y-79222000D01*
X117883600Y-79222000D01*
X116690445Y-79222000D01*
X116569124Y-79451890D01*
X116360000Y-79451890D01*
X116360000Y-65060000D01*
X116750619Y-65060000D01*
X116709415Y-65093815D01*
X116630063Y-65190506D01*
X116571098Y-65300820D01*
X116534788Y-65420518D01*
X116522528Y-65545000D01*
X116522528Y-67245000D01*
X116534788Y-67369482D01*
X116571098Y-67489180D01*
X116630063Y-67599494D01*
X116709415Y-67696185D01*
X116806106Y-67775537D01*
X116916420Y-67834502D01*
X116988980Y-67856513D01*
X116857125Y-67988368D01*
X116694610Y-68231589D01*
X116582668Y-68501842D01*
X116525600Y-68788740D01*
X116525600Y-69081260D01*
X116582668Y-69368158D01*
X116694610Y-69638411D01*
X116857125Y-69881632D01*
X117063968Y-70088475D01*
X117238360Y-70205000D01*
X117063968Y-70321525D01*
X116857125Y-70528368D01*
X116694610Y-70771589D01*
X116582668Y-71041842D01*
X116525600Y-71328740D01*
X116525600Y-71621260D01*
X116582668Y-71908158D01*
X116694610Y-72178411D01*
X116857125Y-72421632D01*
X117063968Y-72628475D01*
X117238360Y-72745000D01*
X117063968Y-72861525D01*
X116857125Y-73068368D01*
X116694610Y-73311589D01*
X116582668Y-73581842D01*
X116525600Y-73868740D01*
X116525600Y-74161260D01*
X116582668Y-74448158D01*
X116694610Y-74718411D01*
X116857125Y-74961632D01*
X117063968Y-75168475D01*
X117238360Y-75285000D01*
X117063968Y-75401525D01*
X116857125Y-75608368D01*
X116694610Y-75851589D01*
X116582668Y-76121842D01*
X116525600Y-76408740D01*
X116525600Y-76701260D01*
X116582668Y-76988158D01*
X116694610Y-77258411D01*
X116857125Y-77501632D01*
X117063968Y-77708475D01*
X117246134Y-77830195D01*
X117129245Y-77899822D01*
X116913012Y-78094731D01*
X116738959Y-78328080D01*
X116613775Y-78590901D01*
X116569124Y-78738110D01*
X116690445Y-78968000D01*
X117883600Y-78968000D01*
X117883600Y-78948000D01*
X118137600Y-78948000D01*
X118137600Y-78968000D01*
X119330755Y-78968000D01*
X119452076Y-78738110D01*
X119407425Y-78590901D01*
X119282241Y-78328080D01*
X119108188Y-78094731D01*
X118891955Y-77899822D01*
X118775066Y-77830195D01*
X118957232Y-77708475D01*
X119164075Y-77501632D01*
X119326590Y-77258411D01*
X119438532Y-76988158D01*
X119495600Y-76701260D01*
X119495600Y-76408740D01*
X119438532Y-76121842D01*
X119326590Y-75851589D01*
X119164075Y-75608368D01*
X118957232Y-75401525D01*
X118782840Y-75285000D01*
X118957232Y-75168475D01*
X119164075Y-74961632D01*
X119326590Y-74718411D01*
X119438532Y-74448158D01*
X119495600Y-74161260D01*
X119495600Y-73868740D01*
X119438532Y-73581842D01*
X119326590Y-73311589D01*
X119164075Y-73068368D01*
X118957232Y-72861525D01*
X118782840Y-72745000D01*
X118957232Y-72628475D01*
X119164075Y-72421632D01*
X119326590Y-72178411D01*
X119438532Y-71908158D01*
X119495600Y-71621260D01*
X119495600Y-71328740D01*
X119438532Y-71041842D01*
X119326590Y-70771589D01*
X119164075Y-70528368D01*
X118957232Y-70321525D01*
X118782840Y-70205000D01*
X118957232Y-70088475D01*
X119164075Y-69881632D01*
X119326590Y-69638411D01*
X119438532Y-69368158D01*
X119448369Y-69318702D01*
X134100903Y-69318702D01*
X134172486Y-69562671D01*
X134427996Y-69683571D01*
X134702184Y-69752300D01*
X134984512Y-69766217D01*
X135264130Y-69724787D01*
X135530292Y-69629603D01*
X135655514Y-69562671D01*
X135727097Y-69318702D01*
X134914000Y-68505605D01*
X134100903Y-69318702D01*
X119448369Y-69318702D01*
X119495600Y-69081260D01*
X119495600Y-68788740D01*
X119438532Y-68501842D01*
X119326590Y-68231589D01*
X119164075Y-67988368D01*
X119032220Y-67856513D01*
X119104780Y-67834502D01*
X119215094Y-67775537D01*
X119311785Y-67696185D01*
X119391137Y-67599494D01*
X119450102Y-67489180D01*
X119458328Y-67462061D01*
X126219000Y-67462061D01*
X126219000Y-67665939D01*
X126258774Y-67865898D01*
X126336795Y-68054256D01*
X126450063Y-68223774D01*
X126594226Y-68367937D01*
X126763744Y-68481205D01*
X126952102Y-68559226D01*
X127152061Y-68599000D01*
X127355939Y-68599000D01*
X127555898Y-68559226D01*
X127744256Y-68481205D01*
X127871008Y-68396512D01*
X133473783Y-68396512D01*
X133515213Y-68676130D01*
X133610397Y-68942292D01*
X133677329Y-69067514D01*
X133921298Y-69139097D01*
X134734395Y-68326000D01*
X135093605Y-68326000D01*
X135906702Y-69139097D01*
X135975928Y-69118785D01*
X135975928Y-69126000D01*
X135988188Y-69250482D01*
X136024498Y-69370180D01*
X136083463Y-69480494D01*
X136162815Y-69577185D01*
X136259506Y-69656537D01*
X136369820Y-69715502D01*
X136489518Y-69751812D01*
X136614000Y-69764072D01*
X138214000Y-69764072D01*
X138338482Y-69751812D01*
X138458180Y-69715502D01*
X138568494Y-69656537D01*
X138665185Y-69577185D01*
X138744537Y-69480494D01*
X138803502Y-69370180D01*
X138839812Y-69250482D01*
X138852072Y-69126000D01*
X138852072Y-67526000D01*
X138839812Y-67401518D01*
X138803502Y-67281820D01*
X138744537Y-67171506D01*
X138665185Y-67074815D01*
X138568494Y-66995463D01*
X138458180Y-66936498D01*
X138338482Y-66900188D01*
X138214000Y-66887928D01*
X136614000Y-66887928D01*
X136489518Y-66900188D01*
X136369820Y-66936498D01*
X136259506Y-66995463D01*
X136162815Y-67074815D01*
X136083463Y-67171506D01*
X136024498Y-67281820D01*
X135988188Y-67401518D01*
X135975928Y-67526000D01*
X135975928Y-67533215D01*
X135906702Y-67512903D01*
X135093605Y-68326000D01*
X134734395Y-68326000D01*
X133921298Y-67512903D01*
X133677329Y-67584486D01*
X133556429Y-67839996D01*
X133487700Y-68114184D01*
X133473783Y-68396512D01*
X127871008Y-68396512D01*
X127913774Y-68367937D01*
X128057937Y-68223774D01*
X128171205Y-68054256D01*
X128249226Y-67865898D01*
X128259151Y-67816000D01*
X130190678Y-67816000D01*
X130228000Y-67819676D01*
X130265322Y-67816000D01*
X130265333Y-67816000D01*
X130376986Y-67805003D01*
X130520247Y-67761546D01*
X130652276Y-67690974D01*
X130768001Y-67596001D01*
X130778671Y-67583000D01*
X130837939Y-67583000D01*
X131037898Y-67543226D01*
X131226256Y-67465205D01*
X131395774Y-67351937D01*
X131414413Y-67333298D01*
X134100903Y-67333298D01*
X134914000Y-68146395D01*
X135727097Y-67333298D01*
X135655514Y-67089329D01*
X135400004Y-66968429D01*
X135125816Y-66899700D01*
X134843488Y-66885783D01*
X134563870Y-66927213D01*
X134297708Y-67022397D01*
X134172486Y-67089329D01*
X134100903Y-67333298D01*
X131414413Y-67333298D01*
X131539937Y-67207774D01*
X131653205Y-67038256D01*
X131731226Y-66849898D01*
X131771000Y-66649939D01*
X131771000Y-66446061D01*
X131731226Y-66246102D01*
X131653205Y-66057744D01*
X131539937Y-65888226D01*
X131395774Y-65744063D01*
X131226256Y-65630795D01*
X131037898Y-65552774D01*
X130837939Y-65513000D01*
X130634061Y-65513000D01*
X130434102Y-65552774D01*
X130245744Y-65630795D01*
X130076226Y-65744063D01*
X129932063Y-65888226D01*
X129818795Y-66057744D01*
X129740774Y-66246102D01*
X129730849Y-66296000D01*
X127799322Y-66296000D01*
X127761999Y-66292324D01*
X127724676Y-66296000D01*
X127724667Y-66296000D01*
X127613014Y-66306997D01*
X127469753Y-66350454D01*
X127337724Y-66421026D01*
X127221999Y-66515999D01*
X127211329Y-66529000D01*
X127152061Y-66529000D01*
X126952102Y-66568774D01*
X126763744Y-66646795D01*
X126594226Y-66760063D01*
X126450063Y-66904226D01*
X126336795Y-67073744D01*
X126258774Y-67262102D01*
X126219000Y-67462061D01*
X119458328Y-67462061D01*
X119486412Y-67369482D01*
X119498672Y-67245000D01*
X119498672Y-65545000D01*
X119486412Y-65420518D01*
X119450102Y-65300820D01*
X119391137Y-65190506D01*
X119311785Y-65093815D01*
X119270581Y-65060000D01*
X127067581Y-65060000D01*
X127100000Y-65063193D01*
X127132419Y-65060000D01*
X127229383Y-65050450D01*
X127353793Y-65012710D01*
X127468450Y-64951425D01*
X127540650Y-64892171D01*
X127556601Y-64887333D01*
X127578557Y-64875597D01*
X127597803Y-64859803D01*
X127613597Y-64840557D01*
X127625333Y-64818601D01*
X127632560Y-64794776D01*
X127632934Y-64790982D01*
X127651425Y-64768450D01*
X127712710Y-64653793D01*
X127750450Y-64529383D01*
X127763193Y-64400000D01*
X127760000Y-64367581D01*
X127760000Y-55778061D01*
X128251000Y-55778061D01*
X128251000Y-55981939D01*
X128290774Y-56181898D01*
X128368795Y-56370256D01*
X128482063Y-56539774D01*
X128626226Y-56683937D01*
X128795744Y-56797205D01*
X128984102Y-56875226D01*
X129184061Y-56915000D01*
X129290289Y-56915000D01*
X129207063Y-56998226D01*
X129093795Y-57167744D01*
X129015774Y-57356102D01*
X128976000Y-57556061D01*
X128976000Y-57759939D01*
X129015774Y-57959898D01*
X129093795Y-58148256D01*
X129207063Y-58317774D01*
X129351226Y-58461937D01*
X129520744Y-58575205D01*
X129709102Y-58653226D01*
X129909061Y-58693000D01*
X130063026Y-58693000D01*
X130068774Y-58721898D01*
X130146795Y-58910256D01*
X130260063Y-59079774D01*
X130404226Y-59223937D01*
X130573744Y-59337205D01*
X130762102Y-59415226D01*
X130962061Y-59455000D01*
X131165939Y-59455000D01*
X131365898Y-59415226D01*
X131554256Y-59337205D01*
X131723774Y-59223937D01*
X131767711Y-59180000D01*
X142964678Y-59180000D01*
X143002000Y-59183676D01*
X143039322Y-59180000D01*
X143039333Y-59180000D01*
X143150986Y-59169003D01*
X143294247Y-59125546D01*
X143426276Y-59054974D01*
X143542001Y-58960001D01*
X143565804Y-58930998D01*
X144057802Y-58439000D01*
X144119939Y-58439000D01*
X144319898Y-58399226D01*
X144508256Y-58321205D01*
X144677774Y-58207937D01*
X144821937Y-58063774D01*
X144935205Y-57894256D01*
X145013226Y-57705898D01*
X145053000Y-57505939D01*
X145053000Y-57302061D01*
X145013226Y-57102102D01*
X144935205Y-56913744D01*
X144821937Y-56744226D01*
X144677774Y-56600063D01*
X144508256Y-56486795D01*
X144319898Y-56408774D01*
X144119939Y-56369000D01*
X143916061Y-56369000D01*
X143716102Y-56408774D01*
X143527744Y-56486795D01*
X143358226Y-56600063D01*
X143214063Y-56744226D01*
X143100795Y-56913744D01*
X143057434Y-57018426D01*
X143043937Y-56998226D01*
X142899774Y-56854063D01*
X142772468Y-56769000D01*
X142899774Y-56683937D01*
X143043937Y-56539774D01*
X143157205Y-56370256D01*
X143235226Y-56181898D01*
X143275000Y-55981939D01*
X143275000Y-55778061D01*
X143235226Y-55578102D01*
X143157205Y-55389744D01*
X143043937Y-55220226D01*
X142899774Y-55076063D01*
X142730256Y-54962795D01*
X142541898Y-54884774D01*
X142341939Y-54845000D01*
X142138061Y-54845000D01*
X141938102Y-54884774D01*
X141749744Y-54962795D01*
X141580226Y-55076063D01*
X141536289Y-55120000D01*
X137941000Y-55120000D01*
X137941000Y-55016061D01*
X137901226Y-54816102D01*
X137823205Y-54627744D01*
X137709937Y-54458226D01*
X137565774Y-54314063D01*
X137396256Y-54200795D01*
X137207898Y-54122774D01*
X137007939Y-54083000D01*
X136804061Y-54083000D01*
X136604102Y-54122774D01*
X136415744Y-54200795D01*
X136246226Y-54314063D01*
X136202289Y-54358000D01*
X129577322Y-54358000D01*
X129539999Y-54354324D01*
X129502676Y-54358000D01*
X129502667Y-54358000D01*
X129391014Y-54368997D01*
X129247753Y-54412454D01*
X129115724Y-54483026D01*
X128999999Y-54577999D01*
X128976196Y-54607003D01*
X128775003Y-54808196D01*
X128745999Y-54831999D01*
X128702688Y-54884774D01*
X128651026Y-54947724D01*
X128639646Y-54969015D01*
X128580454Y-55079754D01*
X128562131Y-55140158D01*
X128482063Y-55220226D01*
X128368795Y-55389744D01*
X128290774Y-55578102D01*
X128251000Y-55778061D01*
X127760000Y-55778061D01*
X127760000Y-53202000D01*
X158481928Y-53202000D01*
X158481928Y-55002000D01*
X158494188Y-55126482D01*
X158530498Y-55246180D01*
X158589463Y-55356494D01*
X158668815Y-55453185D01*
X158765506Y-55532537D01*
X158875820Y-55591502D01*
X158995518Y-55627812D01*
X159120000Y-55640072D01*
X160920000Y-55640072D01*
X161044482Y-55627812D01*
X161164180Y-55591502D01*
X161274494Y-55532537D01*
X161371185Y-55453185D01*
X161450537Y-55356494D01*
X161509502Y-55246180D01*
X161515056Y-55227873D01*
X161581495Y-55294312D01*
X161832905Y-55462299D01*
X162112257Y-55578011D01*
X162408816Y-55637000D01*
X162711184Y-55637000D01*
X163007743Y-55578011D01*
X163287095Y-55462299D01*
X163538505Y-55294312D01*
X163752312Y-55080505D01*
X163830000Y-54964237D01*
X163907688Y-55080505D01*
X164121495Y-55294312D01*
X164372905Y-55462299D01*
X164652257Y-55578011D01*
X164948816Y-55637000D01*
X165251184Y-55637000D01*
X165547743Y-55578011D01*
X165827095Y-55462299D01*
X166078505Y-55294312D01*
X166292312Y-55080505D01*
X166460299Y-54829095D01*
X166576011Y-54549743D01*
X166635000Y-54253184D01*
X166635000Y-53950816D01*
X166576011Y-53654257D01*
X166460299Y-53374905D01*
X166292312Y-53123495D01*
X166078505Y-52909688D01*
X165827095Y-52741701D01*
X165547743Y-52625989D01*
X165251184Y-52567000D01*
X164948816Y-52567000D01*
X164652257Y-52625989D01*
X164372905Y-52741701D01*
X164121495Y-52909688D01*
X163907688Y-53123495D01*
X163830000Y-53239763D01*
X163752312Y-53123495D01*
X163538505Y-52909688D01*
X163287095Y-52741701D01*
X163007743Y-52625989D01*
X162711184Y-52567000D01*
X162408816Y-52567000D01*
X162112257Y-52625989D01*
X161832905Y-52741701D01*
X161581495Y-52909688D01*
X161515056Y-52976127D01*
X161509502Y-52957820D01*
X161450537Y-52847506D01*
X161371185Y-52750815D01*
X161274494Y-52671463D01*
X161164180Y-52612498D01*
X161044482Y-52576188D01*
X160920000Y-52563928D01*
X159120000Y-52563928D01*
X158995518Y-52576188D01*
X158875820Y-52612498D01*
X158765506Y-52671463D01*
X158668815Y-52750815D01*
X158589463Y-52847506D01*
X158530498Y-52957820D01*
X158494188Y-53077518D01*
X158481928Y-53202000D01*
X127760000Y-53202000D01*
X127760000Y-49060000D01*
X168440001Y-49060000D01*
X168440000Y-64367581D01*
G37*
%TD.AperFunction*%
%TD*%
M02*
